<?xml version="1.0" encoding="UTF-8" standalone="no"?>
<!DOCTYPE svg PUBLIC "-//W3C//DTD SVG 1.1//EN"
 "http://www.w3.org/Graphics/SVG/1.1/DTD/svg11.dtd">
<!-- Generated by graphviz version 2.43.0 (0)
 -->
<!-- Title: modeling_deepseek.DeepseekV3RotaryEmbedding Pages: 1 -->
<svg width="591pt" height="455pt"
 viewBox="0.00 0.00 591.00 455.00" xmlns="http://www.w3.org/2000/svg" xmlns:xlink="http://www.w3.org/1999/xlink">
<g id="graph0" class="graph" transform="scale(1 1) rotate(0) translate(4 451)">
<title>modeling_deepseek.DeepseekV3RotaryEmbedding</title>
<!-- Node1 -->
<g id="Node000001" class="node">
<title>Node1</title>
<g id="a_Node000001"><a xlink:title=" ">
<polygon fill="#999999" stroke="transparent" points="396,-362 235,-362 235,-227 396,-227 396,-362"/>
<text text-anchor="start" x="240.5" y="-349.5" font-family="Helvetica,sans-Serif" font-size="10.00">modeling_deepseek.Deepseek</text>
<text text-anchor="start" x="266" y="-338.5" font-family="Helvetica,sans-Serif" font-size="10.00">V3RotaryEmbedding</text>
<text text-anchor="start" x="241.5" y="-323.5" font-family="Helvetica,sans-Serif" font-size="10.00">+</text>
<text text-anchor="start" x="256.5" y="-323.5" font-family="Helvetica,sans-Serif" font-size="10.00">dim</text>
<text text-anchor="start" x="241.5" y="-308.5" font-family="Helvetica,sans-Serif" font-size="10.00">+</text>
<text text-anchor="start" x="256.5" y="-308.5" font-family="Helvetica,sans-Serif" font-size="10.00">max_position_embeddings</text>
<text text-anchor="start" x="241.5" y="-293.5" font-family="Helvetica,sans-Serif" font-size="10.00">+</text>
<text text-anchor="start" x="256.5" y="-293.5" font-family="Helvetica,sans-Serif" font-size="10.00">base</text>
<text text-anchor="start" x="241.5" y="-278.5" font-family="Helvetica,sans-Serif" font-size="10.00">+</text>
<text text-anchor="start" x="256.5" y="-278.5" font-family="Helvetica,sans-Serif" font-size="10.00">max_seq_len_cached</text>
<text text-anchor="start" x="241.5" y="-263.5" font-family="Helvetica,sans-Serif" font-size="10.00">+</text>
<text text-anchor="start" x="256.5" y="-263.5" font-family="Helvetica,sans-Serif" font-size="10.00">__init__()</text>
<text text-anchor="start" x="241.5" y="-248.5" font-family="Helvetica,sans-Serif" font-size="10.00">+</text>
<text text-anchor="start" x="256.5" y="-248.5" font-family="Helvetica,sans-Serif" font-size="10.00">forward()</text>
<text text-anchor="start" x="241.5" y="-233.5" font-family="Helvetica,sans-Serif" font-size="10.00">#</text>
<text text-anchor="start" x="256.5" y="-233.5" font-family="Helvetica,sans-Serif" font-size="10.00">_set_cos_sin_cache()</text>
<polygon fill="#666666" stroke="#666666" points="235.5,-333.5 235.5,-333.5 396.5,-333.5 396.5,-333.5 235.5,-333.5"/>
<polygon fill="#666666" stroke="#666666" points="235.5,-273.5 235.5,-273.5 254.5,-273.5 254.5,-273.5 235.5,-273.5"/>
<polygon fill="#666666" stroke="#666666" points="254.5,-273.5 254.5,-273.5 396.5,-273.5 396.5,-273.5 254.5,-273.5"/>
<polygon fill="none" stroke="#666666" points="235,-227 235,-362 396,-362 396,-227 235,-227"/>
</a>
</g>
</g>
<!-- Node3 -->
<g id="Node000003" class="node">
<title>Node3</title>
<g id="a_Node000003"><a xlink:href="$classmodeling__deepseek_1_1DeepseekV3DynamicNTKScalingRotaryEmbedding.html" xlink:title=" ">
<polygon fill="white" stroke="transparent" points="209,-155.5 0,-155.5 0,-35.5 209,-35.5 209,-155.5"/>
<text text-anchor="start" x="5.5" y="-143.5" font-family="Helvetica,sans-Serif" font-size="10.00">modeling_deepseek.Deepseek</text>
<text text-anchor="start" x="5.5" y="-132.5" font-family="Helvetica,sans-Serif" font-size="10.00">V3DynamicNTKScalingRotaryEmbedding</text>
<text text-anchor="start" x="18.5" y="-117.5" font-family="Helvetica,sans-Serif" font-size="10.00">+</text>
<text text-anchor="start" x="45.5" y="-117.5" font-family="Helvetica,sans-Serif" font-size="10.00">scaling_factor</text>
<text text-anchor="start" x="18.5" y="-102.5" font-family="Helvetica,sans-Serif" font-size="10.00">+</text>
<text text-anchor="start" x="45.5" y="-102.5" font-family="Helvetica,sans-Serif" font-size="10.00">max_seq_len_cached</text>
<text text-anchor="start" x="18.5" y="-87.5" font-family="Helvetica,sans-Serif" font-size="10.00">+</text>
<text text-anchor="start" x="45.5" y="-87.5" font-family="Helvetica,sans-Serif" font-size="10.00">max_position_embeddings</text>
<text text-anchor="start" x="18.5" y="-72.5" font-family="Helvetica,sans-Serif" font-size="10.00">+</text>
<text text-anchor="start" x="45.5" y="-72.5" font-family="Helvetica,sans-Serif" font-size="10.00">dim</text>
<text text-anchor="start" x="18.5" y="-57.5" font-family="Helvetica,sans-Serif" font-size="10.00">+</text>
<text text-anchor="start" x="45.5" y="-57.5" font-family="Helvetica,sans-Serif" font-size="10.00">__init__()</text>
<text text-anchor="start" x="18.5" y="-42.5" font-family="Helvetica,sans-Serif" font-size="10.00">#</text>
<text text-anchor="start" x="45.5" y="-42.5" font-family="Helvetica,sans-Serif" font-size="10.00">_set_cos_sin_cache()</text>
<polygon fill="#666666" stroke="#666666" points="0.5,-127.5 0.5,-127.5 209.5,-127.5 209.5,-127.5 0.5,-127.5"/>
<polygon fill="#666666" stroke="#666666" points="0.5,-67.5 0.5,-67.5 43.5,-67.5 43.5,-67.5 0.5,-67.5"/>
<polygon fill="#666666" stroke="#666666" points="43.5,-67.5 43.5,-67.5 209.5,-67.5 209.5,-67.5 43.5,-67.5"/>
<polygon fill="none" stroke="#666666" points="0,-35.5 0,-155.5 209,-155.5 209,-35.5 0,-35.5"/>
</a>
</g>
</g>
<!-- Node1&#45;&gt;Node3 -->
<g id="edge6_Node000001_Node000003" class="edge">
<title>Node1&#45;&gt;Node3</title>
<g id="a_edge6_Node000001_Node000003"><a xlink:title=" ">
<path fill="none" stroke="#63b8ff" d="M236.74,-219.97C213.97,-198.71 189.42,-175.79 167.73,-155.53"/>
<polygon fill="none" stroke="#63b8ff" points="234.37,-222.54 244.07,-226.8 239.14,-217.42 234.37,-222.54"/>
</a>
</g>
</g>
<!-- Node4 -->
<g id="Node000004" class="node">
<title>Node4</title>
<g id="a_Node000004"><a xlink:href="$classmodeling__deepseek_1_1DeepseekV3LinearScalingRotaryEmbedding.html" xlink:title=" ">
<polygon fill="white" stroke="transparent" points="403.5,-140.5 227.5,-140.5 227.5,-50.5 403.5,-50.5 403.5,-140.5"/>
<text text-anchor="start" x="232.5" y="-128.5" font-family="Helvetica,sans-Serif" font-size="10.00">modeling_deepseek.Deepseek</text>
<text text-anchor="start" x="232.5" y="-117.5" font-family="Helvetica,sans-Serif" font-size="10.00">V3LinearScalingRotaryEmbedding</text>
<text text-anchor="start" x="244" y="-102.5" font-family="Helvetica,sans-Serif" font-size="10.00">+</text>
<text text-anchor="start" x="269.5" y="-102.5" font-family="Helvetica,sans-Serif" font-size="10.00">scaling_factor</text>
<text text-anchor="start" x="244" y="-87.5" font-family="Helvetica,sans-Serif" font-size="10.00">+</text>
<text text-anchor="start" x="269.5" y="-87.5" font-family="Helvetica,sans-Serif" font-size="10.00">max_seq_len_cached</text>
<text text-anchor="start" x="244" y="-72.5" font-family="Helvetica,sans-Serif" font-size="10.00">+</text>
<text text-anchor="start" x="269.5" y="-72.5" font-family="Helvetica,sans-Serif" font-size="10.00">__init__()</text>
<text text-anchor="start" x="244" y="-57.5" font-family="Helvetica,sans-Serif" font-size="10.00">#</text>
<text text-anchor="start" x="269.5" y="-57.5" font-family="Helvetica,sans-Serif" font-size="10.00">_set_cos_sin_cache()</text>
<polygon fill="#666666" stroke="#666666" points="227.5,-112.5 227.5,-112.5 403.5,-112.5 403.5,-112.5 227.5,-112.5"/>
<polygon fill="#666666" stroke="#666666" points="227.5,-82.5 227.5,-82.5 267.5,-82.5 267.5,-82.5 227.5,-82.5"/>
<polygon fill="#666666" stroke="#666666" points="267.5,-82.5 267.5,-82.5 403.5,-82.5 403.5,-82.5 267.5,-82.5"/>
<polygon fill="none" stroke="#666666" points="227.5,-50.5 227.5,-140.5 403.5,-140.5 403.5,-50.5 227.5,-50.5"/>
</a>
</g>
</g>
<!-- Node1&#45;&gt;Node4 -->
<g id="edge7_Node000001_Node000004" class="edge">
<title>Node1&#45;&gt;Node4</title>
<g id="a_edge7_Node000001_Node000004"><a xlink:title=" ">
<path fill="none" stroke="#63b8ff" d="M315.5,-216.65C315.5,-190.84 315.5,-162.93 315.5,-140.52"/>
<polygon fill="none" stroke="#63b8ff" points="312,-216.8 315.5,-226.8 319,-216.8 312,-216.8"/>
</a>
</g>
</g>
<!-- Node5 -->
<g id="Node000005" class="node">
<title>Node5</title>
<g id="a_Node000005"><a xlink:href="$classmodeling__deepseek_1_1DeepseekV3YarnRotaryEmbedding.html" xlink:title=" ">
<polygon fill="white" stroke="transparent" points="583,-191 422,-191 422,0 583,0 583,-191"/>
<text text-anchor="start" x="427.5" y="-178.5" font-family="Helvetica,sans-Serif" font-size="10.00">modeling_deepseek.Deepseek</text>
<text text-anchor="start" x="442.5" y="-167.5" font-family="Helvetica,sans-Serif" font-size="10.00">V3YarnRotaryEmbedding</text>
<text text-anchor="start" x="434" y="-152.5" font-family="Helvetica,sans-Serif" font-size="10.00">+</text>
<text text-anchor="start" x="454.5" y="-152.5" font-family="Helvetica,sans-Serif" font-size="10.00">scaling_factor</text>
<text text-anchor="start" x="434" y="-137.5" font-family="Helvetica,sans-Serif" font-size="10.00">+</text>
<text text-anchor="start" x="454.5" y="-137.5" font-family="Helvetica,sans-Serif" font-size="10.00">original_max_position</text>
<text text-anchor="start" x="454.5" y="-126.5" font-family="Helvetica,sans-Serif" font-size="10.00">_embeddings</text>
<text text-anchor="start" x="434" y="-111.5" font-family="Helvetica,sans-Serif" font-size="10.00">+</text>
<text text-anchor="start" x="454.5" y="-111.5" font-family="Helvetica,sans-Serif" font-size="10.00">beta_fast</text>
<text text-anchor="start" x="434" y="-96.5" font-family="Helvetica,sans-Serif" font-size="10.00">+</text>
<text text-anchor="start" x="454.5" y="-96.5" font-family="Helvetica,sans-Serif" font-size="10.00">beta_slow</text>
<text text-anchor="start" x="434" y="-81.5" font-family="Helvetica,sans-Serif" font-size="10.00">+</text>
<text text-anchor="start" x="454.5" y="-81.5" font-family="Helvetica,sans-Serif" font-size="10.00">mscale</text>
<text text-anchor="start" x="434" y="-66.5" font-family="Helvetica,sans-Serif" font-size="10.00">+</text>
<text text-anchor="start" x="454.5" y="-66.5" font-family="Helvetica,sans-Serif" font-size="10.00">mscale_all_dim</text>
<text text-anchor="start" x="434" y="-51.5" font-family="Helvetica,sans-Serif" font-size="10.00">+</text>
<text text-anchor="start" x="454.5" y="-51.5" font-family="Helvetica,sans-Serif" font-size="10.00">max_seq_len_cached</text>
<text text-anchor="start" x="434" y="-36.5" font-family="Helvetica,sans-Serif" font-size="10.00">+</text>
<text text-anchor="start" x="454.5" y="-36.5" font-family="Helvetica,sans-Serif" font-size="10.00">base</text>
<text text-anchor="start" x="434" y="-21.5" font-family="Helvetica,sans-Serif" font-size="10.00">+</text>
<text text-anchor="start" x="454.5" y="-21.5" font-family="Helvetica,sans-Serif" font-size="10.00">__init__()</text>
<text text-anchor="start" x="434" y="-6.5" font-family="Helvetica,sans-Serif" font-size="10.00">#</text>
<text text-anchor="start" x="454.5" y="-6.5" font-family="Helvetica,sans-Serif" font-size="10.00">_set_cos_sin_cache()</text>
<polygon fill="#666666" stroke="#666666" points="422.5,-162.5 422.5,-162.5 583.5,-162.5 583.5,-162.5 422.5,-162.5"/>
<polygon fill="#666666" stroke="#666666" points="422.5,-31.5 422.5,-31.5 452.5,-31.5 452.5,-31.5 422.5,-31.5"/>
<polygon fill="#666666" stroke="#666666" points="452.5,-31.5 452.5,-31.5 583.5,-31.5 583.5,-31.5 452.5,-31.5"/>
<polygon fill="none" stroke="#666666" points="422,0 422,-191 583,-191 583,0 422,0"/>
</a>
</g>
</g>
<!-- Node1&#45;&gt;Node5 -->
<g id="edge8_Node000001_Node000005" class="edge">
<title>Node1&#45;&gt;Node5</title>
<g id="a_edge8_Node000001_Node000005"><a xlink:title=" ">
<path fill="none" stroke="#63b8ff" d="M385.99,-219.24C397.64,-206.96 409.8,-194.15 421.69,-181.64"/>
<polygon fill="none" stroke="#63b8ff" points="383.16,-217.14 378.81,-226.8 388.23,-221.96 383.16,-217.14"/>
</a>
</g>
</g>
<!-- Node2 -->
<g id="Node000002" class="node">
<title>Node2</title>
<g id="a_Node000002"><a xlink:title=" ">
<polygon fill="white" stroke="transparent" points="346.5,-447 284.5,-447 284.5,-398 346.5,-398 346.5,-447"/>
<text text-anchor="start" x="289.5" y="-434.5" font-family="Helvetica,sans-Serif" font-size="10.00">nn.Module</text>
<text text-anchor="start" x="313.5" y="-419.5" font-family="Helvetica,sans-Serif" font-size="10.00"> </text>
<text text-anchor="start" x="313.5" y="-404.5" font-family="Helvetica,sans-Serif" font-size="10.00"> </text>
<polygon fill="#666666" stroke="#666666" points="284.5,-429.5 284.5,-429.5 346.5,-429.5 346.5,-429.5 284.5,-429.5"/>
<polygon fill="#666666" stroke="#666666" points="284.5,-414.5 284.5,-414.5 346.5,-414.5 346.5,-414.5 284.5,-414.5"/>
<polygon fill="none" stroke="#666666" points="284.5,-398 284.5,-447 346.5,-447 346.5,-398 284.5,-398"/>
</a>
</g>
</g>
<!-- Node2&#45;&gt;Node1 -->
<g id="edge5_Node000001_Node000002" class="edge">
<title>Node2&#45;&gt;Node1</title>
<g id="a_edge5_Node000001_Node000002"><a xlink:title=" ">
<path fill="none" stroke="#63b8ff" d="M315.5,-387.56C315.5,-379.65 315.5,-370.96 315.5,-362.17"/>
<polygon fill="none" stroke="#63b8ff" points="312,-387.8 315.5,-397.8 319,-387.8 312,-387.8"/>
</a>
</g>
</g>
</g>
</svg>
