<?xml version="1.0" encoding="UTF-8" standalone="no"?>
<!DOCTYPE svg PUBLIC "-//W3C//DTD SVG 1.1//EN"
 "http://www.w3.org/Graphics/SVG/1.1/DTD/svg11.dtd">
<!-- Generated by graphviz version 2.43.0 (0)
 -->
<!-- Title: modeling_deepseek.DeepseekV3LinearScalingRotaryEmbedding Pages: 1 -->
<svg width="184pt" height="354pt"
 viewBox="0.00 0.00 184.00 354.00" xmlns="http://www.w3.org/2000/svg" xmlns:xlink="http://www.w3.org/1999/xlink">
<g id="graph0" class="graph" transform="scale(1 1) rotate(0) translate(4 350)">
<title>modeling_deepseek.DeepseekV3LinearScalingRotaryEmbedding</title>
<!-- Node1 -->
<g id="Node000001" class="node">
<title>Node1</title>
<g id="a_Node000001"><a xlink:title=" ">
<polygon fill="#999999" stroke="transparent" points="176,-90 0,-90 0,0 176,0 176,-90"/>
<text text-anchor="start" x="5" y="-78" font-family="Helvetica,sans-Serif" font-size="10.00">modeling_deepseek.Deepseek</text>
<text text-anchor="start" x="5" y="-67" font-family="Helvetica,sans-Serif" font-size="10.00">V3LinearScalingRotaryEmbedding</text>
<text text-anchor="start" x="16.5" y="-52" font-family="Helvetica,sans-Serif" font-size="10.00">+</text>
<text text-anchor="start" x="42" y="-52" font-family="Helvetica,sans-Serif" font-size="10.00">scaling_factor</text>
<text text-anchor="start" x="16.5" y="-37" font-family="Helvetica,sans-Serif" font-size="10.00">+</text>
<text text-anchor="start" x="42" y="-37" font-family="Helvetica,sans-Serif" font-size="10.00">max_seq_len_cached</text>
<text text-anchor="start" x="16.5" y="-22" font-family="Helvetica,sans-Serif" font-size="10.00">+</text>
<text text-anchor="start" x="42" y="-22" font-family="Helvetica,sans-Serif" font-size="10.00">__init__()</text>
<text text-anchor="start" x="16.5" y="-7" font-family="Helvetica,sans-Serif" font-size="10.00">#</text>
<text text-anchor="start" x="42" y="-7" font-family="Helvetica,sans-Serif" font-size="10.00">_set_cos_sin_cache()</text>
<polygon fill="#666666" stroke="#666666" points="0,-62 0,-62 176,-62 176,-62 0,-62"/>
<polygon fill="#666666" stroke="#666666" points="0,-32 0,-32 40,-32 40,-32 0,-32"/>
<polygon fill="#666666" stroke="#666666" points="40,-32 40,-32 176,-32 176,-32 40,-32"/>
<polygon fill="none" stroke="#666666" points="0,0 0,-90 176,-90 176,0 0,0"/>
</a>
</g>
</g>
<!-- Node2 -->
<g id="Node000002" class="node">
<title>Node2</title>
<g id="a_Node000002"><a xlink:href="$classmodeling__deepseek_1_1DeepseekV3RotaryEmbedding.html" xlink:title=" ">
<polygon fill="white" stroke="transparent" points="168.5,-261 7.5,-261 7.5,-126 168.5,-126 168.5,-261"/>
<text text-anchor="start" x="13" y="-248.5" font-family="Helvetica,sans-Serif" font-size="10.00">modeling_deepseek.Deepseek</text>
<text text-anchor="start" x="38.5" y="-237.5" font-family="Helvetica,sans-Serif" font-size="10.00">V3RotaryEmbedding</text>
<text text-anchor="start" x="14" y="-222.5" font-family="Helvetica,sans-Serif" font-size="10.00">+</text>
<text text-anchor="start" x="29" y="-222.5" font-family="Helvetica,sans-Serif" font-size="10.00">dim</text>
<text text-anchor="start" x="14" y="-207.5" font-family="Helvetica,sans-Serif" font-size="10.00">+</text>
<text text-anchor="start" x="29" y="-207.5" font-family="Helvetica,sans-Serif" font-size="10.00">max_position_embeddings</text>
<text text-anchor="start" x="14" y="-192.5" font-family="Helvetica,sans-Serif" font-size="10.00">+</text>
<text text-anchor="start" x="29" y="-192.5" font-family="Helvetica,sans-Serif" font-size="10.00">base</text>
<text text-anchor="start" x="14" y="-177.5" font-family="Helvetica,sans-Serif" font-size="10.00">+</text>
<text text-anchor="start" x="29" y="-177.5" font-family="Helvetica,sans-Serif" font-size="10.00">max_seq_len_cached</text>
<text text-anchor="start" x="14" y="-162.5" font-family="Helvetica,sans-Serif" font-size="10.00">+</text>
<text text-anchor="start" x="29" y="-162.5" font-family="Helvetica,sans-Serif" font-size="10.00">__init__()</text>
<text text-anchor="start" x="14" y="-147.5" font-family="Helvetica,sans-Serif" font-size="10.00">+</text>
<text text-anchor="start" x="29" y="-147.5" font-family="Helvetica,sans-Serif" font-size="10.00">forward()</text>
<text text-anchor="start" x="14" y="-132.5" font-family="Helvetica,sans-Serif" font-size="10.00">#</text>
<text text-anchor="start" x="29" y="-132.5" font-family="Helvetica,sans-Serif" font-size="10.00">_set_cos_sin_cache()</text>
<polygon fill="#666666" stroke="#666666" points="8,-232.5 8,-232.5 169,-232.5 169,-232.5 8,-232.5"/>
<polygon fill="#666666" stroke="#666666" points="8,-172.5 8,-172.5 27,-172.5 27,-172.5 8,-172.5"/>
<polygon fill="#666666" stroke="#666666" points="27,-172.5 27,-172.5 169,-172.5 169,-172.5 27,-172.5"/>
<polygon fill="none" stroke="#666666" points="7.5,-126 7.5,-261 168.5,-261 168.5,-126 7.5,-126"/>
</a>
</g>
</g>
<!-- Node2&#45;&gt;Node1 -->
<g id="edge3_Node000001_Node000002" class="edge">
<title>Node2&#45;&gt;Node1</title>
<g id="a_edge3_Node000001_Node000002"><a xlink:title=" ">
<path fill="none" stroke="#63b8ff" d="M88,-115.47C88,-106.77 88,-98.14 88,-90.08"/>
<polygon fill="none" stroke="#63b8ff" points="84.5,-115.68 88,-125.68 91.5,-115.68 84.5,-115.68"/>
</a>
</g>
</g>
<!-- Node3 -->
<g id="Node000003" class="node">
<title>Node3</title>
<g id="a_Node000003"><a xlink:title=" ">
<polygon fill="white" stroke="transparent" points="119,-346 57,-346 57,-297 119,-297 119,-346"/>
<text text-anchor="start" x="62" y="-333.5" font-family="Helvetica,sans-Serif" font-size="10.00">nn.Module</text>
<text text-anchor="start" x="86" y="-318.5" font-family="Helvetica,sans-Serif" font-size="10.00"> </text>
<text text-anchor="start" x="86" y="-303.5" font-family="Helvetica,sans-Serif" font-size="10.00"> </text>
<polygon fill="#666666" stroke="#666666" points="57,-328.5 57,-328.5 119,-328.5 119,-328.5 57,-328.5"/>
<polygon fill="#666666" stroke="#666666" points="57,-313.5 57,-313.5 119,-313.5 119,-313.5 57,-313.5"/>
<polygon fill="none" stroke="#666666" points="57,-297 57,-346 119,-346 119,-297 57,-297"/>
</a>
</g>
</g>
<!-- Node3&#45;&gt;Node2 -->
<g id="edge4_Node000002_Node000003" class="edge">
<title>Node3&#45;&gt;Node2</title>
<g id="a_edge4_Node000002_Node000003"><a xlink:title=" ">
<path fill="none" stroke="#63b8ff" d="M88,-286.56C88,-278.65 88,-269.96 88,-261.17"/>
<polygon fill="none" stroke="#63b8ff" points="84.5,-286.8 88,-296.8 91.5,-286.8 84.5,-286.8"/>
</a>
</g>
</g>
</g>
</svg>
