<?xml version="1.0" encoding="UTF-8" standalone="no"?>
<!DOCTYPE svg PUBLIC "-//W3C//DTD SVG 1.1//EN"
 "http://www.w3.org/Graphics/SVG/1.1/DTD/svg11.dtd">
<!-- Generated by graphviz version 2.43.0 (0)
 -->
<!-- Title: modeling_deepseek.DeepseekV3DynamicNTKScalingRotaryEmbedding Pages: 1 -->
<svg width="217pt" height="384pt"
 viewBox="0.00 0.00 217.00 384.00" xmlns="http://www.w3.org/2000/svg" xmlns:xlink="http://www.w3.org/1999/xlink">
<g id="graph0" class="graph" transform="scale(1 1) rotate(0) translate(4 380)">
<title>modeling_deepseek.DeepseekV3DynamicNTKScalingRotaryEmbedding</title>
<!-- Node1 -->
<g id="Node000001" class="node">
<title>Node1</title>
<g id="a_Node000001"><a xlink:title=" ">
<polygon fill="#999999" stroke="transparent" points="209,-120 0,-120 0,0 209,0 209,-120"/>
<text text-anchor="start" x="5.5" y="-108" font-family="Helvetica,sans-Serif" font-size="10.00">modeling_deepseek.Deepseek</text>
<text text-anchor="start" x="5.5" y="-97" font-family="Helvetica,sans-Serif" font-size="10.00">V3DynamicNTKScalingRotaryEmbedding</text>
<text text-anchor="start" x="18.5" y="-82" font-family="Helvetica,sans-Serif" font-size="10.00">+</text>
<text text-anchor="start" x="45.5" y="-82" font-family="Helvetica,sans-Serif" font-size="10.00">scaling_factor</text>
<text text-anchor="start" x="18.5" y="-67" font-family="Helvetica,sans-Serif" font-size="10.00">+</text>
<text text-anchor="start" x="45.5" y="-67" font-family="Helvetica,sans-Serif" font-size="10.00">max_seq_len_cached</text>
<text text-anchor="start" x="18.5" y="-52" font-family="Helvetica,sans-Serif" font-size="10.00">+</text>
<text text-anchor="start" x="45.5" y="-52" font-family="Helvetica,sans-Serif" font-size="10.00">max_position_embeddings</text>
<text text-anchor="start" x="18.5" y="-37" font-family="Helvetica,sans-Serif" font-size="10.00">+</text>
<text text-anchor="start" x="45.5" y="-37" font-family="Helvetica,sans-Serif" font-size="10.00">dim</text>
<text text-anchor="start" x="18.5" y="-22" font-family="Helvetica,sans-Serif" font-size="10.00">+</text>
<text text-anchor="start" x="45.5" y="-22" font-family="Helvetica,sans-Serif" font-size="10.00">__init__()</text>
<text text-anchor="start" x="18.5" y="-7" font-family="Helvetica,sans-Serif" font-size="10.00">#</text>
<text text-anchor="start" x="45.5" y="-7" font-family="Helvetica,sans-Serif" font-size="10.00">_set_cos_sin_cache()</text>
<polygon fill="#666666" stroke="#666666" points="0.5,-92 0.5,-92 209.5,-92 209.5,-92 0.5,-92"/>
<polygon fill="#666666" stroke="#666666" points="0.5,-32 0.5,-32 43.5,-32 43.5,-32 0.5,-32"/>
<polygon fill="#666666" stroke="#666666" points="43.5,-32 43.5,-32 209.5,-32 209.5,-32 43.5,-32"/>
<polygon fill="none" stroke="#666666" points="0,0 0,-120 209,-120 209,0 0,0"/>
</a>
</g>
</g>
<!-- Node2 -->
<g id="Node000002" class="node">
<title>Node2</title>
<g id="a_Node000002"><a xlink:href="$classmodeling__deepseek_1_1DeepseekV3RotaryEmbedding.html" xlink:title=" ">
<polygon fill="white" stroke="transparent" points="185,-291 24,-291 24,-156 185,-156 185,-291"/>
<text text-anchor="start" x="29.5" y="-278.5" font-family="Helvetica,sans-Serif" font-size="10.00">modeling_deepseek.Deepseek</text>
<text text-anchor="start" x="55" y="-267.5" font-family="Helvetica,sans-Serif" font-size="10.00">V3RotaryEmbedding</text>
<text text-anchor="start" x="30.5" y="-252.5" font-family="Helvetica,sans-Serif" font-size="10.00">+</text>
<text text-anchor="start" x="45.5" y="-252.5" font-family="Helvetica,sans-Serif" font-size="10.00">dim</text>
<text text-anchor="start" x="30.5" y="-237.5" font-family="Helvetica,sans-Serif" font-size="10.00">+</text>
<text text-anchor="start" x="45.5" y="-237.5" font-family="Helvetica,sans-Serif" font-size="10.00">max_position_embeddings</text>
<text text-anchor="start" x="30.5" y="-222.5" font-family="Helvetica,sans-Serif" font-size="10.00">+</text>
<text text-anchor="start" x="45.5" y="-222.5" font-family="Helvetica,sans-Serif" font-size="10.00">base</text>
<text text-anchor="start" x="30.5" y="-207.5" font-family="Helvetica,sans-Serif" font-size="10.00">+</text>
<text text-anchor="start" x="45.5" y="-207.5" font-family="Helvetica,sans-Serif" font-size="10.00">max_seq_len_cached</text>
<text text-anchor="start" x="30.5" y="-192.5" font-family="Helvetica,sans-Serif" font-size="10.00">+</text>
<text text-anchor="start" x="45.5" y="-192.5" font-family="Helvetica,sans-Serif" font-size="10.00">__init__()</text>
<text text-anchor="start" x="30.5" y="-177.5" font-family="Helvetica,sans-Serif" font-size="10.00">+</text>
<text text-anchor="start" x="45.5" y="-177.5" font-family="Helvetica,sans-Serif" font-size="10.00">forward()</text>
<text text-anchor="start" x="30.5" y="-162.5" font-family="Helvetica,sans-Serif" font-size="10.00">#</text>
<text text-anchor="start" x="45.5" y="-162.5" font-family="Helvetica,sans-Serif" font-size="10.00">_set_cos_sin_cache()</text>
<polygon fill="#666666" stroke="#666666" points="24.5,-262.5 24.5,-262.5 185.5,-262.5 185.5,-262.5 24.5,-262.5"/>
<polygon fill="#666666" stroke="#666666" points="24.5,-202.5 24.5,-202.5 43.5,-202.5 43.5,-202.5 24.5,-202.5"/>
<polygon fill="#666666" stroke="#666666" points="43.5,-202.5 43.5,-202.5 185.5,-202.5 185.5,-202.5 43.5,-202.5"/>
<polygon fill="none" stroke="#666666" points="24,-156 24,-291 185,-291 185,-156 24,-156"/>
</a>
</g>
</g>
<!-- Node2&#45;&gt;Node1 -->
<g id="edge3_Node000001_Node000002" class="edge">
<title>Node2&#45;&gt;Node1</title>
<g id="a_edge3_Node000001_Node000002"><a xlink:title=" ">
<path fill="none" stroke="#63b8ff" d="M104.5,-145.83C104.5,-137.23 104.5,-128.57 104.5,-120.23"/>
<polygon fill="none" stroke="#63b8ff" points="101,-145.88 104.5,-155.88 108,-145.88 101,-145.88"/>
</a>
</g>
</g>
<!-- Node3 -->
<g id="Node000003" class="node">
<title>Node3</title>
<g id="a_Node000003"><a xlink:title=" ">
<polygon fill="white" stroke="transparent" points="135.5,-376 73.5,-376 73.5,-327 135.5,-327 135.5,-376"/>
<text text-anchor="start" x="78.5" y="-363.5" font-family="Helvetica,sans-Serif" font-size="10.00">nn.Module</text>
<text text-anchor="start" x="102.5" y="-348.5" font-family="Helvetica,sans-Serif" font-size="10.00"> </text>
<text text-anchor="start" x="102.5" y="-333.5" font-family="Helvetica,sans-Serif" font-size="10.00"> </text>
<polygon fill="#666666" stroke="#666666" points="73.5,-358.5 73.5,-358.5 135.5,-358.5 135.5,-358.5 73.5,-358.5"/>
<polygon fill="#666666" stroke="#666666" points="73.5,-343.5 73.5,-343.5 135.5,-343.5 135.5,-343.5 73.5,-343.5"/>
<polygon fill="none" stroke="#666666" points="73.5,-327 73.5,-376 135.5,-376 135.5,-327 73.5,-327"/>
</a>
</g>
</g>
<!-- Node3&#45;&gt;Node2 -->
<g id="edge4_Node000002_Node000003" class="edge">
<title>Node3&#45;&gt;Node2</title>
<g id="a_edge4_Node000002_Node000003"><a xlink:title=" ">
<path fill="none" stroke="#63b8ff" d="M104.5,-316.56C104.5,-308.65 104.5,-299.96 104.5,-291.17"/>
<polygon fill="none" stroke="#63b8ff" points="101,-316.8 104.5,-326.8 108,-316.8 101,-316.8"/>
</a>
</g>
</g>
</g>
</svg>
