<?xml version="1.0" encoding="UTF-8" standalone="no"?>
<!DOCTYPE svg PUBLIC "-//W3C//DTD SVG 1.1//EN"
 "http://www.w3.org/Graphics/SVG/1.1/DTD/svg11.dtd">
<!-- Generated by graphviz version 2.43.0 (0)
 -->
<!-- Title: modeling_deepseek.DeepseekV3Model Pages: 1 -->
<svg width="191pt" height="474pt"
 viewBox="0.00 0.00 191.00 474.00" xmlns="http://www.w3.org/2000/svg" xmlns:xlink="http://www.w3.org/1999/xlink">
<g id="graph0" class="graph" transform="scale(1 1) rotate(0) translate(4 470)">
<title>modeling_deepseek.DeepseekV3Model</title>
<!-- Node1 -->
<g id="Node000001" class="node">
<title>Node1</title>
<g id="a_Node000001"><a xlink:title=" ">
<polygon fill="#999999" stroke="transparent" points="172,-195 11,-195 11,0 172,0 172,-195"/>
<text text-anchor="start" x="16.5" y="-182.5" font-family="Helvetica,sans-Serif" font-size="10.00">modeling_deepseek.Deepseek</text>
<text text-anchor="start" x="70.5" y="-171.5" font-family="Helvetica,sans-Serif" font-size="10.00">V3Model</text>
<text text-anchor="start" x="20.5" y="-156.5" font-family="Helvetica,sans-Serif" font-size="10.00">+</text>
<text text-anchor="start" x="38.5" y="-156.5" font-family="Helvetica,sans-Serif" font-size="10.00">padding_idx</text>
<text text-anchor="start" x="20.5" y="-141.5" font-family="Helvetica,sans-Serif" font-size="10.00">+</text>
<text text-anchor="start" x="38.5" y="-141.5" font-family="Helvetica,sans-Serif" font-size="10.00">vocab_size</text>
<text text-anchor="start" x="20.5" y="-126.5" font-family="Helvetica,sans-Serif" font-size="10.00">+</text>
<text text-anchor="start" x="38.5" y="-126.5" font-family="Helvetica,sans-Serif" font-size="10.00">embed_tokens</text>
<text text-anchor="start" x="20.5" y="-111.5" font-family="Helvetica,sans-Serif" font-size="10.00">+</text>
<text text-anchor="start" x="38.5" y="-111.5" font-family="Helvetica,sans-Serif" font-size="10.00">layers</text>
<text text-anchor="start" x="20.5" y="-96.5" font-family="Helvetica,sans-Serif" font-size="10.00">+</text>
<text text-anchor="start" x="38.5" y="-96.5" font-family="Helvetica,sans-Serif" font-size="10.00">norm</text>
<text text-anchor="start" x="20.5" y="-81.5" font-family="Helvetica,sans-Serif" font-size="10.00">+</text>
<text text-anchor="start" x="38.5" y="-81.5" font-family="Helvetica,sans-Serif" font-size="10.00">gradient_checkpointing</text>
<text text-anchor="start" x="20.5" y="-66.5" font-family="Helvetica,sans-Serif" font-size="10.00">#</text>
<text text-anchor="start" x="38.5" y="-66.5" font-family="Helvetica,sans-Serif" font-size="10.00">_use_flash_attention_2</text>
<text text-anchor="start" x="20.5" y="-51.5" font-family="Helvetica,sans-Serif" font-size="10.00">+</text>
<text text-anchor="start" x="38.5" y="-51.5" font-family="Helvetica,sans-Serif" font-size="10.00">__init__()</text>
<text text-anchor="start" x="20.5" y="-36.5" font-family="Helvetica,sans-Serif" font-size="10.00">+</text>
<text text-anchor="start" x="38.5" y="-36.5" font-family="Helvetica,sans-Serif" font-size="10.00">get_input_embeddings()</text>
<text text-anchor="start" x="20.5" y="-21.5" font-family="Helvetica,sans-Serif" font-size="10.00">+</text>
<text text-anchor="start" x="38.5" y="-21.5" font-family="Helvetica,sans-Serif" font-size="10.00">set_input_embeddings()</text>
<text text-anchor="start" x="20.5" y="-6.5" font-family="Helvetica,sans-Serif" font-size="10.00">+</text>
<text text-anchor="start" x="38.5" y="-6.5" font-family="Helvetica,sans-Serif" font-size="10.00">forward()</text>
<polygon fill="#666666" stroke="#666666" points="11.5,-166.5 11.5,-166.5 172.5,-166.5 172.5,-166.5 11.5,-166.5"/>
<polygon fill="#666666" stroke="#666666" points="11.5,-61.5 11.5,-61.5 36.5,-61.5 36.5,-61.5 11.5,-61.5"/>
<polygon fill="#666666" stroke="#666666" points="36.5,-61.5 36.5,-61.5 172.5,-61.5 172.5,-61.5 36.5,-61.5"/>
<polygon fill="none" stroke="#666666" points="11,0 11,-195 172,-195 172,0 11,0"/>
</a>
</g>
</g>
<!-- Node2 -->
<g id="Node000002" class="node">
<title>Node2</title>
<g id="a_Node000002"><a xlink:href="$classmodeling__deepseek_1_1DeepseekV3PreTrainedModel.html" xlink:title=" ">
<polygon fill="white" stroke="transparent" points="183,-381 0,-381 0,-231 183,-231 183,-381"/>
<text text-anchor="start" x="16.5" y="-369" font-family="Helvetica,sans-Serif" font-size="10.00">modeling_deepseek.Deepseek</text>
<text text-anchor="start" x="45" y="-358" font-family="Helvetica,sans-Serif" font-size="10.00">V3PreTrainedModel</text>
<text text-anchor="start" x="4.5" y="-343" font-family="Helvetica,sans-Serif" font-size="10.00">+</text>
<text text-anchor="start" x="17.5" y="-343" font-family="Helvetica,sans-Serif" font-size="10.00">config_class</text>
<text text-anchor="start" x="4.5" y="-328" font-family="Helvetica,sans-Serif" font-size="10.00">+</text>
<text text-anchor="start" x="17.5" y="-328" font-family="Helvetica,sans-Serif" font-size="10.00">base_model_prefix</text>
<text text-anchor="start" x="4.5" y="-313" font-family="Helvetica,sans-Serif" font-size="10.00">+</text>
<text text-anchor="start" x="17.5" y="-313" font-family="Helvetica,sans-Serif" font-size="10.00">supports_gradient_checkpointing</text>
<text text-anchor="start" x="4.5" y="-298" font-family="Helvetica,sans-Serif" font-size="10.00">#</text>
<text text-anchor="start" x="17.5" y="-298" font-family="Helvetica,sans-Serif" font-size="10.00">_no_split_modules</text>
<text text-anchor="start" x="4.5" y="-283" font-family="Helvetica,sans-Serif" font-size="10.00">#</text>
<text text-anchor="start" x="17.5" y="-283" font-family="Helvetica,sans-Serif" font-size="10.00">_skip_keys_device_placement</text>
<text text-anchor="start" x="4.5" y="-268" font-family="Helvetica,sans-Serif" font-size="10.00">#</text>
<text text-anchor="start" x="17.5" y="-268" font-family="Helvetica,sans-Serif" font-size="10.00">_supports_flash_attn_2</text>
<text text-anchor="start" x="4.5" y="-253" font-family="Helvetica,sans-Serif" font-size="10.00">#</text>
<text text-anchor="start" x="17.5" y="-253" font-family="Helvetica,sans-Serif" font-size="10.00">_supports_cache_class</text>
<text text-anchor="start" x="4.5" y="-238" font-family="Helvetica,sans-Serif" font-size="10.00">#</text>
<text text-anchor="start" x="17.5" y="-238" font-family="Helvetica,sans-Serif" font-size="10.00">_init_weights()</text>
<polygon fill="#666666" stroke="#666666" points="0.5,-353 0.5,-353 183.5,-353 183.5,-353 0.5,-353"/>
<polygon fill="#666666" stroke="#666666" points="0.5,-248 0.5,-248 15.5,-248 15.5,-248 0.5,-248"/>
<polygon fill="#666666" stroke="#666666" points="15.5,-248 15.5,-248 183.5,-248 183.5,-248 15.5,-248"/>
<polygon fill="none" stroke="#666666" points="0,-231 0,-381 183,-381 183,-231 0,-231"/>
</a>
</g>
</g>
<!-- Node2&#45;&gt;Node1 -->
<g id="edge3_Node000001_Node000002" class="edge">
<title>Node2&#45;&gt;Node1</title>
<g id="a_edge3_Node000001_Node000002"><a xlink:title=" ">
<path fill="none" stroke="#63b8ff" d="M91.5,-220.6C91.5,-212.2 91.5,-203.63 91.5,-195.12"/>
<polygon fill="none" stroke="#63b8ff" points="88,-220.74 91.5,-230.74 95,-220.74 88,-220.74"/>
</a>
</g>
</g>
<!-- Node3 -->
<g id="Node000003" class="node">
<title>Node3</title>
<g id="a_Node000003"><a xlink:title=" ">
<polygon fill="white" stroke="transparent" points="137.5,-466 45.5,-466 45.5,-417 137.5,-417 137.5,-466"/>
<text text-anchor="start" x="50.5" y="-453.5" font-family="Helvetica,sans-Serif" font-size="10.00">PreTrainedModel</text>
<text text-anchor="start" x="89.5" y="-438.5" font-family="Helvetica,sans-Serif" font-size="10.00"> </text>
<text text-anchor="start" x="89.5" y="-423.5" font-family="Helvetica,sans-Serif" font-size="10.00"> </text>
<polygon fill="#666666" stroke="#666666" points="45.5,-448.5 45.5,-448.5 137.5,-448.5 137.5,-448.5 45.5,-448.5"/>
<polygon fill="#666666" stroke="#666666" points="45.5,-433.5 45.5,-433.5 137.5,-433.5 137.5,-433.5 45.5,-433.5"/>
<polygon fill="none" stroke="#666666" points="45.5,-417 45.5,-466 137.5,-466 137.5,-417 45.5,-417"/>
</a>
</g>
</g>
<!-- Node3&#45;&gt;Node2 -->
<g id="edge4_Node000002_Node000003" class="edge">
<title>Node3&#45;&gt;Node2</title>
<g id="a_edge4_Node000002_Node000003"><a xlink:title=" ">
<path fill="none" stroke="#63b8ff" d="M91.5,-406.69C91.5,-398.75 91.5,-389.98 91.5,-381.03"/>
<polygon fill="none" stroke="#63b8ff" points="88,-406.94 91.5,-416.94 95,-406.94 88,-406.94"/>
</a>
</g>
</g>
</g>
</svg>
