<?xml version="1.0" encoding="UTF-8" standalone="no"?>
<!DOCTYPE svg PUBLIC "-//W3C//DTD SVG 1.1//EN"
 "http://www.w3.org/Graphics/SVG/1.1/DTD/svg11.dtd">
<!-- Generated by graphviz version 2.43.0 (0)
 -->
<!-- Title: modeling_deepseek.DeepseekV3YarnRotaryEmbedding Pages: 1 -->
<svg width="169pt" height="455pt"
 viewBox="0.00 0.00 169.00 455.00" xmlns="http://www.w3.org/2000/svg" xmlns:xlink="http://www.w3.org/1999/xlink">
<g id="graph0" class="graph" transform="scale(1 1) rotate(0) translate(4 451)">
<title>modeling_deepseek.DeepseekV3YarnRotaryEmbedding</title>
<!-- Node1 -->
<g id="Node000001" class="node">
<title>Node1</title>
<g id="a_Node000001"><a xlink:title=" ">
<polygon fill="#999999" stroke="transparent" points="161,-191 0,-191 0,0 161,0 161,-191"/>
<text text-anchor="start" x="5.5" y="-178.5" font-family="Helvetica,sans-Serif" font-size="10.00">modeling_deepseek.Deepseek</text>
<text text-anchor="start" x="20.5" y="-167.5" font-family="Helvetica,sans-Serif" font-size="10.00">V3YarnRotaryEmbedding</text>
<text text-anchor="start" x="12" y="-152.5" font-family="Helvetica,sans-Serif" font-size="10.00">+</text>
<text text-anchor="start" x="32.5" y="-152.5" font-family="Helvetica,sans-Serif" font-size="10.00">scaling_factor</text>
<text text-anchor="start" x="12" y="-137.5" font-family="Helvetica,sans-Serif" font-size="10.00">+</text>
<text text-anchor="start" x="32.5" y="-137.5" font-family="Helvetica,sans-Serif" font-size="10.00">original_max_position</text>
<text text-anchor="start" x="32.5" y="-126.5" font-family="Helvetica,sans-Serif" font-size="10.00">_embeddings</text>
<text text-anchor="start" x="12" y="-111.5" font-family="Helvetica,sans-Serif" font-size="10.00">+</text>
<text text-anchor="start" x="32.5" y="-111.5" font-family="Helvetica,sans-Serif" font-size="10.00">beta_fast</text>
<text text-anchor="start" x="12" y="-96.5" font-family="Helvetica,sans-Serif" font-size="10.00">+</text>
<text text-anchor="start" x="32.5" y="-96.5" font-family="Helvetica,sans-Serif" font-size="10.00">beta_slow</text>
<text text-anchor="start" x="12" y="-81.5" font-family="Helvetica,sans-Serif" font-size="10.00">+</text>
<text text-anchor="start" x="32.5" y="-81.5" font-family="Helvetica,sans-Serif" font-size="10.00">mscale</text>
<text text-anchor="start" x="12" y="-66.5" font-family="Helvetica,sans-Serif" font-size="10.00">+</text>
<text text-anchor="start" x="32.5" y="-66.5" font-family="Helvetica,sans-Serif" font-size="10.00">mscale_all_dim</text>
<text text-anchor="start" x="12" y="-51.5" font-family="Helvetica,sans-Serif" font-size="10.00">+</text>
<text text-anchor="start" x="32.5" y="-51.5" font-family="Helvetica,sans-Serif" font-size="10.00">max_seq_len_cached</text>
<text text-anchor="start" x="12" y="-36.5" font-family="Helvetica,sans-Serif" font-size="10.00">+</text>
<text text-anchor="start" x="32.5" y="-36.5" font-family="Helvetica,sans-Serif" font-size="10.00">base</text>
<text text-anchor="start" x="12" y="-21.5" font-family="Helvetica,sans-Serif" font-size="10.00">+</text>
<text text-anchor="start" x="32.5" y="-21.5" font-family="Helvetica,sans-Serif" font-size="10.00">__init__()</text>
<text text-anchor="start" x="12" y="-6.5" font-family="Helvetica,sans-Serif" font-size="10.00">#</text>
<text text-anchor="start" x="32.5" y="-6.5" font-family="Helvetica,sans-Serif" font-size="10.00">_set_cos_sin_cache()</text>
<polygon fill="#666666" stroke="#666666" points="0.5,-162.5 0.5,-162.5 161.5,-162.5 161.5,-162.5 0.5,-162.5"/>
<polygon fill="#666666" stroke="#666666" points="0.5,-31.5 0.5,-31.5 30.5,-31.5 30.5,-31.5 0.5,-31.5"/>
<polygon fill="#666666" stroke="#666666" points="30.5,-31.5 30.5,-31.5 161.5,-31.5 161.5,-31.5 30.5,-31.5"/>
<polygon fill="none" stroke="#666666" points="0,0 0,-191 161,-191 161,0 0,0"/>
</a>
</g>
</g>
<!-- Node2 -->
<g id="Node000002" class="node">
<title>Node2</title>
<g id="a_Node000002"><a xlink:href="$classmodeling__deepseek_1_1DeepseekV3RotaryEmbedding.html" xlink:title=" ">
<polygon fill="white" stroke="transparent" points="161,-362 0,-362 0,-227 161,-227 161,-362"/>
<text text-anchor="start" x="5.5" y="-349.5" font-family="Helvetica,sans-Serif" font-size="10.00">modeling_deepseek.Deepseek</text>
<text text-anchor="start" x="31" y="-338.5" font-family="Helvetica,sans-Serif" font-size="10.00">V3RotaryEmbedding</text>
<text text-anchor="start" x="6.5" y="-323.5" font-family="Helvetica,sans-Serif" font-size="10.00">+</text>
<text text-anchor="start" x="21.5" y="-323.5" font-family="Helvetica,sans-Serif" font-size="10.00">dim</text>
<text text-anchor="start" x="6.5" y="-308.5" font-family="Helvetica,sans-Serif" font-size="10.00">+</text>
<text text-anchor="start" x="21.5" y="-308.5" font-family="Helvetica,sans-Serif" font-size="10.00">max_position_embeddings</text>
<text text-anchor="start" x="6.5" y="-293.5" font-family="Helvetica,sans-Serif" font-size="10.00">+</text>
<text text-anchor="start" x="21.5" y="-293.5" font-family="Helvetica,sans-Serif" font-size="10.00">base</text>
<text text-anchor="start" x="6.5" y="-278.5" font-family="Helvetica,sans-Serif" font-size="10.00">+</text>
<text text-anchor="start" x="21.5" y="-278.5" font-family="Helvetica,sans-Serif" font-size="10.00">max_seq_len_cached</text>
<text text-anchor="start" x="6.5" y="-263.5" font-family="Helvetica,sans-Serif" font-size="10.00">+</text>
<text text-anchor="start" x="21.5" y="-263.5" font-family="Helvetica,sans-Serif" font-size="10.00">__init__()</text>
<text text-anchor="start" x="6.5" y="-248.5" font-family="Helvetica,sans-Serif" font-size="10.00">+</text>
<text text-anchor="start" x="21.5" y="-248.5" font-family="Helvetica,sans-Serif" font-size="10.00">forward()</text>
<text text-anchor="start" x="6.5" y="-233.5" font-family="Helvetica,sans-Serif" font-size="10.00">#</text>
<text text-anchor="start" x="21.5" y="-233.5" font-family="Helvetica,sans-Serif" font-size="10.00">_set_cos_sin_cache()</text>
<polygon fill="#666666" stroke="#666666" points="0.5,-333.5 0.5,-333.5 161.5,-333.5 161.5,-333.5 0.5,-333.5"/>
<polygon fill="#666666" stroke="#666666" points="0.5,-273.5 0.5,-273.5 19.5,-273.5 19.5,-273.5 0.5,-273.5"/>
<polygon fill="#666666" stroke="#666666" points="19.5,-273.5 19.5,-273.5 161.5,-273.5 161.5,-273.5 19.5,-273.5"/>
<polygon fill="none" stroke="#666666" points="0,-227 0,-362 161,-362 161,-227 0,-227"/>
</a>
</g>
</g>
<!-- Node2&#45;&gt;Node1 -->
<g id="edge3_Node000001_Node000002" class="edge">
<title>Node2&#45;&gt;Node1</title>
<g id="a_edge3_Node000001_Node000002"><a xlink:title=" ">
<path fill="none" stroke="#63b8ff" d="M80.5,-216.69C80.5,-208.29 80.5,-199.67 80.5,-191.1"/>
<polygon fill="none" stroke="#63b8ff" points="77,-216.8 80.5,-226.8 84,-216.8 77,-216.8"/>
</a>
</g>
</g>
<!-- Node3 -->
<g id="Node000003" class="node">
<title>Node3</title>
<g id="a_Node000003"><a xlink:title=" ">
<polygon fill="white" stroke="transparent" points="111.5,-447 49.5,-447 49.5,-398 111.5,-398 111.5,-447"/>
<text text-anchor="start" x="54.5" y="-434.5" font-family="Helvetica,sans-Serif" font-size="10.00">nn.Module</text>
<text text-anchor="start" x="78.5" y="-419.5" font-family="Helvetica,sans-Serif" font-size="10.00"> </text>
<text text-anchor="start" x="78.5" y="-404.5" font-family="Helvetica,sans-Serif" font-size="10.00"> </text>
<polygon fill="#666666" stroke="#666666" points="49.5,-429.5 49.5,-429.5 111.5,-429.5 111.5,-429.5 49.5,-429.5"/>
<polygon fill="#666666" stroke="#666666" points="49.5,-414.5 49.5,-414.5 111.5,-414.5 111.5,-414.5 49.5,-414.5"/>
<polygon fill="none" stroke="#666666" points="49.5,-398 49.5,-447 111.5,-447 111.5,-398 49.5,-398"/>
</a>
</g>
</g>
<!-- Node3&#45;&gt;Node2 -->
<g id="edge4_Node000002_Node000003" class="edge">
<title>Node3&#45;&gt;Node2</title>
<g id="a_edge4_Node000002_Node000003"><a xlink:title=" ">
<path fill="none" stroke="#63b8ff" d="M80.5,-387.56C80.5,-379.65 80.5,-370.96 80.5,-362.17"/>
<polygon fill="none" stroke="#63b8ff" points="77,-387.8 80.5,-397.8 84,-387.8 77,-387.8"/>
</a>
</g>
</g>
</g>
</svg>
