<?xml version="1.0" encoding="UTF-8" standalone="no"?>
<!DOCTYPE svg PUBLIC "-//W3C//DTD SVG 1.1//EN"
 "http://www.w3.org/Graphics/SVG/1.1/DTD/svg11.dtd">
<!-- Generated by graphviz version 2.43.0 (0)
 -->
<!-- Title: modeling_deepseek.DeepseekV3PreTrainedModel Pages: 1 -->
<svg width="527pt" height="530pt"
 viewBox="0.00 0.00 527.00 530.00" xmlns="http://www.w3.org/2000/svg" xmlns:xlink="http://www.w3.org/1999/xlink">
<g id="graph0" class="graph" transform="scale(1 1) rotate(0) translate(4 526)">
<title>modeling_deepseek.DeepseekV3PreTrainedModel</title>
<!-- Node1 -->
<g id="Node000001" class="node">
<title>Node1</title>
<g id="a_Node000001"><a xlink:title=" ">
<polygon fill="#999999" stroke="transparent" points="351,-437 168,-437 168,-287 351,-287 351,-437"/>
<text text-anchor="start" x="184.5" y="-425" font-family="Helvetica,sans-Serif" font-size="10.00">modeling_deepseek.Deepseek</text>
<text text-anchor="start" x="213" y="-414" font-family="Helvetica,sans-Serif" font-size="10.00">V3PreTrainedModel</text>
<text text-anchor="start" x="172.5" y="-399" font-family="Helvetica,sans-Serif" font-size="10.00">+</text>
<text text-anchor="start" x="185.5" y="-399" font-family="Helvetica,sans-Serif" font-size="10.00">config_class</text>
<text text-anchor="start" x="172.5" y="-384" font-family="Helvetica,sans-Serif" font-size="10.00">+</text>
<text text-anchor="start" x="185.5" y="-384" font-family="Helvetica,sans-Serif" font-size="10.00">base_model_prefix</text>
<text text-anchor="start" x="172.5" y="-369" font-family="Helvetica,sans-Serif" font-size="10.00">+</text>
<text text-anchor="start" x="185.5" y="-369" font-family="Helvetica,sans-Serif" font-size="10.00">supports_gradient_checkpointing</text>
<text text-anchor="start" x="172.5" y="-354" font-family="Helvetica,sans-Serif" font-size="10.00">#</text>
<text text-anchor="start" x="185.5" y="-354" font-family="Helvetica,sans-Serif" font-size="10.00">_no_split_modules</text>
<text text-anchor="start" x="172.5" y="-339" font-family="Helvetica,sans-Serif" font-size="10.00">#</text>
<text text-anchor="start" x="185.5" y="-339" font-family="Helvetica,sans-Serif" font-size="10.00">_skip_keys_device_placement</text>
<text text-anchor="start" x="172.5" y="-324" font-family="Helvetica,sans-Serif" font-size="10.00">#</text>
<text text-anchor="start" x="185.5" y="-324" font-family="Helvetica,sans-Serif" font-size="10.00">_supports_flash_attn_2</text>
<text text-anchor="start" x="172.5" y="-309" font-family="Helvetica,sans-Serif" font-size="10.00">#</text>
<text text-anchor="start" x="185.5" y="-309" font-family="Helvetica,sans-Serif" font-size="10.00">_supports_cache_class</text>
<text text-anchor="start" x="172.5" y="-294" font-family="Helvetica,sans-Serif" font-size="10.00">#</text>
<text text-anchor="start" x="185.5" y="-294" font-family="Helvetica,sans-Serif" font-size="10.00">_init_weights()</text>
<polygon fill="#666666" stroke="#666666" points="168.5,-409 168.5,-409 351.5,-409 351.5,-409 168.5,-409"/>
<polygon fill="#666666" stroke="#666666" points="168.5,-304 168.5,-304 183.5,-304 183.5,-304 168.5,-304"/>
<polygon fill="#666666" stroke="#666666" points="183.5,-304 183.5,-304 351.5,-304 351.5,-304 183.5,-304"/>
<polygon fill="none" stroke="#666666" points="168,-287 168,-437 351,-437 351,-287 168,-287"/>
</a>
</g>
</g>
<!-- Node3 -->
<g id="Node000003" class="node">
<title>Node3</title>
<g id="a_Node000003"><a xlink:href="$classmodeling__deepseek_1_1DeepseekV3ForCausalLM.html" xlink:title=" ">
<polygon fill="white" stroke="transparent" points="161,-251 0,-251 0,0 161,0 161,-251"/>
<text text-anchor="start" x="5.5" y="-238.5" font-family="Helvetica,sans-Serif" font-size="10.00">modeling_deepseek.Deepseek</text>
<text text-anchor="start" x="43" y="-227.5" font-family="Helvetica,sans-Serif" font-size="10.00">V3ForCausalLM</text>
<text text-anchor="start" x="8" y="-212.5" font-family="Helvetica,sans-Serif" font-size="10.00">+</text>
<text text-anchor="start" x="24.5" y="-212.5" font-family="Helvetica,sans-Serif" font-size="10.00">model</text>
<text text-anchor="start" x="8" y="-197.5" font-family="Helvetica,sans-Serif" font-size="10.00">+</text>
<text text-anchor="start" x="24.5" y="-197.5" font-family="Helvetica,sans-Serif" font-size="10.00">vocab_size</text>
<text text-anchor="start" x="8" y="-182.5" font-family="Helvetica,sans-Serif" font-size="10.00">+</text>
<text text-anchor="start" x="24.5" y="-182.5" font-family="Helvetica,sans-Serif" font-size="10.00">lm_head</text>
<text text-anchor="start" x="8" y="-167.5" font-family="Helvetica,sans-Serif" font-size="10.00">#</text>
<text text-anchor="start" x="24.5" y="-167.5" font-family="Helvetica,sans-Serif" font-size="10.00">_tied_weights_keys</text>
<text text-anchor="start" x="8" y="-152.5" font-family="Helvetica,sans-Serif" font-size="10.00">+</text>
<text text-anchor="start" x="24.5" y="-152.5" font-family="Helvetica,sans-Serif" font-size="10.00">__init__()</text>
<text text-anchor="start" x="8" y="-137.5" font-family="Helvetica,sans-Serif" font-size="10.00">+</text>
<text text-anchor="start" x="24.5" y="-137.5" font-family="Helvetica,sans-Serif" font-size="10.00">get_input_embeddings()</text>
<text text-anchor="start" x="8" y="-122.5" font-family="Helvetica,sans-Serif" font-size="10.00">+</text>
<text text-anchor="start" x="24.5" y="-122.5" font-family="Helvetica,sans-Serif" font-size="10.00">set_input_embeddings()</text>
<text text-anchor="start" x="8" y="-107.5" font-family="Helvetica,sans-Serif" font-size="10.00">+</text>
<text text-anchor="start" x="24.5" y="-107.5" font-family="Helvetica,sans-Serif" font-size="10.00">get_output_embeddings()</text>
<text text-anchor="start" x="8" y="-92.5" font-family="Helvetica,sans-Serif" font-size="10.00">+</text>
<text text-anchor="start" x="24.5" y="-92.5" font-family="Helvetica,sans-Serif" font-size="10.00">set_output_embeddings()</text>
<text text-anchor="start" x="8" y="-77.5" font-family="Helvetica,sans-Serif" font-size="10.00">+</text>
<text text-anchor="start" x="24.5" y="-77.5" font-family="Helvetica,sans-Serif" font-size="10.00">set_decoder()</text>
<text text-anchor="start" x="8" y="-62.5" font-family="Helvetica,sans-Serif" font-size="10.00">+</text>
<text text-anchor="start" x="24.5" y="-62.5" font-family="Helvetica,sans-Serif" font-size="10.00">get_decoder()</text>
<text text-anchor="start" x="8" y="-47.5" font-family="Helvetica,sans-Serif" font-size="10.00">+</text>
<text text-anchor="start" x="24.5" y="-47.5" font-family="Helvetica,sans-Serif" font-size="10.00">forward()</text>
<text text-anchor="start" x="8" y="-32.5" font-family="Helvetica,sans-Serif" font-size="10.00">+</text>
<text text-anchor="start" x="24.5" y="-32.5" font-family="Helvetica,sans-Serif" font-size="10.00">prepare_inputs_for</text>
<text text-anchor="start" x="24.5" y="-21.5" font-family="Helvetica,sans-Serif" font-size="10.00">_generation()</text>
<text text-anchor="start" x="8" y="-6.5" font-family="Helvetica,sans-Serif" font-size="10.00">#</text>
<text text-anchor="start" x="24.5" y="-6.5" font-family="Helvetica,sans-Serif" font-size="10.00">_reorder_cache()</text>
<polygon fill="#666666" stroke="#666666" points="0.5,-222.5 0.5,-222.5 161.5,-222.5 161.5,-222.5 0.5,-222.5"/>
<polygon fill="#666666" stroke="#666666" points="0.5,-162.5 0.5,-162.5 22.5,-162.5 22.5,-162.5 0.5,-162.5"/>
<polygon fill="#666666" stroke="#666666" points="22.5,-162.5 22.5,-162.5 161.5,-162.5 161.5,-162.5 22.5,-162.5"/>
<polygon fill="none" stroke="#666666" points="0,0 0,-251 161,-251 161,0 0,0"/>
</a>
</g>
</g>
<!-- Node1&#45;&gt;Node3 -->
<g id="edge6_Node000001_Node000003" class="edge">
<title>Node1&#45;&gt;Node3</title>
<g id="a_edge6_Node000001_Node000003"><a xlink:title=" ">
<path fill="none" stroke="#63b8ff" d="M191.52,-279.1C184,-269.7 176.53,-260.19 169.5,-251 166.76,-247.41 163.98,-243.75 161.2,-240.05"/>
<polygon fill="none" stroke="#63b8ff" points="188.85,-281.36 197.84,-286.97 194.31,-276.98 188.85,-281.36"/>
</a>
</g>
</g>
<!-- Node4 -->
<g id="Node000004" class="node">
<title>Node4</title>
<g id="a_Node000004"><a xlink:href="$classmodeling__deepseek_1_1DeepseekV3ForSequenceClassification.html" xlink:title=" ">
<polygon fill="white" stroke="transparent" points="340,-193 179,-193 179,-58 340,-58 340,-193"/>
<text text-anchor="start" x="184.5" y="-180.5" font-family="Helvetica,sans-Serif" font-size="10.00">modeling_deepseek.Deepseek</text>
<text text-anchor="start" x="189.5" y="-169.5" font-family="Helvetica,sans-Serif" font-size="10.00">V3ForSequenceClassification</text>
<text text-anchor="start" x="188.5" y="-154.5" font-family="Helvetica,sans-Serif" font-size="10.00">+</text>
<text text-anchor="start" x="206.5" y="-154.5" font-family="Helvetica,sans-Serif" font-size="10.00">num_labels</text>
<text text-anchor="start" x="188.5" y="-139.5" font-family="Helvetica,sans-Serif" font-size="10.00">+</text>
<text text-anchor="start" x="206.5" y="-139.5" font-family="Helvetica,sans-Serif" font-size="10.00">model</text>
<text text-anchor="start" x="188.5" y="-124.5" font-family="Helvetica,sans-Serif" font-size="10.00">+</text>
<text text-anchor="start" x="206.5" y="-124.5" font-family="Helvetica,sans-Serif" font-size="10.00">score</text>
<text text-anchor="start" x="188.5" y="-109.5" font-family="Helvetica,sans-Serif" font-size="10.00">+</text>
<text text-anchor="start" x="206.5" y="-109.5" font-family="Helvetica,sans-Serif" font-size="10.00">__init__()</text>
<text text-anchor="start" x="188.5" y="-94.5" font-family="Helvetica,sans-Serif" font-size="10.00">+</text>
<text text-anchor="start" x="206.5" y="-94.5" font-family="Helvetica,sans-Serif" font-size="10.00">get_input_embeddings()</text>
<text text-anchor="start" x="188.5" y="-79.5" font-family="Helvetica,sans-Serif" font-size="10.00">+</text>
<text text-anchor="start" x="206.5" y="-79.5" font-family="Helvetica,sans-Serif" font-size="10.00">set_input_embeddings()</text>
<text text-anchor="start" x="188.5" y="-64.5" font-family="Helvetica,sans-Serif" font-size="10.00">+</text>
<text text-anchor="start" x="206.5" y="-64.5" font-family="Helvetica,sans-Serif" font-size="10.00">forward()</text>
<polygon fill="#666666" stroke="#666666" points="179.5,-164.5 179.5,-164.5 340.5,-164.5 340.5,-164.5 179.5,-164.5"/>
<polygon fill="#666666" stroke="#666666" points="179.5,-119.5 179.5,-119.5 204.5,-119.5 204.5,-119.5 179.5,-119.5"/>
<polygon fill="#666666" stroke="#666666" points="204.5,-119.5 204.5,-119.5 340.5,-119.5 340.5,-119.5 204.5,-119.5"/>
<polygon fill="none" stroke="#666666" points="179,-58 179,-193 340,-193 340,-58 179,-58"/>
</a>
</g>
</g>
<!-- Node1&#45;&gt;Node4 -->
<g id="edge7_Node000001_Node000004" class="edge">
<title>Node1&#45;&gt;Node4</title>
<g id="a_edge7_Node000001_Node000004"><a xlink:title=" ">
<path fill="none" stroke="#63b8ff" d="M259.5,-276.8C259.5,-249.27 259.5,-219.11 259.5,-193.07"/>
<polygon fill="none" stroke="#63b8ff" points="256,-276.8 259.5,-286.8 263,-276.8 256,-276.8"/>
</a>
</g>
</g>
<!-- Node5 -->
<g id="Node000005" class="node">
<title>Node5</title>
<g id="a_Node000005"><a xlink:href="$classmodeling__deepseek_1_1DeepseekV3Model.html" xlink:title=" ">
<polygon fill="white" stroke="transparent" points="519,-223 358,-223 358,-28 519,-28 519,-223"/>
<text text-anchor="start" x="363.5" y="-210.5" font-family="Helvetica,sans-Serif" font-size="10.00">modeling_deepseek.Deepseek</text>
<text text-anchor="start" x="417.5" y="-199.5" font-family="Helvetica,sans-Serif" font-size="10.00">V3Model</text>
<text text-anchor="start" x="367.5" y="-184.5" font-family="Helvetica,sans-Serif" font-size="10.00">+</text>
<text text-anchor="start" x="385.5" y="-184.5" font-family="Helvetica,sans-Serif" font-size="10.00">padding_idx</text>
<text text-anchor="start" x="367.5" y="-169.5" font-family="Helvetica,sans-Serif" font-size="10.00">+</text>
<text text-anchor="start" x="385.5" y="-169.5" font-family="Helvetica,sans-Serif" font-size="10.00">vocab_size</text>
<text text-anchor="start" x="367.5" y="-154.5" font-family="Helvetica,sans-Serif" font-size="10.00">+</text>
<text text-anchor="start" x="385.5" y="-154.5" font-family="Helvetica,sans-Serif" font-size="10.00">embed_tokens</text>
<text text-anchor="start" x="367.5" y="-139.5" font-family="Helvetica,sans-Serif" font-size="10.00">+</text>
<text text-anchor="start" x="385.5" y="-139.5" font-family="Helvetica,sans-Serif" font-size="10.00">layers</text>
<text text-anchor="start" x="367.5" y="-124.5" font-family="Helvetica,sans-Serif" font-size="10.00">+</text>
<text text-anchor="start" x="385.5" y="-124.5" font-family="Helvetica,sans-Serif" font-size="10.00">norm</text>
<text text-anchor="start" x="367.5" y="-109.5" font-family="Helvetica,sans-Serif" font-size="10.00">+</text>
<text text-anchor="start" x="385.5" y="-109.5" font-family="Helvetica,sans-Serif" font-size="10.00">gradient_checkpointing</text>
<text text-anchor="start" x="367.5" y="-94.5" font-family="Helvetica,sans-Serif" font-size="10.00">#</text>
<text text-anchor="start" x="385.5" y="-94.5" font-family="Helvetica,sans-Serif" font-size="10.00">_use_flash_attention_2</text>
<text text-anchor="start" x="367.5" y="-79.5" font-family="Helvetica,sans-Serif" font-size="10.00">+</text>
<text text-anchor="start" x="385.5" y="-79.5" font-family="Helvetica,sans-Serif" font-size="10.00">__init__()</text>
<text text-anchor="start" x="367.5" y="-64.5" font-family="Helvetica,sans-Serif" font-size="10.00">+</text>
<text text-anchor="start" x="385.5" y="-64.5" font-family="Helvetica,sans-Serif" font-size="10.00">get_input_embeddings()</text>
<text text-anchor="start" x="367.5" y="-49.5" font-family="Helvetica,sans-Serif" font-size="10.00">+</text>
<text text-anchor="start" x="385.5" y="-49.5" font-family="Helvetica,sans-Serif" font-size="10.00">set_input_embeddings()</text>
<text text-anchor="start" x="367.5" y="-34.5" font-family="Helvetica,sans-Serif" font-size="10.00">+</text>
<text text-anchor="start" x="385.5" y="-34.5" font-family="Helvetica,sans-Serif" font-size="10.00">forward()</text>
<polygon fill="#666666" stroke="#666666" points="358.5,-194.5 358.5,-194.5 519.5,-194.5 519.5,-194.5 358.5,-194.5"/>
<polygon fill="#666666" stroke="#666666" points="358.5,-89.5 358.5,-89.5 383.5,-89.5 383.5,-89.5 358.5,-89.5"/>
<polygon fill="#666666" stroke="#666666" points="383.5,-89.5 383.5,-89.5 519.5,-89.5 519.5,-89.5 383.5,-89.5"/>
<polygon fill="none" stroke="#666666" points="358,-28 358,-223 519,-223 519,-28 358,-28"/>
</a>
</g>
</g>
<!-- Node1&#45;&gt;Node5 -->
<g id="edge8_Node000001_Node000005" class="edge">
<title>Node1&#45;&gt;Node5</title>
<g id="a_edge8_Node000001_Node000005"><a xlink:title=" ">
<path fill="none" stroke="#63b8ff" d="M327.48,-279.1C335,-269.7 342.47,-260.19 349.5,-251 356.36,-242.03 363.4,-232.61 370.36,-223.13"/>
<polygon fill="none" stroke="#63b8ff" points="324.69,-276.98 321.16,-286.97 330.15,-281.36 324.69,-276.98"/>
</a>
</g>
</g>
<!-- Node2 -->
<g id="Node000002" class="node">
<title>Node2</title>
<g id="a_Node000002"><a xlink:title=" ">
<polygon fill="white" stroke="transparent" points="305.5,-522 213.5,-522 213.5,-473 305.5,-473 305.5,-522"/>
<text text-anchor="start" x="218.5" y="-509.5" font-family="Helvetica,sans-Serif" font-size="10.00">PreTrainedModel</text>
<text text-anchor="start" x="257.5" y="-494.5" font-family="Helvetica,sans-Serif" font-size="10.00"> </text>
<text text-anchor="start" x="257.5" y="-479.5" font-family="Helvetica,sans-Serif" font-size="10.00"> </text>
<polygon fill="#666666" stroke="#666666" points="213.5,-504.5 213.5,-504.5 305.5,-504.5 305.5,-504.5 213.5,-504.5"/>
<polygon fill="#666666" stroke="#666666" points="213.5,-489.5 213.5,-489.5 305.5,-489.5 305.5,-489.5 213.5,-489.5"/>
<polygon fill="none" stroke="#666666" points="213.5,-473 213.5,-522 305.5,-522 305.5,-473 213.5,-473"/>
</a>
</g>
</g>
<!-- Node2&#45;&gt;Node1 -->
<g id="edge5_Node000001_Node000002" class="edge">
<title>Node2&#45;&gt;Node1</title>
<g id="a_edge5_Node000001_Node000002"><a xlink:title=" ">
<path fill="none" stroke="#63b8ff" d="M259.5,-462.69C259.5,-454.75 259.5,-445.98 259.5,-437.03"/>
<polygon fill="none" stroke="#63b8ff" points="256,-462.94 259.5,-472.94 263,-462.94 256,-462.94"/>
</a>
</g>
</g>
</g>
</svg>
