<?xml version="1.0" encoding="UTF-8" standalone="no"?>
<!DOCTYPE svg PUBLIC "-//W3C//DTD SVG 1.1//EN"
 "http://www.w3.org/Graphics/SVG/1.1/DTD/svg11.dtd">
<!-- Generated by graphviz version 2.43.0 (0)
 -->
<!-- Title: modeling_deepseek.DeepseekV3ForSequenceClassification Pages: 1 -->
<!--zoomable 380 -->

<svg id="main" version="1.1" xmlns="http://www.w3.org/2000/svg" xmlns:xlink="http://www.w3.org/1999/xlink" xml:space="preserve" onload="init(evt)">
<style type="text/css"><![CDATA[
.node, .edge {opacity: 0.7;}
.node.selected, .edge.selected {opacity: 1;}
.edge:hover path { stroke: red; }
.edge:hover polygon { stroke: red; fill: red; }
]]></style>

<defs>
  <circle id="rim" cx="0" cy="0" r="7"/>
  <circle id="rim2" cx="0" cy="0" r="3.5"/>
  <g id="zoomPlus">
    <use xlink:href="#rim" fill="#404040"><set attributeName="fill" to="#808080" begin="zoomplus.mouseover" end="zoomplus.mouseout"/></use>
    <path d="M-4,0h8M0,-4v8" fill="none" stroke="white" stroke-width="1.5" pointer-events="none"/>
  </g>
  <g id="zoomMin">
    <use xlink:href="#rim" fill="#404040"><set attributeName="fill" to="#808080" begin="zoomminus.mouseover" end="zoomminus.mouseout"/></use>
    <path d="M-4,0h8" fill="none" stroke="white" stroke-width="1.5" pointer-events="none"/>
  </g>
  <g id="arrowUp" transform="translate(30 24)">
    <use xlink:href="#rim"/>
    <path pointer-events="none" fill="none" stroke="white" stroke-width="1.5" d="M0,-3.0v7 M-2.5,-0.5L0,-3.0L2.5,-0.5"/>
  </g>
  <g id="arrowRight" transform="rotate(90) translate(36 -43)">
    <use xlink:href="#rim"/>
    <path pointer-events="none" fill="none" stroke="white" stroke-width="1.5" d="M0,-3.0v7 M-2.5,-0.5L0,-3.0L2.5,-0.5"/>
  </g>
  <g id="arrowDown" transform="rotate(180) translate(-30 -48)">
    <use xlink:href="#rim"/>
    <path pointer-events="none" fill="none" stroke="white" stroke-width="1.5" d="M0,-3.0v7 M-2.5,-0.5L0,-3.0L2.5,-0.5"/>
  </g>
  <g id="arrowLeft" transform="rotate(270) translate(-36 17)">
    <use xlink:href="#rim"/>
    <path pointer-events="none" fill="none" stroke="white" stroke-width="1.5" d="M0,-3.0v7 M-2.5,-0.5L0,-3.0L2.5,-0.5"/>
  </g>
  <g id="resetDef">
    <use xlink:href="#rim2" fill="#404040"><set attributeName="fill" to="#808080" begin="reset.mouseover" end="reset.mouseout"/></use>
  </g>
</defs>
<script type="application/ecmascript">
var viewWidth = 503;
var viewHeight = 380;
var sectionId = 'dynsection-1';
</script>
<script type="application/ecmascript" xlink:href="svg.min.js"/>
<svg id="graph" class="graph">
<g id="viewport">
<title>modeling_deepseek.DeepseekV3ForSequenceClassification</title>
<!-- Node1 -->
<g id="Node000001" class="node">
<title>Node1</title>
<g id="a_Node000001"><a xlink:title=" ">
<polygon fill="#999999" stroke="transparent" points="265.5,-135 104.5,-135 104.5,0 265.5,0 265.5,-135"/>
<text text-anchor="start" x="110" y="-122.5" font-family="Helvetica,sans-Serif" font-size="10.00">modeling_deepseek.Deepseek</text>
<text text-anchor="start" x="115" y="-111.5" font-family="Helvetica,sans-Serif" font-size="10.00">V3ForSequenceClassification</text>
<text text-anchor="start" x="114" y="-96.5" font-family="Helvetica,sans-Serif" font-size="10.00">+</text>
<text text-anchor="start" x="132" y="-96.5" font-family="Helvetica,sans-Serif" font-size="10.00">num_labels</text>
<text text-anchor="start" x="114" y="-81.5" font-family="Helvetica,sans-Serif" font-size="10.00">+</text>
<text text-anchor="start" x="132" y="-81.5" font-family="Helvetica,sans-Serif" font-size="10.00">model</text>
<text text-anchor="start" x="114" y="-66.5" font-family="Helvetica,sans-Serif" font-size="10.00">+</text>
<text text-anchor="start" x="132" y="-66.5" font-family="Helvetica,sans-Serif" font-size="10.00">score</text>
<text text-anchor="start" x="114" y="-51.5" font-family="Helvetica,sans-Serif" font-size="10.00">+</text>
<text text-anchor="start" x="132" y="-51.5" font-family="Helvetica,sans-Serif" font-size="10.00">__init__()</text>
<text text-anchor="start" x="114" y="-36.5" font-family="Helvetica,sans-Serif" font-size="10.00">+</text>
<text text-anchor="start" x="132" y="-36.5" font-family="Helvetica,sans-Serif" font-size="10.00">get_input_embeddings()</text>
<text text-anchor="start" x="114" y="-21.5" font-family="Helvetica,sans-Serif" font-size="10.00">+</text>
<text text-anchor="start" x="132" y="-21.5" font-family="Helvetica,sans-Serif" font-size="10.00">set_input_embeddings()</text>
<text text-anchor="start" x="114" y="-6.5" font-family="Helvetica,sans-Serif" font-size="10.00">+</text>
<text text-anchor="start" x="132" y="-6.5" font-family="Helvetica,sans-Serif" font-size="10.00">forward()</text>
<polygon fill="#666666" stroke="#666666" points="105,-106.5 105,-106.5 266,-106.5 266,-106.5 105,-106.5"/>
<polygon fill="#666666" stroke="#666666" points="105,-61.5 105,-61.5 130,-61.5 130,-61.5 105,-61.5"/>
<polygon fill="#666666" stroke="#666666" points="130,-61.5 130,-61.5 266,-61.5 266,-61.5 130,-61.5"/>
<polygon fill="none" stroke="#666666" points="104.5,0 104.5,-135 265.5,-135 265.5,0 104.5,0"/>
</a>
</g>
</g>
<!-- Node2 -->
<g id="Node000002" class="node">
<title>Node2</title>
<g id="a_Node000002"><a xlink:href="classmodeling__deepseek_1_1DeepseekV3PreTrainedModel.html" target="_top" xlink:title=" ">
<polygon fill="white" stroke="transparent" points="265.5,-232 104.5,-232 104.5,-172 265.5,-172 265.5,-232"/>
<text text-anchor="start" x="110" y="-220" font-family="Helvetica,sans-Serif" font-size="10.00">modeling_deepseek.Deepseek</text>
<text text-anchor="start" x="138.5" y="-209" font-family="Helvetica,sans-Serif" font-size="10.00">V3PreTrainedModel</text>
<text text-anchor="start" x="125.5" y="-194" font-family="Helvetica,sans-Serif" font-size="10.00">+</text>
<text text-anchor="start" x="155" y="-194" font-family="Helvetica,sans-Serif" font-size="10.00">config_class</text>
<text text-anchor="start" x="125.5" y="-179" font-family="Helvetica,sans-Serif" font-size="10.00">#</text>
<text text-anchor="start" x="155" y="-179" font-family="Helvetica,sans-Serif" font-size="10.00">_init_weights()</text>
<polygon fill="#666666" stroke="#666666" points="105,-204 105,-204 266,-204 266,-204 105,-204"/>
<polygon fill="#666666" stroke="#666666" points="105,-189 105,-189 153,-189 153,-189 105,-189"/>
<polygon fill="#666666" stroke="#666666" points="153,-189 153,-189 266,-189 266,-189 153,-189"/>
<polygon fill="none" stroke="#666666" points="104.5,-172 104.5,-232 265.5,-232 265.5,-172 104.5,-172"/>
</a>
</g>
</g>
<!-- Node2&#45;&gt;Node1 -->
<g id="edge1_Node000001_Node000002" class="edge">
<title>Node2&#45;&gt;Node1</title>
<g id="a_edge1_Node000001_Node000002"><a xlink:title=" ">
<path fill="none" stroke="#63b8ff" d="M185,-161.75C185,-153.38 185,-144.32 185,-135.25"/>
<polygon fill="none" stroke="#63b8ff" points="181.5,-161.92 185,-171.92 188.5,-161.92 181.5,-161.92"/>
</a>
</g>
</g>
<!-- Node3 -->
<g id="Node000003" class="node">
<title>Node3</title>
<g id="a_Node000003"><a xlink:title=" ">
<polygon fill="white" stroke="transparent" points="92,-372 0,-372 0,-323 92,-323 92,-372"/>
<text text-anchor="start" x="5" y="-359.5" font-family="Helvetica,sans-Serif" font-size="10.00">PreTrainedModel</text>
<text text-anchor="start" x="44" y="-344.5" font-family="Helvetica,sans-Serif" font-size="10.00"> </text>
<text text-anchor="start" x="44" y="-329.5" font-family="Helvetica,sans-Serif" font-size="10.00"> </text>
<polygon fill="#666666" stroke="#666666" points="0,-354.5 0,-354.5 92,-354.5 92,-354.5 0,-354.5"/>
<polygon fill="#666666" stroke="#666666" points="0,-339.5 0,-339.5 92,-339.5 92,-339.5 0,-339.5"/>
<polygon fill="none" stroke="#666666" points="0,-323 0,-372 92,-372 92,-323 0,-323"/>
</a>
</g>
</g>
<!-- Node3&#45;&gt;Node2 -->
<g id="edge2_Node000002_Node000003" class="edge">
<title>Node3&#45;&gt;Node2</title>
<g id="a_edge2_Node000002_Node000003"><a xlink:title=" ">
<path fill="none" stroke="#63b8ff" d="M63.35,-313.91C75.04,-293.93 91.8,-268.69 111,-250 117.54,-243.63 125.08,-237.66 132.8,-232.26"/>
<polygon fill="none" stroke="#63b8ff" points="60.26,-312.26 58.34,-322.68 66.34,-315.73 60.26,-312.26"/>
</a>
</g>
</g>
<!-- Node4 -->
<g id="Node000004" class="node">
<title>Node4</title>
<g id="a_Node000004"><a xlink:title=" ">
<polygon fill="white" stroke="transparent" points="133.5,-372 110.5,-372 110.5,-323 133.5,-323 133.5,-372"/>
<text text-anchor="start" x="116" y="-359.5" font-family="Helvetica,sans-Serif" font-size="10.00">str</text>
<text text-anchor="start" x="120.5" y="-344.5" font-family="Helvetica,sans-Serif" font-size="10.00"> </text>
<text text-anchor="start" x="120.5" y="-329.5" font-family="Helvetica,sans-Serif" font-size="10.00"> </text>
<polygon fill="#666666" stroke="#666666" points="111,-354.5 111,-354.5 134,-354.5 134,-354.5 111,-354.5"/>
<polygon fill="#666666" stroke="#666666" points="111,-339.5 111,-339.5 134,-339.5 134,-339.5 111,-339.5"/>
<polygon fill="none" stroke="#666666" points="110.5,-323 110.5,-372 133.5,-372 133.5,-323 110.5,-323"/>
</a>
</g>
</g>
<!-- Node4&#45;&gt;Node2 -->
<g id="edge3_Node000002_Node000004" class="edge">
<title>Node4&#45;&gt;Node2</title>
<g id="a_edge3_Node000002_Node000004"><a xlink:title=" ">
<path fill="none" stroke="#63b8ff" d="M116.69,-322.92C113.35,-302.5 111.55,-272.75 123,-250 124.57,-246.89 126.44,-243.93 128.56,-241.12"/>
<polygon fill="none" stroke="#63b8ff" points="128.56,-241.12 129.56,-233.98 136.53,-232.15 135.53,-239.29 128.56,-241.12"/>
</a>
</g>
<text text-anchor="start" x="123" y="-286" font-family="Helvetica,sans-Serif" font-size="10.00" fill="grey"> #_skip_keys_device</text>
<text text-anchor="middle" x="174.5" y="-275" font-family="Helvetica,sans-Serif" font-size="10.00" fill="grey">_placement</text>
<text text-anchor="middle" x="174.5" y="-264" font-family="Helvetica,sans-Serif" font-size="10.00" fill="grey">+base_model_prefix</text>
</g>
<!-- Node5 -->
<g id="Node000005" class="node">
<title>Node5</title>
<g id="a_Node000005"><a xlink:title=" ">
<polygon fill="white" stroke="transparent" points="264,-372 232,-372 232,-323 264,-323 264,-372"/>
<text text-anchor="start" x="237" y="-359.5" font-family="Helvetica,sans-Serif" font-size="10.00">bool</text>
<text text-anchor="start" x="246" y="-344.5" font-family="Helvetica,sans-Serif" font-size="10.00"> </text>
<text text-anchor="start" x="246" y="-329.5" font-family="Helvetica,sans-Serif" font-size="10.00"> </text>
<polygon fill="#666666" stroke="#666666" points="232,-354.5 232,-354.5 264,-354.5 264,-354.5 232,-354.5"/>
<polygon fill="#666666" stroke="#666666" points="232,-339.5 232,-339.5 264,-339.5 264,-339.5 232,-339.5"/>
<polygon fill="none" stroke="#666666" points="232,-323 232,-372 264,-372 264,-323 232,-323"/>
</a>
</g>
</g>
<!-- Node5&#45;&gt;Node2 -->
<g id="edge4_Node000002_Node000005" class="edge">
<title>Node5&#45;&gt;Node2</title>
<g id="a_edge4_Node000002_Node000005"><a xlink:title=" ">
<path fill="none" stroke="#63b8ff" d="M245.87,-322.79C243.31,-302.54 237.77,-273.12 226,-250 224.62,-247.3 223.06,-244.62 221.36,-242.01"/>
<polygon fill="none" stroke="#63b8ff" points="221.33,-241.95 214.57,-239.44 214.29,-232.23 221.05,-234.75 221.33,-241.95"/>
</a>
</g>
<text text-anchor="middle" x="303.5" y="-297" font-family="Helvetica,sans-Serif" font-size="10.00" fill="grey"> #_supports_cache_class</text>
<text text-anchor="start" x="242" y="-286" font-family="Helvetica,sans-Serif" font-size="10.00" fill="grey">#_supports_flash_attn</text>
<text text-anchor="middle" x="303.5" y="-275" font-family="Helvetica,sans-Serif" font-size="10.00" fill="grey">_2</text>
<text text-anchor="start" x="242" y="-264" font-family="Helvetica,sans-Serif" font-size="10.00" fill="grey">+supports_gradient</text>
<text text-anchor="middle" x="303.5" y="-253" font-family="Helvetica,sans-Serif" font-size="10.00" fill="grey">_checkpointing</text>
</g>
<!-- Node6 -->
<g id="Node000006" class="node">
<title>Node6</title>
<g id="a_Node000006"><a xlink:title=" ">
<polygon fill="white" stroke="transparent" points="407,-372 381,-372 381,-323 407,-323 407,-372"/>
<text text-anchor="start" x="386" y="-359.5" font-family="Helvetica,sans-Serif" font-size="10.00">list</text>
<text text-anchor="start" x="392" y="-344.5" font-family="Helvetica,sans-Serif" font-size="10.00"> </text>
<text text-anchor="start" x="392" y="-329.5" font-family="Helvetica,sans-Serif" font-size="10.00"> </text>
<polygon fill="#666666" stroke="#666666" points="381,-354.5 381,-354.5 407,-354.5 407,-354.5 381,-354.5"/>
<polygon fill="#666666" stroke="#666666" points="381,-339.5 381,-339.5 407,-339.5 407,-339.5 381,-339.5"/>
<polygon fill="none" stroke="#666666" points="381,-323 381,-372 407,-372 407,-323 381,-323"/>
</a>
</g>
</g>
<!-- Node6&#45;&gt;Node2 -->
<g id="edge5_Node000002_Node000006" class="edge">
<title>Node6&#45;&gt;Node2</title>
<g id="a_edge5_Node000002_Node000006"><a xlink:title=" ">
<path fill="none" stroke="#63b8ff" d="M394.31,-322.97C393.29,-301.13 388.25,-269.18 369,-250 355.46,-236.5 316.41,-225.59 277.75,-217.68"/>
<polygon fill="none" stroke="#63b8ff" points="277.56,-217.65 270.9,-220.41 265.79,-215.33 272.45,-212.56 277.56,-217.65"/>
</a>
</g>
<text text-anchor="middle" x="443.5" y="-275" font-family="Helvetica,sans-Serif" font-size="10.00" fill="grey"> #_no_split_modules</text>
</g>
</g>
</svg>

<g id="navigator" transform="translate(0 0)" fill="#404254">
  <rect fill="#f2f5e9" fill-opacity="0.5" stroke="#606060" stroke-width=".5" x="0" y="0" width="60" height="60"/>
  <use id="zoomplus" xlink:href="#zoomPlus" x="17" y="9" onmousedown="handleZoom(evt,'in')"/>
  <use id="zoomminus" xlink:href="#zoomMin" x="42" y="9" onmousedown="handleZoom(evt,'out')"/>
  <use id="reset" xlink:href="#resetDef" x="30" y="36" onmousedown="handleReset()"/>
   <use id="arrowup" xlink:href="#arrowUp" x="0" y="0" onmousedown="handlePan(0,-1)"/>
  <use id="arrowright" xlink:href="#arrowRight" x="0" y="0" onmousedown="handlePan(1,0)"/>
  <use id="arrowdown" xlink:href="#arrowDown" x="0" y="0" onmousedown="handlePan(0,1)"/>
  <use id="arrowleft" xlink:href="#arrowLeft" x="0" y="0" onmousedown="handlePan(-1,0)"/>
</g>
<svg viewBox="0 0 15 15" width="100%" height="30px" preserveAspectRatio="xMaxYMin meet">
 <g id="arrow_out" transform="scale(0.3 0.3)">
  <a xlink:href="classmodeling__deepseek_1_1DeepseekV3ForSequenceClassification__coll__graph_org.svg" target="_base">
   <rect id="button" ry="5" rx="5" y="6" x="6" height="38" width="38"
        fill="#f2f5e9" fill-opacity="0.5" stroke="#606060" stroke-width="1.0"/>
   <path id="arrow"
     d="M 11.500037,31.436501 C 11.940474,20.09759 22.043105,11.32322 32.158766,21.979434 L 37.068811,17.246167 C 37.068811,17.246167 37.088388,32 37.088388,32 L 22.160133,31.978069 C 22.160133,31.978069 26.997745,27.140456 26.997745,27.140456 C 18.528582,18.264221 13.291696,25.230495 11.500037,31.436501 z"
     style="fill:#404040;"/>
  </a>
 </g>
</svg>

<style type='text/css'>
<![CDATA[
[data-mouse-over-selected='false'] { opacity: 0.7; }
[data-mouse-over-selected='true']  { opacity: 1.0; }
]]>
</style>
<script type="application/ecmascript"><![CDATA[
document.addEventListener('DOMContentLoaded', (event) => {
  highlightEdges();
  highlightAdjacentNodes();
});
]]></script>
</svg>
