<?xml version="1.0" encoding="UTF-8" standalone="no"?>
<!DOCTYPE svg PUBLIC "-//W3C//DTD SVG 1.1//EN"
 "http://www.w3.org/Graphics/SVG/1.1/DTD/svg11.dtd">
<!-- Generated by graphviz version 2.43.0 (0)
 -->
<!-- Title: modeling_deepseek.DeepseekV3FlashAttention2 Pages: 1 -->
<svg width="169pt" height="590pt"
 viewBox="0.00 0.00 169.00 590.00" xmlns="http://www.w3.org/2000/svg" xmlns:xlink="http://www.w3.org/1999/xlink">
<g id="graph0" class="graph" transform="scale(1 1) rotate(0) translate(4 586)">
<title>modeling_deepseek.DeepseekV3FlashAttention2</title>
<!-- Node1 -->
<g id="Node000001" class="node">
<title>Node1</title>
<g id="a_Node000001"><a xlink:title=" ">
<polygon fill="#999999" stroke="transparent" points="161,-206 0,-206 0,0 161,0 161,-206"/>
<text text-anchor="start" x="5.5" y="-194" font-family="Helvetica,sans-Serif" font-size="10.00">modeling_deepseek.Deepseek</text>
<text text-anchor="start" x="35.5" y="-183" font-family="Helvetica,sans-Serif" font-size="10.00">V3FlashAttention2</text>
<text text-anchor="start" x="7" y="-168" font-family="Helvetica,sans-Serif" font-size="10.00">+</text>
<text text-anchor="start" x="22.5" y="-168" font-family="Helvetica,sans-Serif" font-size="10.00">qk_nope_head_dim</text>
<text text-anchor="start" x="7" y="-153" font-family="Helvetica,sans-Serif" font-size="10.00">+</text>
<text text-anchor="start" x="22.5" y="-153" font-family="Helvetica,sans-Serif" font-size="10.00">kv_lora_rank</text>
<text text-anchor="start" x="7" y="-138" font-family="Helvetica,sans-Serif" font-size="10.00">+</text>
<text text-anchor="start" x="22.5" y="-138" font-family="Helvetica,sans-Serif" font-size="10.00">num_heads</text>
<text text-anchor="start" x="7" y="-123" font-family="Helvetica,sans-Serif" font-size="10.00">+</text>
<text text-anchor="start" x="22.5" y="-123" font-family="Helvetica,sans-Serif" font-size="10.00">v_head_dim</text>
<text text-anchor="start" x="7" y="-108" font-family="Helvetica,sans-Serif" font-size="10.00">+</text>
<text text-anchor="start" x="22.5" y="-108" font-family="Helvetica,sans-Serif" font-size="10.00">layer_idx</text>
<text text-anchor="start" x="7" y="-93" font-family="Helvetica,sans-Serif" font-size="10.00">+</text>
<text text-anchor="start" x="22.5" y="-93" font-family="Helvetica,sans-Serif" font-size="10.00">config</text>
<text text-anchor="start" x="7" y="-78" font-family="Helvetica,sans-Serif" font-size="10.00">#</text>
<text text-anchor="start" x="22.5" y="-78" font-family="Helvetica,sans-Serif" font-size="10.00">_flash_attn_uses_top</text>
<text text-anchor="start" x="22.5" y="-67" font-family="Helvetica,sans-Serif" font-size="10.00">_left_mask</text>
<text text-anchor="start" x="7" y="-52" font-family="Helvetica,sans-Serif" font-size="10.00">+</text>
<text text-anchor="start" x="22.5" y="-52" font-family="Helvetica,sans-Serif" font-size="10.00">__init__()</text>
<text text-anchor="start" x="7" y="-37" font-family="Helvetica,sans-Serif" font-size="10.00">+</text>
<text text-anchor="start" x="22.5" y="-37" font-family="Helvetica,sans-Serif" font-size="10.00">forward()</text>
<text text-anchor="start" x="7" y="-22" font-family="Helvetica,sans-Serif" font-size="10.00">#</text>
<text text-anchor="start" x="22.5" y="-22" font-family="Helvetica,sans-Serif" font-size="10.00">_flash_attention_forward()</text>
<text text-anchor="start" x="7" y="-7" font-family="Helvetica,sans-Serif" font-size="10.00">#</text>
<text text-anchor="start" x="22.5" y="-7" font-family="Helvetica,sans-Serif" font-size="10.00">_upad_input()</text>
<polygon fill="#666666" stroke="#666666" points="0.5,-178 0.5,-178 161.5,-178 161.5,-178 0.5,-178"/>
<polygon fill="#666666" stroke="#666666" points="0.5,-62 0.5,-62 20.5,-62 20.5,-62 0.5,-62"/>
<polygon fill="#666666" stroke="#666666" points="20.5,-62 20.5,-62 161.5,-62 161.5,-62 20.5,-62"/>
<polygon fill="none" stroke="#666666" points="0,0 0,-206 161,-206 161,0 0,0"/>
</a>
</g>
</g>
<!-- Node2 -->
<g id="Node000002" class="node">
<title>Node2</title>
<g id="a_Node000002"><a xlink:href="classmodeling__deepseek_1_1DeepseekV3Attention.html" target="_top" xlink:title=" ">
<polygon fill="white" stroke="transparent" points="161,-497 0,-497 0,-242 161,-242 161,-497"/>
<text text-anchor="start" x="5.5" y="-484.5" font-family="Helvetica,sans-Serif" font-size="10.00">modeling_deepseek.Deepseek</text>
<text text-anchor="start" x="52" y="-473.5" font-family="Helvetica,sans-Serif" font-size="10.00">V3Attention</text>
<text text-anchor="start" x="6.5" y="-458.5" font-family="Helvetica,sans-Serif" font-size="10.00">+</text>
<text text-anchor="start" x="21.5" y="-458.5" font-family="Helvetica,sans-Serif" font-size="10.00">config</text>
<text text-anchor="start" x="6.5" y="-443.5" font-family="Helvetica,sans-Serif" font-size="10.00">+</text>
<text text-anchor="start" x="21.5" y="-443.5" font-family="Helvetica,sans-Serif" font-size="10.00">layer_idx</text>
<text text-anchor="start" x="6.5" y="-428.5" font-family="Helvetica,sans-Serif" font-size="10.00">+</text>
<text text-anchor="start" x="21.5" y="-428.5" font-family="Helvetica,sans-Serif" font-size="10.00">attention_dropout</text>
<text text-anchor="start" x="6.5" y="-413.5" font-family="Helvetica,sans-Serif" font-size="10.00">+</text>
<text text-anchor="start" x="21.5" y="-413.5" font-family="Helvetica,sans-Serif" font-size="10.00">hidden_size</text>
<text text-anchor="start" x="6.5" y="-398.5" font-family="Helvetica,sans-Serif" font-size="10.00">+</text>
<text text-anchor="start" x="21.5" y="-398.5" font-family="Helvetica,sans-Serif" font-size="10.00">num_heads</text>
<text text-anchor="start" x="6.5" y="-383.5" font-family="Helvetica,sans-Serif" font-size="10.00">+</text>
<text text-anchor="start" x="21.5" y="-383.5" font-family="Helvetica,sans-Serif" font-size="10.00">max_position_embeddings</text>
<text text-anchor="start" x="6.5" y="-368.5" font-family="Helvetica,sans-Serif" font-size="10.00">+</text>
<text text-anchor="start" x="21.5" y="-368.5" font-family="Helvetica,sans-Serif" font-size="10.00">rope_theta</text>
<text text-anchor="start" x="6.5" y="-353.5" font-family="Helvetica,sans-Serif" font-size="10.00">+</text>
<text text-anchor="start" x="21.5" y="-353.5" font-family="Helvetica,sans-Serif" font-size="10.00">q_lora_rank</text>
<text text-anchor="start" x="6.5" y="-338.5" font-family="Helvetica,sans-Serif" font-size="10.00">+</text>
<text text-anchor="start" x="21.5" y="-338.5" font-family="Helvetica,sans-Serif" font-size="10.00">qk_rope_head_dim</text>
<text text-anchor="start" x="6.5" y="-323.5" font-family="Helvetica,sans-Serif" font-size="10.00">+</text>
<text text-anchor="start" x="21.5" y="-323.5" font-family="Helvetica,sans-Serif" font-size="10.00">kv_lora_rank</text>
<text text-anchor="start" x="21.5" y="-308.5" font-family="Helvetica,sans-Serif" font-size="10.00">and 14 more...</text>
<text text-anchor="start" x="6.5" y="-293.5" font-family="Helvetica,sans-Serif" font-size="10.00">+</text>
<text text-anchor="start" x="21.5" y="-293.5" font-family="Helvetica,sans-Serif" font-size="10.00">__init__()</text>
<text text-anchor="start" x="6.5" y="-278.5" font-family="Helvetica,sans-Serif" font-size="10.00">+</text>
<text text-anchor="start" x="21.5" y="-278.5" font-family="Helvetica,sans-Serif" font-size="10.00">forward()</text>
<text text-anchor="start" x="6.5" y="-263.5" font-family="Helvetica,sans-Serif" font-size="10.00">#</text>
<text text-anchor="start" x="21.5" y="-263.5" font-family="Helvetica,sans-Serif" font-size="10.00">_init_rope()</text>
<text text-anchor="start" x="6.5" y="-248.5" font-family="Helvetica,sans-Serif" font-size="10.00">#</text>
<text text-anchor="start" x="21.5" y="-248.5" font-family="Helvetica,sans-Serif" font-size="10.00">_shape()</text>
<polygon fill="#666666" stroke="#666666" points="0.5,-468.5 0.5,-468.5 161.5,-468.5 161.5,-468.5 0.5,-468.5"/>
<polygon fill="#666666" stroke="#666666" points="0.5,-303.5 0.5,-303.5 19.5,-303.5 19.5,-303.5 0.5,-303.5"/>
<polygon fill="#666666" stroke="#666666" points="19.5,-303.5 19.5,-303.5 161.5,-303.5 161.5,-303.5 19.5,-303.5"/>
<polygon fill="none" stroke="#666666" points="0,-242 0,-497 161,-497 161,-242 0,-242"/>
</a>
</g>
</g>
<!-- Node2&#45;&gt;Node1 -->
<g id="edge1_Node000001_Node000002" class="edge">
<title>Node2&#45;&gt;Node1</title>
<g id="a_edge1_Node000001_Node000002"><a xlink:title=" ">
<path fill="none" stroke="#63b8ff" d="M80.5,-231.6C80.5,-223.02 80.5,-214.47 80.5,-206.09"/>
<polygon fill="none" stroke="#63b8ff" points="77,-231.67 80.5,-241.67 84,-231.67 77,-231.67"/>
</a>
</g>
</g>
<!-- Node3 -->
<g id="Node000003" class="node">
<title>Node3</title>
<g id="a_Node000003"><a xlink:title=" ">
<polygon fill="white" stroke="transparent" points="113,-582 48,-582 48,-533 113,-533 113,-582"/>
<text text-anchor="start" x="53.5" y="-569.5" font-family="Helvetica,sans-Serif" font-size="10.00">nn::Module</text>
<text text-anchor="start" x="79" y="-554.5" font-family="Helvetica,sans-Serif" font-size="10.00"> </text>
<text text-anchor="start" x="79" y="-539.5" font-family="Helvetica,sans-Serif" font-size="10.00"> </text>
<polygon fill="#666666" stroke="#666666" points="48.5,-564.5 48.5,-564.5 113.5,-564.5 113.5,-564.5 48.5,-564.5"/>
<polygon fill="#666666" stroke="#666666" points="48.5,-549.5 48.5,-549.5 113.5,-549.5 113.5,-549.5 48.5,-549.5"/>
<polygon fill="none" stroke="#666666" points="48,-533 48,-582 113,-582 113,-533 48,-533"/>
</a>
</g>
</g>
<!-- Node3&#45;&gt;Node2 -->
<g id="edge2_Node000002_Node000003" class="edge">
<title>Node3&#45;&gt;Node2</title>
<g id="a_edge2_Node000002_Node000003"><a xlink:title=" ">
<path fill="none" stroke="#63b8ff" d="M80.5,-522.75C80.5,-515.08 80.5,-506.48 80.5,-497.39"/>
<polygon fill="none" stroke="#63b8ff" points="77,-522.94 80.5,-532.94 84,-522.94 77,-522.94"/>
</a>
</g>
</g>
</g>
</svg>
