<?xml version="1.0" encoding="UTF-8" standalone="no"?>
<!DOCTYPE svg PUBLIC "-//W3C//DTD SVG 1.1//EN"
 "http://www.w3.org/Graphics/SVG/1.1/DTD/svg11.dtd">
<!-- Generated by graphviz version 2.43.0 (0)
 -->
<!-- Title: modeling_deepseek.DeepseekV3PreTrainedModel Pages: 1 -->
<!--zoomable 530 -->

<svg id="main" version="1.1" xmlns="http://www.w3.org/2000/svg" xmlns:xlink="http://www.w3.org/1999/xlink" xml:space="preserve" onload="init(evt)">
<style type="text/css"><![CDATA[
.node, .edge {opacity: 0.7;}
.node.selected, .edge.selected {opacity: 1;}
.edge:hover path { stroke: red; }
.edge:hover polygon { stroke: red; fill: red; }
]]></style>

<defs>
  <circle id="rim" cx="0" cy="0" r="7"/>
  <circle id="rim2" cx="0" cy="0" r="3.5"/>
  <g id="zoomPlus">
    <use xlink:href="#rim" fill="#404040"><set attributeName="fill" to="#808080" begin="zoomplus.mouseover" end="zoomplus.mouseout"/></use>
    <path d="M-4,0h8M0,-4v8" fill="none" stroke="white" stroke-width="1.5" pointer-events="none"/>
  </g>
  <g id="zoomMin">
    <use xlink:href="#rim" fill="#404040"><set attributeName="fill" to="#808080" begin="zoomminus.mouseover" end="zoomminus.mouseout"/></use>
    <path d="M-4,0h8" fill="none" stroke="white" stroke-width="1.5" pointer-events="none"/>
  </g>
  <g id="arrowUp" transform="translate(30 24)">
    <use xlink:href="#rim"/>
    <path pointer-events="none" fill="none" stroke="white" stroke-width="1.5" d="M0,-3.0v7 M-2.5,-0.5L0,-3.0L2.5,-0.5"/>
  </g>
  <g id="arrowRight" transform="rotate(90) translate(36 -43)">
    <use xlink:href="#rim"/>
    <path pointer-events="none" fill="none" stroke="white" stroke-width="1.5" d="M0,-3.0v7 M-2.5,-0.5L0,-3.0L2.5,-0.5"/>
  </g>
  <g id="arrowDown" transform="rotate(180) translate(-30 -48)">
    <use xlink:href="#rim"/>
    <path pointer-events="none" fill="none" stroke="white" stroke-width="1.5" d="M0,-3.0v7 M-2.5,-0.5L0,-3.0L2.5,-0.5"/>
  </g>
  <g id="arrowLeft" transform="rotate(270) translate(-36 17)">
    <use xlink:href="#rim"/>
    <path pointer-events="none" fill="none" stroke="white" stroke-width="1.5" d="M0,-3.0v7 M-2.5,-0.5L0,-3.0L2.5,-0.5"/>
  </g>
  <g id="resetDef">
    <use xlink:href="#rim2" fill="#404040"><set attributeName="fill" to="#808080" begin="reset.mouseover" end="reset.mouseout"/></use>
  </g>
</defs>
<script type="application/ecmascript">
var viewWidth = 527;
var viewHeight = 530;
var sectionId = 'dynsection-0';
</script>
<script type="application/ecmascript" xlink:href="svg.min.js"/>
<svg id="graph" class="graph">
<g id="viewport">
<title>modeling_deepseek.DeepseekV3PreTrainedModel</title>
<!-- Node1 -->
<g id="Node000001" class="node">
<title>Node1</title>
<g id="a_Node000001"><a xlink:title=" ">
<polygon fill="#999999" stroke="transparent" points="351,-437 168,-437 168,-287 351,-287 351,-437"/>
<text text-anchor="start" x="184.5" y="-425" font-family="Helvetica,sans-Serif" font-size="10.00">modeling_deepseek.Deepseek</text>
<text text-anchor="start" x="213" y="-414" font-family="Helvetica,sans-Serif" font-size="10.00">V3PreTrainedModel</text>
<text text-anchor="start" x="172.5" y="-399" font-family="Helvetica,sans-Serif" font-size="10.00">+</text>
<text text-anchor="start" x="185.5" y="-399" font-family="Helvetica,sans-Serif" font-size="10.00">config_class</text>
<text text-anchor="start" x="172.5" y="-384" font-family="Helvetica,sans-Serif" font-size="10.00">+</text>
<text text-anchor="start" x="185.5" y="-384" font-family="Helvetica,sans-Serif" font-size="10.00">base_model_prefix</text>
<text text-anchor="start" x="172.5" y="-369" font-family="Helvetica,sans-Serif" font-size="10.00">+</text>
<text text-anchor="start" x="185.5" y="-369" font-family="Helvetica,sans-Serif" font-size="10.00">supports_gradient_checkpointing</text>
<text text-anchor="start" x="172.5" y="-354" font-family="Helvetica,sans-Serif" font-size="10.00">#</text>
<text text-anchor="start" x="185.5" y="-354" font-family="Helvetica,sans-Serif" font-size="10.00">_no_split_modules</text>
<text text-anchor="start" x="172.5" y="-339" font-family="Helvetica,sans-Serif" font-size="10.00">#</text>
<text text-anchor="start" x="185.5" y="-339" font-family="Helvetica,sans-Serif" font-size="10.00">_skip_keys_device_placement</text>
<text text-anchor="start" x="172.5" y="-324" font-family="Helvetica,sans-Serif" font-size="10.00">#</text>
<text text-anchor="start" x="185.5" y="-324" font-family="Helvetica,sans-Serif" font-size="10.00">_supports_flash_attn_2</text>
<text text-anchor="start" x="172.5" y="-309" font-family="Helvetica,sans-Serif" font-size="10.00">#</text>
<text text-anchor="start" x="185.5" y="-309" font-family="Helvetica,sans-Serif" font-size="10.00">_supports_cache_class</text>
<text text-anchor="start" x="172.5" y="-294" font-family="Helvetica,sans-Serif" font-size="10.00">#</text>
<text text-anchor="start" x="185.5" y="-294" font-family="Helvetica,sans-Serif" font-size="10.00">_init_weights()</text>
<polygon fill="#666666" stroke="#666666" points="168.5,-409 168.5,-409 351.5,-409 351.5,-409 168.5,-409"/>
<polygon fill="#666666" stroke="#666666" points="168.5,-304 168.5,-304 183.5,-304 183.5,-304 168.5,-304"/>
<polygon fill="#666666" stroke="#666666" points="183.5,-304 183.5,-304 351.5,-304 351.5,-304 183.5,-304"/>
<polygon fill="none" stroke="#666666" points="168,-287 168,-437 351,-437 351,-287 168,-287"/>
</a>
</g>
</g>
<!-- Node3 -->
<g id="Node000003" class="node">
<title>Node3</title>
<g id="a_Node000003"><a xlink:href="classmodeling__deepseek_1_1DeepseekV3ForCausalLM.html" target="_top" xlink:title=" ">
<polygon fill="white" stroke="transparent" points="161,-251 0,-251 0,0 161,0 161,-251"/>
<text text-anchor="start" x="5.5" y="-238.5" font-family="Helvetica,sans-Serif" font-size="10.00">modeling_deepseek.Deepseek</text>
<text text-anchor="start" x="43" y="-227.5" font-family="Helvetica,sans-Serif" font-size="10.00">V3ForCausalLM</text>
<text text-anchor="start" x="8" y="-212.5" font-family="Helvetica,sans-Serif" font-size="10.00">+</text>
<text text-anchor="start" x="24.5" y="-212.5" font-family="Helvetica,sans-Serif" font-size="10.00">model</text>
<text text-anchor="start" x="8" y="-197.5" font-family="Helvetica,sans-Serif" font-size="10.00">+</text>
<text text-anchor="start" x="24.5" y="-197.5" font-family="Helvetica,sans-Serif" font-size="10.00">vocab_size</text>
<text text-anchor="start" x="8" y="-182.5" font-family="Helvetica,sans-Serif" font-size="10.00">+</text>
<text text-anchor="start" x="24.5" y="-182.5" font-family="Helvetica,sans-Serif" font-size="10.00">lm_head</text>
<text text-anchor="start" x="8" y="-167.5" font-family="Helvetica,sans-Serif" font-size="10.00">#</text>
<text text-anchor="start" x="24.5" y="-167.5" font-family="Helvetica,sans-Serif" font-size="10.00">_tied_weights_keys</text>
<text text-anchor="start" x="8" y="-152.5" font-family="Helvetica,sans-Serif" font-size="10.00">+</text>
<text text-anchor="start" x="24.5" y="-152.5" font-family="Helvetica,sans-Serif" font-size="10.00">__init__()</text>
<text text-anchor="start" x="8" y="-137.5" font-family="Helvetica,sans-Serif" font-size="10.00">+</text>
<text text-anchor="start" x="24.5" y="-137.5" font-family="Helvetica,sans-Serif" font-size="10.00">get_input_embeddings()</text>
<text text-anchor="start" x="8" y="-122.5" font-family="Helvetica,sans-Serif" font-size="10.00">+</text>
<text text-anchor="start" x="24.5" y="-122.5" font-family="Helvetica,sans-Serif" font-size="10.00">set_input_embeddings()</text>
<text text-anchor="start" x="8" y="-107.5" font-family="Helvetica,sans-Serif" font-size="10.00">+</text>
<text text-anchor="start" x="24.5" y="-107.5" font-family="Helvetica,sans-Serif" font-size="10.00">get_output_embeddings()</text>
<text text-anchor="start" x="8" y="-92.5" font-family="Helvetica,sans-Serif" font-size="10.00">+</text>
<text text-anchor="start" x="24.5" y="-92.5" font-family="Helvetica,sans-Serif" font-size="10.00">set_output_embeddings()</text>
<text text-anchor="start" x="8" y="-77.5" font-family="Helvetica,sans-Serif" font-size="10.00">+</text>
<text text-anchor="start" x="24.5" y="-77.5" font-family="Helvetica,sans-Serif" font-size="10.00">set_decoder()</text>
<text text-anchor="start" x="8" y="-62.5" font-family="Helvetica,sans-Serif" font-size="10.00">+</text>
<text text-anchor="start" x="24.5" y="-62.5" font-family="Helvetica,sans-Serif" font-size="10.00">get_decoder()</text>
<text text-anchor="start" x="8" y="-47.5" font-family="Helvetica,sans-Serif" font-size="10.00">+</text>
<text text-anchor="start" x="24.5" y="-47.5" font-family="Helvetica,sans-Serif" font-size="10.00">forward()</text>
<text text-anchor="start" x="8" y="-32.5" font-family="Helvetica,sans-Serif" font-size="10.00">+</text>
<text text-anchor="start" x="24.5" y="-32.5" font-family="Helvetica,sans-Serif" font-size="10.00">prepare_inputs_for</text>
<text text-anchor="start" x="24.5" y="-21.5" font-family="Helvetica,sans-Serif" font-size="10.00">_generation()</text>
<text text-anchor="start" x="8" y="-6.5" font-family="Helvetica,sans-Serif" font-size="10.00">#</text>
<text text-anchor="start" x="24.5" y="-6.5" font-family="Helvetica,sans-Serif" font-size="10.00">_reorder_cache()</text>
<polygon fill="#666666" stroke="#666666" points="0.5,-222.5 0.5,-222.5 161.5,-222.5 161.5,-222.5 0.5,-222.5"/>
<polygon fill="#666666" stroke="#666666" points="0.5,-162.5 0.5,-162.5 22.5,-162.5 22.5,-162.5 0.5,-162.5"/>
<polygon fill="#666666" stroke="#666666" points="22.5,-162.5 22.5,-162.5 161.5,-162.5 161.5,-162.5 22.5,-162.5"/>
<polygon fill="none" stroke="#666666" points="0,0 0,-251 161,-251 161,0 0,0"/>
</a>
</g>
</g>
<!-- Node1&#45;&gt;Node3 -->
<g id="edge2_Node000001_Node000003" class="edge">
<title>Node1&#45;&gt;Node3</title>
<g id="a_edge2_Node000001_Node000003"><a xlink:title=" ">
<path fill="none" stroke="#63b8ff" d="M191.52,-279.1C184,-269.7 176.53,-260.19 169.5,-251 166.76,-247.41 163.98,-243.75 161.2,-240.05"/>
<polygon fill="none" stroke="#63b8ff" points="188.85,-281.36 197.84,-286.97 194.31,-276.98 188.85,-281.36"/>
</a>
</g>
</g>
<!-- Node4 -->
<g id="Node000004" class="node">
<title>Node4</title>
<g id="a_Node000004"><a xlink:href="classmodeling__deepseek_1_1DeepseekV3ForSequenceClassification.html" target="_top" xlink:title=" ">
<polygon fill="white" stroke="transparent" points="340,-193 179,-193 179,-58 340,-58 340,-193"/>
<text text-anchor="start" x="184.5" y="-180.5" font-family="Helvetica,sans-Serif" font-size="10.00">modeling_deepseek.Deepseek</text>
<text text-anchor="start" x="189.5" y="-169.5" font-family="Helvetica,sans-Serif" font-size="10.00">V3ForSequenceClassification</text>
<text text-anchor="start" x="188.5" y="-154.5" font-family="Helvetica,sans-Serif" font-size="10.00">+</text>
<text text-anchor="start" x="206.5" y="-154.5" font-family="Helvetica,sans-Serif" font-size="10.00">num_labels</text>
<text text-anchor="start" x="188.5" y="-139.5" font-family="Helvetica,sans-Serif" font-size="10.00">+</text>
<text text-anchor="start" x="206.5" y="-139.5" font-family="Helvetica,sans-Serif" font-size="10.00">model</text>
<text text-anchor="start" x="188.5" y="-124.5" font-family="Helvetica,sans-Serif" font-size="10.00">+</text>
<text text-anchor="start" x="206.5" y="-124.5" font-family="Helvetica,sans-Serif" font-size="10.00">score</text>
<text text-anchor="start" x="188.5" y="-109.5" font-family="Helvetica,sans-Serif" font-size="10.00">+</text>
<text text-anchor="start" x="206.5" y="-109.5" font-family="Helvetica,sans-Serif" font-size="10.00">__init__()</text>
<text text-anchor="start" x="188.5" y="-94.5" font-family="Helvetica,sans-Serif" font-size="10.00">+</text>
<text text-anchor="start" x="206.5" y="-94.5" font-family="Helvetica,sans-Serif" font-size="10.00">get_input_embeddings()</text>
<text text-anchor="start" x="188.5" y="-79.5" font-family="Helvetica,sans-Serif" font-size="10.00">+</text>
<text text-anchor="start" x="206.5" y="-79.5" font-family="Helvetica,sans-Serif" font-size="10.00">set_input_embeddings()</text>
<text text-anchor="start" x="188.5" y="-64.5" font-family="Helvetica,sans-Serif" font-size="10.00">+</text>
<text text-anchor="start" x="206.5" y="-64.5" font-family="Helvetica,sans-Serif" font-size="10.00">forward()</text>
<polygon fill="#666666" stroke="#666666" points="179.5,-164.5 179.5,-164.5 340.5,-164.5 340.5,-164.5 179.5,-164.5"/>
<polygon fill="#666666" stroke="#666666" points="179.5,-119.5 179.5,-119.5 204.5,-119.5 204.5,-119.5 179.5,-119.5"/>
<polygon fill="#666666" stroke="#666666" points="204.5,-119.5 204.5,-119.5 340.5,-119.5 340.5,-119.5 204.5,-119.5"/>
<polygon fill="none" stroke="#666666" points="179,-58 179,-193 340,-193 340,-58 179,-58"/>
</a>
</g>
</g>
<!-- Node1&#45;&gt;Node4 -->
<g id="edge3_Node000001_Node000004" class="edge">
<title>Node1&#45;&gt;Node4</title>
<g id="a_edge3_Node000001_Node000004"><a xlink:title=" ">
<path fill="none" stroke="#63b8ff" d="M259.5,-276.8C259.5,-249.27 259.5,-219.11 259.5,-193.07"/>
<polygon fill="none" stroke="#63b8ff" points="256,-276.8 259.5,-286.8 263,-276.8 256,-276.8"/>
</a>
</g>
</g>
<!-- Node5 -->
<g id="Node000005" class="node">
<title>Node5</title>
<g id="a_Node000005"><a xlink:href="classmodeling__deepseek_1_1DeepseekV3Model.html" target="_top" xlink:title=" ">
<polygon fill="white" stroke="transparent" points="519,-223 358,-223 358,-28 519,-28 519,-223"/>
<text text-anchor="start" x="363.5" y="-210.5" font-family="Helvetica,sans-Serif" font-size="10.00">modeling_deepseek.Deepseek</text>
<text text-anchor="start" x="417.5" y="-199.5" font-family="Helvetica,sans-Serif" font-size="10.00">V3Model</text>
<text text-anchor="start" x="367.5" y="-184.5" font-family="Helvetica,sans-Serif" font-size="10.00">+</text>
<text text-anchor="start" x="385.5" y="-184.5" font-family="Helvetica,sans-Serif" font-size="10.00">padding_idx</text>
<text text-anchor="start" x="367.5" y="-169.5" font-family="Helvetica,sans-Serif" font-size="10.00">+</text>
<text text-anchor="start" x="385.5" y="-169.5" font-family="Helvetica,sans-Serif" font-size="10.00">vocab_size</text>
<text text-anchor="start" x="367.5" y="-154.5" font-family="Helvetica,sans-Serif" font-size="10.00">+</text>
<text text-anchor="start" x="385.5" y="-154.5" font-family="Helvetica,sans-Serif" font-size="10.00">embed_tokens</text>
<text text-anchor="start" x="367.5" y="-139.5" font-family="Helvetica,sans-Serif" font-size="10.00">+</text>
<text text-anchor="start" x="385.5" y="-139.5" font-family="Helvetica,sans-Serif" font-size="10.00">layers</text>
<text text-anchor="start" x="367.5" y="-124.5" font-family="Helvetica,sans-Serif" font-size="10.00">+</text>
<text text-anchor="start" x="385.5" y="-124.5" font-family="Helvetica,sans-Serif" font-size="10.00">norm</text>
<text text-anchor="start" x="367.5" y="-109.5" font-family="Helvetica,sans-Serif" font-size="10.00">+</text>
<text text-anchor="start" x="385.5" y="-109.5" font-family="Helvetica,sans-Serif" font-size="10.00">gradient_checkpointing</text>
<text text-anchor="start" x="367.5" y="-94.5" font-family="Helvetica,sans-Serif" font-size="10.00">#</text>
<text text-anchor="start" x="385.5" y="-94.5" font-family="Helvetica,sans-Serif" font-size="10.00">_use_flash_attention_2</text>
<text text-anchor="start" x="367.5" y="-79.5" font-family="Helvetica,sans-Serif" font-size="10.00">+</text>
<text text-anchor="start" x="385.5" y="-79.5" font-family="Helvetica,sans-Serif" font-size="10.00">__init__()</text>
<text text-anchor="start" x="367.5" y="-64.5" font-family="Helvetica,sans-Serif" font-size="10.00">+</text>
<text text-anchor="start" x="385.5" y="-64.5" font-family="Helvetica,sans-Serif" font-size="10.00">get_input_embeddings()</text>
<text text-anchor="start" x="367.5" y="-49.5" font-family="Helvetica,sans-Serif" font-size="10.00">+</text>
<text text-anchor="start" x="385.5" y="-49.5" font-family="Helvetica,sans-Serif" font-size="10.00">set_input_embeddings()</text>
<text text-anchor="start" x="367.5" y="-34.5" font-family="Helvetica,sans-Serif" font-size="10.00">+</text>
<text text-anchor="start" x="385.5" y="-34.5" font-family="Helvetica,sans-Serif" font-size="10.00">forward()</text>
<polygon fill="#666666" stroke="#666666" points="358.5,-194.5 358.5,-194.5 519.5,-194.5 519.5,-194.5 358.5,-194.5"/>
<polygon fill="#666666" stroke="#666666" points="358.5,-89.5 358.5,-89.5 383.5,-89.5 383.5,-89.5 358.5,-89.5"/>
<polygon fill="#666666" stroke="#666666" points="383.5,-89.5 383.5,-89.5 519.5,-89.5 519.5,-89.5 383.5,-89.5"/>
<polygon fill="none" stroke="#666666" points="358,-28 358,-223 519,-223 519,-28 358,-28"/>
</a>
</g>
</g>
<!-- Node1&#45;&gt;Node5 -->
<g id="edge4_Node000001_Node000005" class="edge">
<title>Node1&#45;&gt;Node5</title>
<g id="a_edge4_Node000001_Node000005"><a xlink:title=" ">
<path fill="none" stroke="#63b8ff" d="M327.48,-279.1C335,-269.7 342.47,-260.19 349.5,-251 356.36,-242.03 363.4,-232.61 370.36,-223.13"/>
<polygon fill="none" stroke="#63b8ff" points="324.69,-276.98 321.16,-286.97 330.15,-281.36 324.69,-276.98"/>
</a>
</g>
</g>
<!-- Node2 -->
<g id="Node000002" class="node">
<title>Node2</title>
<g id="a_Node000002"><a xlink:title=" ">
<polygon fill="white" stroke="transparent" points="305.5,-522 213.5,-522 213.5,-473 305.5,-473 305.5,-522"/>
<text text-anchor="start" x="218.5" y="-509.5" font-family="Helvetica,sans-Serif" font-size="10.00">PreTrainedModel</text>
<text text-anchor="start" x="257.5" y="-494.5" font-family="Helvetica,sans-Serif" font-size="10.00"> </text>
<text text-anchor="start" x="257.5" y="-479.5" font-family="Helvetica,sans-Serif" font-size="10.00"> </text>
<polygon fill="#666666" stroke="#666666" points="213.5,-504.5 213.5,-504.5 305.5,-504.5 305.5,-504.5 213.5,-504.5"/>
<polygon fill="#666666" stroke="#666666" points="213.5,-489.5 213.5,-489.5 305.5,-489.5 305.5,-489.5 213.5,-489.5"/>
<polygon fill="none" stroke="#666666" points="213.5,-473 213.5,-522 305.5,-522 305.5,-473 213.5,-473"/>
</a>
</g>
</g>
<!-- Node2&#45;&gt;Node1 -->
<g id="edge1_Node000001_Node000002" class="edge">
<title>Node2&#45;&gt;Node1</title>
<g id="a_edge1_Node000001_Node000002"><a xlink:title=" ">
<path fill="none" stroke="#63b8ff" d="M259.5,-462.69C259.5,-454.75 259.5,-445.98 259.5,-437.03"/>
<polygon fill="none" stroke="#63b8ff" points="256,-462.94 259.5,-472.94 263,-462.94 256,-462.94"/>
</a>
</g>
</g>
</g>
</svg>

<g id="navigator" transform="translate(0 0)" fill="#404254">
  <rect fill="#f2f5e9" fill-opacity="0.5" stroke="#606060" stroke-width=".5" x="0" y="0" width="60" height="60"/>
  <use id="zoomplus" xlink:href="#zoomPlus" x="17" y="9" onmousedown="handleZoom(evt,'in')"/>
  <use id="zoomminus" xlink:href="#zoomMin" x="42" y="9" onmousedown="handleZoom(evt,'out')"/>
  <use id="reset" xlink:href="#resetDef" x="30" y="36" onmousedown="handleReset()"/>
   <use id="arrowup" xlink:href="#arrowUp" x="0" y="0" onmousedown="handlePan(0,-1)"/>
  <use id="arrowright" xlink:href="#arrowRight" x="0" y="0" onmousedown="handlePan(1,0)"/>
  <use id="arrowdown" xlink:href="#arrowDown" x="0" y="0" onmousedown="handlePan(0,1)"/>
  <use id="arrowleft" xlink:href="#arrowLeft" x="0" y="0" onmousedown="handlePan(-1,0)"/>
</g>
<svg viewBox="0 0 15 15" width="100%" height="30px" preserveAspectRatio="xMaxYMin meet">
 <g id="arrow_out" transform="scale(0.3 0.3)">
  <a xlink:href="classmodeling__deepseek_1_1DeepseekV3PreTrainedModel__inherit__graph_org.svg" target="_base">
   <rect id="button" ry="5" rx="5" y="6" x="6" height="38" width="38"
        fill="#f2f5e9" fill-opacity="0.5" stroke="#606060" stroke-width="1.0"/>
   <path id="arrow"
     d="M 11.500037,31.436501 C 11.940474,20.09759 22.043105,11.32322 32.158766,21.979434 L 37.068811,17.246167 C 37.068811,17.246167 37.088388,32 37.088388,32 L 22.160133,31.978069 C 22.160133,31.978069 26.997745,27.140456 26.997745,27.140456 C 18.528582,18.264221 13.291696,25.230495 11.500037,31.436501 z"
     style="fill:#404040;"/>
  </a>
 </g>
</svg>

<style type='text/css'>
<![CDATA[
[data-mouse-over-selected='false'] { opacity: 0.7; }
[data-mouse-over-selected='true']  { opacity: 1.0; }
]]>
</style>
<script type="application/ecmascript"><![CDATA[
document.addEventListener('DOMContentLoaded', (event) => {
  highlightEdges();
  highlightAdjacentNodes();
});
]]></script>
</svg>
