<?xml version="1.0" encoding="UTF-8" standalone="no"?>
<!DOCTYPE svg PUBLIC "-//W3C//DTD SVG 1.1//EN"
 "http://www.w3.org/Graphics/SVG/1.1/DTD/svg11.dtd">
<!-- Generated by graphviz version 2.43.0 (0)
 -->
<!-- Title: modeling_deepseek.DeepseekV3Model Pages: 1 -->
<!--zoomable 440 -->

<svg id="main" version="1.1" xmlns="http://www.w3.org/2000/svg" xmlns:xlink="http://www.w3.org/1999/xlink" xml:space="preserve" onload="init(evt)">
<style type="text/css"><![CDATA[
.node, .edge {opacity: 0.7;}
.node.selected, .edge.selected {opacity: 1;}
.edge:hover path { stroke: red; }
.edge:hover polygon { stroke: red; fill: red; }
]]></style>

<defs>
  <circle id="rim" cx="0" cy="0" r="7"/>
  <circle id="rim2" cx="0" cy="0" r="3.5"/>
  <g id="zoomPlus">
    <use xlink:href="#rim" fill="#404040"><set attributeName="fill" to="#808080" begin="zoomplus.mouseover" end="zoomplus.mouseout"/></use>
    <path d="M-4,0h8M0,-4v8" fill="none" stroke="white" stroke-width="1.5" pointer-events="none"/>
  </g>
  <g id="zoomMin">
    <use xlink:href="#rim" fill="#404040"><set attributeName="fill" to="#808080" begin="zoomminus.mouseover" end="zoomminus.mouseout"/></use>
    <path d="M-4,0h8" fill="none" stroke="white" stroke-width="1.5" pointer-events="none"/>
  </g>
  <g id="arrowUp" transform="translate(30 24)">
    <use xlink:href="#rim"/>
    <path pointer-events="none" fill="none" stroke="white" stroke-width="1.5" d="M0,-3.0v7 M-2.5,-0.5L0,-3.0L2.5,-0.5"/>
  </g>
  <g id="arrowRight" transform="rotate(90) translate(36 -43)">
    <use xlink:href="#rim"/>
    <path pointer-events="none" fill="none" stroke="white" stroke-width="1.5" d="M0,-3.0v7 M-2.5,-0.5L0,-3.0L2.5,-0.5"/>
  </g>
  <g id="arrowDown" transform="rotate(180) translate(-30 -48)">
    <use xlink:href="#rim"/>
    <path pointer-events="none" fill="none" stroke="white" stroke-width="1.5" d="M0,-3.0v7 M-2.5,-0.5L0,-3.0L2.5,-0.5"/>
  </g>
  <g id="arrowLeft" transform="rotate(270) translate(-36 17)">
    <use xlink:href="#rim"/>
    <path pointer-events="none" fill="none" stroke="white" stroke-width="1.5" d="M0,-3.0v7 M-2.5,-0.5L0,-3.0L2.5,-0.5"/>
  </g>
  <g id="resetDef">
    <use xlink:href="#rim2" fill="#404040"><set attributeName="fill" to="#808080" begin="reset.mouseover" end="reset.mouseout"/></use>
  </g>
</defs>
<script type="application/ecmascript">
var viewWidth = 503;
var viewHeight = 440;
var sectionId = 'dynsection-1';
</script>
<script type="application/ecmascript" xlink:href="svg.min.js"/>
<svg id="graph" class="graph">
<g id="viewport">
<title>modeling_deepseek.DeepseekV3Model</title>
<!-- Node1 -->
<g id="Node000001" class="node">
<title>Node1</title>
<g id="a_Node000001"><a xlink:title=" ">
<polygon fill="#999999" stroke="transparent" points="265.5,-195 104.5,-195 104.5,0 265.5,0 265.5,-195"/>
<text text-anchor="start" x="110" y="-182.5" font-family="Helvetica,sans-Serif" font-size="10.00">modeling_deepseek.Deepseek</text>
<text text-anchor="start" x="164" y="-171.5" font-family="Helvetica,sans-Serif" font-size="10.00">V3Model</text>
<text text-anchor="start" x="114" y="-156.5" font-family="Helvetica,sans-Serif" font-size="10.00">+</text>
<text text-anchor="start" x="132" y="-156.5" font-family="Helvetica,sans-Serif" font-size="10.00">padding_idx</text>
<text text-anchor="start" x="114" y="-141.5" font-family="Helvetica,sans-Serif" font-size="10.00">+</text>
<text text-anchor="start" x="132" y="-141.5" font-family="Helvetica,sans-Serif" font-size="10.00">vocab_size</text>
<text text-anchor="start" x="114" y="-126.5" font-family="Helvetica,sans-Serif" font-size="10.00">+</text>
<text text-anchor="start" x="132" y="-126.5" font-family="Helvetica,sans-Serif" font-size="10.00">embed_tokens</text>
<text text-anchor="start" x="114" y="-111.5" font-family="Helvetica,sans-Serif" font-size="10.00">+</text>
<text text-anchor="start" x="132" y="-111.5" font-family="Helvetica,sans-Serif" font-size="10.00">layers</text>
<text text-anchor="start" x="114" y="-96.5" font-family="Helvetica,sans-Serif" font-size="10.00">+</text>
<text text-anchor="start" x="132" y="-96.5" font-family="Helvetica,sans-Serif" font-size="10.00">norm</text>
<text text-anchor="start" x="114" y="-81.5" font-family="Helvetica,sans-Serif" font-size="10.00">+</text>
<text text-anchor="start" x="132" y="-81.5" font-family="Helvetica,sans-Serif" font-size="10.00">gradient_checkpointing</text>
<text text-anchor="start" x="114" y="-66.5" font-family="Helvetica,sans-Serif" font-size="10.00">#</text>
<text text-anchor="start" x="132" y="-66.5" font-family="Helvetica,sans-Serif" font-size="10.00">_use_flash_attention_2</text>
<text text-anchor="start" x="114" y="-51.5" font-family="Helvetica,sans-Serif" font-size="10.00">+</text>
<text text-anchor="start" x="132" y="-51.5" font-family="Helvetica,sans-Serif" font-size="10.00">__init__()</text>
<text text-anchor="start" x="114" y="-36.5" font-family="Helvetica,sans-Serif" font-size="10.00">+</text>
<text text-anchor="start" x="132" y="-36.5" font-family="Helvetica,sans-Serif" font-size="10.00">get_input_embeddings()</text>
<text text-anchor="start" x="114" y="-21.5" font-family="Helvetica,sans-Serif" font-size="10.00">+</text>
<text text-anchor="start" x="132" y="-21.5" font-family="Helvetica,sans-Serif" font-size="10.00">set_input_embeddings()</text>
<text text-anchor="start" x="114" y="-6.5" font-family="Helvetica,sans-Serif" font-size="10.00">+</text>
<text text-anchor="start" x="132" y="-6.5" font-family="Helvetica,sans-Serif" font-size="10.00">forward()</text>
<polygon fill="#666666" stroke="#666666" points="105,-166.5 105,-166.5 266,-166.5 266,-166.5 105,-166.5"/>
<polygon fill="#666666" stroke="#666666" points="105,-61.5 105,-61.5 130,-61.5 130,-61.5 105,-61.5"/>
<polygon fill="#666666" stroke="#666666" points="130,-61.5 130,-61.5 266,-61.5 266,-61.5 130,-61.5"/>
<polygon fill="none" stroke="#666666" points="104.5,0 104.5,-195 265.5,-195 265.5,0 104.5,0"/>
</a>
</g>
</g>
<!-- Node2 -->
<g id="Node000002" class="node">
<title>Node2</title>
<g id="a_Node000002"><a xlink:href="classmodeling__deepseek_1_1DeepseekV3PreTrainedModel.html" target="_top" xlink:title=" ">
<polygon fill="white" stroke="transparent" points="265.5,-292 104.5,-292 104.5,-232 265.5,-232 265.5,-292"/>
<text text-anchor="start" x="110" y="-280" font-family="Helvetica,sans-Serif" font-size="10.00">modeling_deepseek.Deepseek</text>
<text text-anchor="start" x="138.5" y="-269" font-family="Helvetica,sans-Serif" font-size="10.00">V3PreTrainedModel</text>
<text text-anchor="start" x="125.5" y="-254" font-family="Helvetica,sans-Serif" font-size="10.00">+</text>
<text text-anchor="start" x="155" y="-254" font-family="Helvetica,sans-Serif" font-size="10.00">config_class</text>
<text text-anchor="start" x="125.5" y="-239" font-family="Helvetica,sans-Serif" font-size="10.00">#</text>
<text text-anchor="start" x="155" y="-239" font-family="Helvetica,sans-Serif" font-size="10.00">_init_weights()</text>
<polygon fill="#666666" stroke="#666666" points="105,-264 105,-264 266,-264 266,-264 105,-264"/>
<polygon fill="#666666" stroke="#666666" points="105,-249 105,-249 153,-249 153,-249 105,-249"/>
<polygon fill="#666666" stroke="#666666" points="153,-249 153,-249 266,-249 266,-249 153,-249"/>
<polygon fill="none" stroke="#666666" points="104.5,-232 104.5,-292 265.5,-292 265.5,-232 104.5,-232"/>
</a>
</g>
</g>
<!-- Node2&#45;&gt;Node1 -->
<g id="edge1_Node000001_Node000002" class="edge">
<title>Node2&#45;&gt;Node1</title>
<g id="a_edge1_Node000001_Node000002"><a xlink:title=" ">
<path fill="none" stroke="#63b8ff" d="M185,-221.92C185,-213.64 185,-204.54 185,-195.16"/>
<polygon fill="none" stroke="#63b8ff" points="181.5,-221.95 185,-231.95 188.5,-221.95 181.5,-221.95"/>
</a>
</g>
</g>
<!-- Node3 -->
<g id="Node000003" class="node">
<title>Node3</title>
<g id="a_Node000003"><a xlink:title=" ">
<polygon fill="white" stroke="transparent" points="92,-432 0,-432 0,-383 92,-383 92,-432"/>
<text text-anchor="start" x="5" y="-419.5" font-family="Helvetica,sans-Serif" font-size="10.00">PreTrainedModel</text>
<text text-anchor="start" x="44" y="-404.5" font-family="Helvetica,sans-Serif" font-size="10.00"> </text>
<text text-anchor="start" x="44" y="-389.5" font-family="Helvetica,sans-Serif" font-size="10.00"> </text>
<polygon fill="#666666" stroke="#666666" points="0,-414.5 0,-414.5 92,-414.5 92,-414.5 0,-414.5"/>
<polygon fill="#666666" stroke="#666666" points="0,-399.5 0,-399.5 92,-399.5 92,-399.5 0,-399.5"/>
<polygon fill="none" stroke="#666666" points="0,-383 0,-432 92,-432 92,-383 0,-383"/>
</a>
</g>
</g>
<!-- Node3&#45;&gt;Node2 -->
<g id="edge2_Node000002_Node000003" class="edge">
<title>Node3&#45;&gt;Node2</title>
<g id="a_edge2_Node000002_Node000003"><a xlink:title=" ">
<path fill="none" stroke="#63b8ff" d="M63.35,-373.91C75.04,-353.93 91.8,-328.69 111,-310 117.54,-303.63 125.08,-297.66 132.8,-292.26"/>
<polygon fill="none" stroke="#63b8ff" points="60.26,-372.26 58.34,-382.68 66.34,-375.73 60.26,-372.26"/>
</a>
</g>
</g>
<!-- Node4 -->
<g id="Node000004" class="node">
<title>Node4</title>
<g id="a_Node000004"><a xlink:title=" ">
<polygon fill="white" stroke="transparent" points="133.5,-432 110.5,-432 110.5,-383 133.5,-383 133.5,-432"/>
<text text-anchor="start" x="116" y="-419.5" font-family="Helvetica,sans-Serif" font-size="10.00">str</text>
<text text-anchor="start" x="120.5" y="-404.5" font-family="Helvetica,sans-Serif" font-size="10.00"> </text>
<text text-anchor="start" x="120.5" y="-389.5" font-family="Helvetica,sans-Serif" font-size="10.00"> </text>
<polygon fill="#666666" stroke="#666666" points="111,-414.5 111,-414.5 134,-414.5 134,-414.5 111,-414.5"/>
<polygon fill="#666666" stroke="#666666" points="111,-399.5 111,-399.5 134,-399.5 134,-399.5 111,-399.5"/>
<polygon fill="none" stroke="#666666" points="110.5,-383 110.5,-432 133.5,-432 133.5,-383 110.5,-383"/>
</a>
</g>
</g>
<!-- Node4&#45;&gt;Node2 -->
<g id="edge3_Node000002_Node000004" class="edge">
<title>Node4&#45;&gt;Node2</title>
<g id="a_edge3_Node000002_Node000004"><a xlink:title=" ">
<path fill="none" stroke="#63b8ff" d="M116.69,-382.92C113.35,-362.5 111.55,-332.75 123,-310 124.57,-306.89 126.44,-303.93 128.56,-301.12"/>
<polygon fill="none" stroke="#63b8ff" points="128.56,-301.12 129.56,-293.98 136.53,-292.15 135.53,-299.29 128.56,-301.12"/>
</a>
</g>
<text text-anchor="start" x="123" y="-346" font-family="Helvetica,sans-Serif" font-size="10.00" fill="grey"> #_skip_keys_device</text>
<text text-anchor="middle" x="174.5" y="-335" font-family="Helvetica,sans-Serif" font-size="10.00" fill="grey">_placement</text>
<text text-anchor="middle" x="174.5" y="-324" font-family="Helvetica,sans-Serif" font-size="10.00" fill="grey">+base_model_prefix</text>
</g>
<!-- Node5 -->
<g id="Node000005" class="node">
<title>Node5</title>
<g id="a_Node000005"><a xlink:title=" ">
<polygon fill="white" stroke="transparent" points="264,-432 232,-432 232,-383 264,-383 264,-432"/>
<text text-anchor="start" x="237" y="-419.5" font-family="Helvetica,sans-Serif" font-size="10.00">bool</text>
<text text-anchor="start" x="246" y="-404.5" font-family="Helvetica,sans-Serif" font-size="10.00"> </text>
<text text-anchor="start" x="246" y="-389.5" font-family="Helvetica,sans-Serif" font-size="10.00"> </text>
<polygon fill="#666666" stroke="#666666" points="232,-414.5 232,-414.5 264,-414.5 264,-414.5 232,-414.5"/>
<polygon fill="#666666" stroke="#666666" points="232,-399.5 232,-399.5 264,-399.5 264,-399.5 232,-399.5"/>
<polygon fill="none" stroke="#666666" points="232,-383 232,-432 264,-432 264,-383 232,-383"/>
</a>
</g>
</g>
<!-- Node5&#45;&gt;Node2 -->
<g id="edge4_Node000002_Node000005" class="edge">
<title>Node5&#45;&gt;Node2</title>
<g id="a_edge4_Node000002_Node000005"><a xlink:title=" ">
<path fill="none" stroke="#63b8ff" d="M245.87,-382.79C243.31,-362.54 237.77,-333.12 226,-310 224.62,-307.3 223.06,-304.62 221.36,-302.01"/>
<polygon fill="none" stroke="#63b8ff" points="221.33,-301.95 214.57,-299.44 214.29,-292.23 221.05,-294.75 221.33,-301.95"/>
</a>
</g>
<text text-anchor="middle" x="303.5" y="-357" font-family="Helvetica,sans-Serif" font-size="10.00" fill="grey"> #_supports_cache_class</text>
<text text-anchor="start" x="242" y="-346" font-family="Helvetica,sans-Serif" font-size="10.00" fill="grey">#_supports_flash_attn</text>
<text text-anchor="middle" x="303.5" y="-335" font-family="Helvetica,sans-Serif" font-size="10.00" fill="grey">_2</text>
<text text-anchor="start" x="242" y="-324" font-family="Helvetica,sans-Serif" font-size="10.00" fill="grey">+supports_gradient</text>
<text text-anchor="middle" x="303.5" y="-313" font-family="Helvetica,sans-Serif" font-size="10.00" fill="grey">_checkpointing</text>
</g>
<!-- Node6 -->
<g id="Node000006" class="node">
<title>Node6</title>
<g id="a_Node000006"><a xlink:title=" ">
<polygon fill="white" stroke="transparent" points="407,-432 381,-432 381,-383 407,-383 407,-432"/>
<text text-anchor="start" x="386" y="-419.5" font-family="Helvetica,sans-Serif" font-size="10.00">list</text>
<text text-anchor="start" x="392" y="-404.5" font-family="Helvetica,sans-Serif" font-size="10.00"> </text>
<text text-anchor="start" x="392" y="-389.5" font-family="Helvetica,sans-Serif" font-size="10.00"> </text>
<polygon fill="#666666" stroke="#666666" points="381,-414.5 381,-414.5 407,-414.5 407,-414.5 381,-414.5"/>
<polygon fill="#666666" stroke="#666666" points="381,-399.5 381,-399.5 407,-399.5 407,-399.5 381,-399.5"/>
<polygon fill="none" stroke="#666666" points="381,-383 381,-432 407,-432 407,-383 381,-383"/>
</a>
</g>
</g>
<!-- Node6&#45;&gt;Node2 -->
<g id="edge5_Node000002_Node000006" class="edge">
<title>Node6&#45;&gt;Node2</title>
<g id="a_edge5_Node000002_Node000006"><a xlink:title=" ">
<path fill="none" stroke="#63b8ff" d="M394.31,-382.97C393.29,-361.13 388.25,-329.18 369,-310 355.46,-296.5 316.41,-285.59 277.75,-277.68"/>
<polygon fill="none" stroke="#63b8ff" points="277.56,-277.65 270.9,-280.41 265.79,-275.33 272.45,-272.56 277.56,-277.65"/>
</a>
</g>
<text text-anchor="middle" x="443.5" y="-335" font-family="Helvetica,sans-Serif" font-size="10.00" fill="grey"> #_no_split_modules</text>
</g>
</g>
</svg>

<g id="navigator" transform="translate(0 0)" fill="#404254">
  <rect fill="#f2f5e9" fill-opacity="0.5" stroke="#606060" stroke-width=".5" x="0" y="0" width="60" height="60"/>
  <use id="zoomplus" xlink:href="#zoomPlus" x="17" y="9" onmousedown="handleZoom(evt,'in')"/>
  <use id="zoomminus" xlink:href="#zoomMin" x="42" y="9" onmousedown="handleZoom(evt,'out')"/>
  <use id="reset" xlink:href="#resetDef" x="30" y="36" onmousedown="handleReset()"/>
   <use id="arrowup" xlink:href="#arrowUp" x="0" y="0" onmousedown="handlePan(0,-1)"/>
  <use id="arrowright" xlink:href="#arrowRight" x="0" y="0" onmousedown="handlePan(1,0)"/>
  <use id="arrowdown" xlink:href="#arrowDown" x="0" y="0" onmousedown="handlePan(0,1)"/>
  <use id="arrowleft" xlink:href="#arrowLeft" x="0" y="0" onmousedown="handlePan(-1,0)"/>
</g>
<svg viewBox="0 0 15 15" width="100%" height="30px" preserveAspectRatio="xMaxYMin meet">
 <g id="arrow_out" transform="scale(0.3 0.3)">
  <a xlink:href="classmodeling__deepseek_1_1DeepseekV3Model__coll__graph_org.svg" target="_base">
   <rect id="button" ry="5" rx="5" y="6" x="6" height="38" width="38"
        fill="#f2f5e9" fill-opacity="0.5" stroke="#606060" stroke-width="1.0"/>
   <path id="arrow"
     d="M 11.500037,31.436501 C 11.940474,20.09759 22.043105,11.32322 32.158766,21.979434 L 37.068811,17.246167 C 37.068811,17.246167 37.088388,32 37.088388,32 L 22.160133,31.978069 C 22.160133,31.978069 26.997745,27.140456 26.997745,27.140456 C 18.528582,18.264221 13.291696,25.230495 11.500037,31.436501 z"
     style="fill:#404040;"/>
  </a>
 </g>
</svg>

<style type='text/css'>
<![CDATA[
[data-mouse-over-selected='false'] { opacity: 0.7; }
[data-mouse-over-selected='true']  { opacity: 1.0; }
]]>
</style>
<script type="application/ecmascript"><![CDATA[
document.addEventListener('DOMContentLoaded', (event) => {
  highlightEdges();
  highlightAdjacentNodes();
});
]]></script>
</svg>
