<?xml version="1.0" encoding="UTF-8" standalone="no"?>
<!DOCTYPE svg PUBLIC "-//W3C//DTD SVG 1.1//EN"
 "http://www.w3.org/Graphics/SVG/1.1/DTD/svg11.dtd">
<!-- Generated by graphviz version 2.43.0 (0)
 -->
<!-- Title: modeling_deepseek.DeepseekV3YarnRotaryEmbedding Pages: 1 -->
<!--zoomable 455 -->

<svg id="main" version="1.1" xmlns="http://www.w3.org/2000/svg" xmlns:xlink="http://www.w3.org/1999/xlink" xml:space="preserve" onload="init(evt)">
<style type="text/css"><![CDATA[
.node, .edge {opacity: 0.7;}
.node.selected, .edge.selected {opacity: 1;}
.edge:hover path { stroke: red; }
.edge:hover polygon { stroke: red; fill: red; }
]]></style>

<defs>
  <circle id="rim" cx="0" cy="0" r="7"/>
  <circle id="rim2" cx="0" cy="0" r="3.5"/>
  <g id="zoomPlus">
    <use xlink:href="#rim" fill="#404040"><set attributeName="fill" to="#808080" begin="zoomplus.mouseover" end="zoomplus.mouseout"/></use>
    <path d="M-4,0h8M0,-4v8" fill="none" stroke="white" stroke-width="1.5" pointer-events="none"/>
  </g>
  <g id="zoomMin">
    <use xlink:href="#rim" fill="#404040"><set attributeName="fill" to="#808080" begin="zoomminus.mouseover" end="zoomminus.mouseout"/></use>
    <path d="M-4,0h8" fill="none" stroke="white" stroke-width="1.5" pointer-events="none"/>
  </g>
  <g id="arrowUp" transform="translate(30 24)">
    <use xlink:href="#rim"/>
    <path pointer-events="none" fill="none" stroke="white" stroke-width="1.5" d="M0,-3.0v7 M-2.5,-0.5L0,-3.0L2.5,-0.5"/>
  </g>
  <g id="arrowRight" transform="rotate(90) translate(36 -43)">
    <use xlink:href="#rim"/>
    <path pointer-events="none" fill="none" stroke="white" stroke-width="1.5" d="M0,-3.0v7 M-2.5,-0.5L0,-3.0L2.5,-0.5"/>
  </g>
  <g id="arrowDown" transform="rotate(180) translate(-30 -48)">
    <use xlink:href="#rim"/>
    <path pointer-events="none" fill="none" stroke="white" stroke-width="1.5" d="M0,-3.0v7 M-2.5,-0.5L0,-3.0L2.5,-0.5"/>
  </g>
  <g id="arrowLeft" transform="rotate(270) translate(-36 17)">
    <use xlink:href="#rim"/>
    <path pointer-events="none" fill="none" stroke="white" stroke-width="1.5" d="M0,-3.0v7 M-2.5,-0.5L0,-3.0L2.5,-0.5"/>
  </g>
  <g id="resetDef">
    <use xlink:href="#rim2" fill="#404040"><set attributeName="fill" to="#808080" begin="reset.mouseover" end="reset.mouseout"/></use>
  </g>
</defs>
<script type="application/ecmascript">
var viewWidth = 169;
var viewHeight = 455;
var sectionId = 'dynsection-0';
</script>
<script type="application/ecmascript" xlink:href="svg.min.js"/>
<svg id="graph" class="graph">
<g id="viewport">
<title>modeling_deepseek.DeepseekV3YarnRotaryEmbedding</title>
<!-- Node1 -->
<g id="Node000001" class="node">
<title>Node1</title>
<g id="a_Node000001"><a xlink:title=" ">
<polygon fill="#999999" stroke="transparent" points="161,-191 0,-191 0,0 161,0 161,-191"/>
<text text-anchor="start" x="5.5" y="-178.5" font-family="Helvetica,sans-Serif" font-size="10.00">modeling_deepseek.Deepseek</text>
<text text-anchor="start" x="20.5" y="-167.5" font-family="Helvetica,sans-Serif" font-size="10.00">V3YarnRotaryEmbedding</text>
<text text-anchor="start" x="12" y="-152.5" font-family="Helvetica,sans-Serif" font-size="10.00">+</text>
<text text-anchor="start" x="32.5" y="-152.5" font-family="Helvetica,sans-Serif" font-size="10.00">scaling_factor</text>
<text text-anchor="start" x="12" y="-137.5" font-family="Helvetica,sans-Serif" font-size="10.00">+</text>
<text text-anchor="start" x="32.5" y="-137.5" font-family="Helvetica,sans-Serif" font-size="10.00">original_max_position</text>
<text text-anchor="start" x="32.5" y="-126.5" font-family="Helvetica,sans-Serif" font-size="10.00">_embeddings</text>
<text text-anchor="start" x="12" y="-111.5" font-family="Helvetica,sans-Serif" font-size="10.00">+</text>
<text text-anchor="start" x="32.5" y="-111.5" font-family="Helvetica,sans-Serif" font-size="10.00">beta_fast</text>
<text text-anchor="start" x="12" y="-96.5" font-family="Helvetica,sans-Serif" font-size="10.00">+</text>
<text text-anchor="start" x="32.5" y="-96.5" font-family="Helvetica,sans-Serif" font-size="10.00">beta_slow</text>
<text text-anchor="start" x="12" y="-81.5" font-family="Helvetica,sans-Serif" font-size="10.00">+</text>
<text text-anchor="start" x="32.5" y="-81.5" font-family="Helvetica,sans-Serif" font-size="10.00">mscale</text>
<text text-anchor="start" x="12" y="-66.5" font-family="Helvetica,sans-Serif" font-size="10.00">+</text>
<text text-anchor="start" x="32.5" y="-66.5" font-family="Helvetica,sans-Serif" font-size="10.00">mscale_all_dim</text>
<text text-anchor="start" x="12" y="-51.5" font-family="Helvetica,sans-Serif" font-size="10.00">+</text>
<text text-anchor="start" x="32.5" y="-51.5" font-family="Helvetica,sans-Serif" font-size="10.00">max_seq_len_cached</text>
<text text-anchor="start" x="12" y="-36.5" font-family="Helvetica,sans-Serif" font-size="10.00">+</text>
<text text-anchor="start" x="32.5" y="-36.5" font-family="Helvetica,sans-Serif" font-size="10.00">base</text>
<text text-anchor="start" x="12" y="-21.5" font-family="Helvetica,sans-Serif" font-size="10.00">+</text>
<text text-anchor="start" x="32.5" y="-21.5" font-family="Helvetica,sans-Serif" font-size="10.00">__init__()</text>
<text text-anchor="start" x="12" y="-6.5" font-family="Helvetica,sans-Serif" font-size="10.00">#</text>
<text text-anchor="start" x="32.5" y="-6.5" font-family="Helvetica,sans-Serif" font-size="10.00">_set_cos_sin_cache()</text>
<polygon fill="#666666" stroke="#666666" points="0.5,-162.5 0.5,-162.5 161.5,-162.5 161.5,-162.5 0.5,-162.5"/>
<polygon fill="#666666" stroke="#666666" points="0.5,-31.5 0.5,-31.5 30.5,-31.5 30.5,-31.5 0.5,-31.5"/>
<polygon fill="#666666" stroke="#666666" points="30.5,-31.5 30.5,-31.5 161.5,-31.5 161.5,-31.5 30.5,-31.5"/>
<polygon fill="none" stroke="#666666" points="0,0 0,-191 161,-191 161,0 0,0"/>
</a>
</g>
</g>
<!-- Node2 -->
<g id="Node000002" class="node">
<title>Node2</title>
<g id="a_Node000002"><a xlink:href="classmodeling__deepseek_1_1DeepseekV3RotaryEmbedding.html" target="_top" xlink:title=" ">
<polygon fill="white" stroke="transparent" points="161,-362 0,-362 0,-227 161,-227 161,-362"/>
<text text-anchor="start" x="5.5" y="-349.5" font-family="Helvetica,sans-Serif" font-size="10.00">modeling_deepseek.Deepseek</text>
<text text-anchor="start" x="31" y="-338.5" font-family="Helvetica,sans-Serif" font-size="10.00">V3RotaryEmbedding</text>
<text text-anchor="start" x="6.5" y="-323.5" font-family="Helvetica,sans-Serif" font-size="10.00">+</text>
<text text-anchor="start" x="21.5" y="-323.5" font-family="Helvetica,sans-Serif" font-size="10.00">dim</text>
<text text-anchor="start" x="6.5" y="-308.5" font-family="Helvetica,sans-Serif" font-size="10.00">+</text>
<text text-anchor="start" x="21.5" y="-308.5" font-family="Helvetica,sans-Serif" font-size="10.00">max_position_embeddings</text>
<text text-anchor="start" x="6.5" y="-293.5" font-family="Helvetica,sans-Serif" font-size="10.00">+</text>
<text text-anchor="start" x="21.5" y="-293.5" font-family="Helvetica,sans-Serif" font-size="10.00">base</text>
<text text-anchor="start" x="6.5" y="-278.5" font-family="Helvetica,sans-Serif" font-size="10.00">+</text>
<text text-anchor="start" x="21.5" y="-278.5" font-family="Helvetica,sans-Serif" font-size="10.00">max_seq_len_cached</text>
<text text-anchor="start" x="6.5" y="-263.5" font-family="Helvetica,sans-Serif" font-size="10.00">+</text>
<text text-anchor="start" x="21.5" y="-263.5" font-family="Helvetica,sans-Serif" font-size="10.00">__init__()</text>
<text text-anchor="start" x="6.5" y="-248.5" font-family="Helvetica,sans-Serif" font-size="10.00">+</text>
<text text-anchor="start" x="21.5" y="-248.5" font-family="Helvetica,sans-Serif" font-size="10.00">forward()</text>
<text text-anchor="start" x="6.5" y="-233.5" font-family="Helvetica,sans-Serif" font-size="10.00">#</text>
<text text-anchor="start" x="21.5" y="-233.5" font-family="Helvetica,sans-Serif" font-size="10.00">_set_cos_sin_cache()</text>
<polygon fill="#666666" stroke="#666666" points="0.5,-333.5 0.5,-333.5 161.5,-333.5 161.5,-333.5 0.5,-333.5"/>
<polygon fill="#666666" stroke="#666666" points="0.5,-273.5 0.5,-273.5 19.5,-273.5 19.5,-273.5 0.5,-273.5"/>
<polygon fill="#666666" stroke="#666666" points="19.5,-273.5 19.5,-273.5 161.5,-273.5 161.5,-273.5 19.5,-273.5"/>
<polygon fill="none" stroke="#666666" points="0,-227 0,-362 161,-362 161,-227 0,-227"/>
</a>
</g>
</g>
<!-- Node2&#45;&gt;Node1 -->
<g id="edge1_Node000001_Node000002" class="edge">
<title>Node2&#45;&gt;Node1</title>
<g id="a_edge1_Node000001_Node000002"><a xlink:title=" ">
<path fill="none" stroke="#63b8ff" d="M80.5,-216.69C80.5,-208.29 80.5,-199.67 80.5,-191.1"/>
<polygon fill="none" stroke="#63b8ff" points="77,-216.8 80.5,-226.8 84,-216.8 77,-216.8"/>
</a>
</g>
</g>
<!-- Node3 -->
<g id="Node000003" class="node">
<title>Node3</title>
<g id="a_Node000003"><a xlink:title=" ">
<polygon fill="white" stroke="transparent" points="111.5,-447 49.5,-447 49.5,-398 111.5,-398 111.5,-447"/>
<text text-anchor="start" x="54.5" y="-434.5" font-family="Helvetica,sans-Serif" font-size="10.00">nn.Module</text>
<text text-anchor="start" x="78.5" y="-419.5" font-family="Helvetica,sans-Serif" font-size="10.00"> </text>
<text text-anchor="start" x="78.5" y="-404.5" font-family="Helvetica,sans-Serif" font-size="10.00"> </text>
<polygon fill="#666666" stroke="#666666" points="49.5,-429.5 49.5,-429.5 111.5,-429.5 111.5,-429.5 49.5,-429.5"/>
<polygon fill="#666666" stroke="#666666" points="49.5,-414.5 49.5,-414.5 111.5,-414.5 111.5,-414.5 49.5,-414.5"/>
<polygon fill="none" stroke="#666666" points="49.5,-398 49.5,-447 111.5,-447 111.5,-398 49.5,-398"/>
</a>
</g>
</g>
<!-- Node3&#45;&gt;Node2 -->
<g id="edge2_Node000002_Node000003" class="edge">
<title>Node3&#45;&gt;Node2</title>
<g id="a_edge2_Node000002_Node000003"><a xlink:title=" ">
<path fill="none" stroke="#63b8ff" d="M80.5,-387.56C80.5,-379.65 80.5,-370.96 80.5,-362.17"/>
<polygon fill="none" stroke="#63b8ff" points="77,-387.8 80.5,-397.8 84,-387.8 77,-387.8"/>
</a>
</g>
</g>
</g>
</svg>

<g id="navigator" transform="translate(0 0)" fill="#404254">
  <rect fill="#f2f5e9" fill-opacity="0.5" stroke="#606060" stroke-width=".5" x="0" y="0" width="60" height="60"/>
  <use id="zoomplus" xlink:href="#zoomPlus" x="17" y="9" onmousedown="handleZoom(evt,'in')"/>
  <use id="zoomminus" xlink:href="#zoomMin" x="42" y="9" onmousedown="handleZoom(evt,'out')"/>
  <use id="reset" xlink:href="#resetDef" x="30" y="36" onmousedown="handleReset()"/>
   <use id="arrowup" xlink:href="#arrowUp" x="0" y="0" onmousedown="handlePan(0,-1)"/>
  <use id="arrowright" xlink:href="#arrowRight" x="0" y="0" onmousedown="handlePan(1,0)"/>
  <use id="arrowdown" xlink:href="#arrowDown" x="0" y="0" onmousedown="handlePan(0,1)"/>
  <use id="arrowleft" xlink:href="#arrowLeft" x="0" y="0" onmousedown="handlePan(-1,0)"/>
</g>
<svg viewBox="0 0 15 15" width="100%" height="30px" preserveAspectRatio="xMaxYMin meet">
 <g id="arrow_out" transform="scale(0.3 0.3)">
  <a xlink:href="classmodeling__deepseek_1_1DeepseekV3YarnRotaryEmbedding__inherit__graph_org.svg" target="_base">
   <rect id="button" ry="5" rx="5" y="6" x="6" height="38" width="38"
        fill="#f2f5e9" fill-opacity="0.5" stroke="#606060" stroke-width="1.0"/>
   <path id="arrow"
     d="M 11.500037,31.436501 C 11.940474,20.09759 22.043105,11.32322 32.158766,21.979434 L 37.068811,17.246167 C 37.068811,17.246167 37.088388,32 37.088388,32 L 22.160133,31.978069 C 22.160133,31.978069 26.997745,27.140456 26.997745,27.140456 C 18.528582,18.264221 13.291696,25.230495 11.500037,31.436501 z"
     style="fill:#404040;"/>
  </a>
 </g>
</svg>

<style type='text/css'>
<![CDATA[
[data-mouse-over-selected='false'] { opacity: 0.7; }
[data-mouse-over-selected='true']  { opacity: 1.0; }
]]>
</style>
<script type="application/ecmascript"><![CDATA[
document.addEventListener('DOMContentLoaded', (event) => {
  highlightEdges();
  highlightAdjacentNodes();
});
]]></script>
</svg>
