<?xml version="1.0" encoding="UTF-8" standalone="no"?>
<!DOCTYPE svg PUBLIC "-//W3C//DTD SVG 1.1//EN"
 "http://www.w3.org/Graphics/SVG/1.1/DTD/svg11.dtd">
<!-- Generated by graphviz version 2.43.0 (0)
 -->
<!-- Title: modeling_deepseek.DeepseekV3PreTrainedModel Pages: 1 -->
<svg width="503pt" height="208pt"
 viewBox="0.00 0.00 503.00 208.00" xmlns="http://www.w3.org/2000/svg" xmlns:xlink="http://www.w3.org/1999/xlink">
<g id="graph0" class="graph" transform="scale(1 1) rotate(0) translate(4 204)">
<title>modeling_deepseek.DeepseekV3PreTrainedModel</title>
<!-- Node1 -->
<g id="Node000001" class="node">
<title>Node1</title>
<g id="a_Node000001"><a xlink:title=" ">
<polygon fill="#999999" stroke="transparent" points="265.5,-60 104.5,-60 104.5,0 265.5,0 265.5,-60"/>
<text text-anchor="start" x="110" y="-48" font-family="Helvetica,sans-Serif" font-size="10.00">modeling_deepseek.Deepseek</text>
<text text-anchor="start" x="138.5" y="-37" font-family="Helvetica,sans-Serif" font-size="10.00">V3PreTrainedModel</text>
<text text-anchor="start" x="125.5" y="-22" font-family="Helvetica,sans-Serif" font-size="10.00">+</text>
<text text-anchor="start" x="155" y="-22" font-family="Helvetica,sans-Serif" font-size="10.00">config_class</text>
<text text-anchor="start" x="125.5" y="-7" font-family="Helvetica,sans-Serif" font-size="10.00">#</text>
<text text-anchor="start" x="155" y="-7" font-family="Helvetica,sans-Serif" font-size="10.00">_init_weights()</text>
<polygon fill="#666666" stroke="#666666" points="105,-32 105,-32 266,-32 266,-32 105,-32"/>
<polygon fill="#666666" stroke="#666666" points="105,-17 105,-17 153,-17 153,-17 105,-17"/>
<polygon fill="#666666" stroke="#666666" points="153,-17 153,-17 266,-17 266,-17 153,-17"/>
<polygon fill="none" stroke="#666666" points="104.5,0 104.5,-60 265.5,-60 265.5,0 104.5,0"/>
</a>
</g>
</g>
<!-- Node2 -->
<g id="Node000002" class="node">
<title>Node2</title>
<g id="a_Node000002"><a xlink:title=" ">
<polygon fill="white" stroke="transparent" points="92,-200 0,-200 0,-151 92,-151 92,-200"/>
<text text-anchor="start" x="5" y="-187.5" font-family="Helvetica,sans-Serif" font-size="10.00">PreTrainedModel</text>
<text text-anchor="start" x="44" y="-172.5" font-family="Helvetica,sans-Serif" font-size="10.00"> </text>
<text text-anchor="start" x="44" y="-157.5" font-family="Helvetica,sans-Serif" font-size="10.00"> </text>
<polygon fill="#666666" stroke="#666666" points="0,-182.5 0,-182.5 92,-182.5 92,-182.5 0,-182.5"/>
<polygon fill="#666666" stroke="#666666" points="0,-167.5 0,-167.5 92,-167.5 92,-167.5 0,-167.5"/>
<polygon fill="none" stroke="#666666" points="0,-151 0,-200 92,-200 92,-151 0,-151"/>
</a>
</g>
</g>
<!-- Node2&#45;&gt;Node1 -->
<g id="edge1_Node000001_Node000002" class="edge">
<title>Node2&#45;&gt;Node1</title>
<g id="a_edge1_Node000001_Node000002"><a xlink:title=" ">
<path fill="none" stroke="#63b8ff" d="M63.35,-141.91C75.04,-121.93 91.8,-96.69 111,-78 117.54,-71.63 125.08,-65.66 132.8,-60.26"/>
<polygon fill="none" stroke="#63b8ff" points="60.26,-140.26 58.34,-150.68 66.34,-143.73 60.26,-140.26"/>
</a>
</g>
</g>
<!-- Node3 -->
<g id="Node000003" class="node">
<title>Node3</title>
<g id="a_Node000003"><a xlink:title=" ">
<polygon fill="white" stroke="transparent" points="133.5,-200 110.5,-200 110.5,-151 133.5,-151 133.5,-200"/>
<text text-anchor="start" x="116" y="-187.5" font-family="Helvetica,sans-Serif" font-size="10.00">str</text>
<text text-anchor="start" x="120.5" y="-172.5" font-family="Helvetica,sans-Serif" font-size="10.00"> </text>
<text text-anchor="start" x="120.5" y="-157.5" font-family="Helvetica,sans-Serif" font-size="10.00"> </text>
<polygon fill="#666666" stroke="#666666" points="111,-182.5 111,-182.5 134,-182.5 134,-182.5 111,-182.5"/>
<polygon fill="#666666" stroke="#666666" points="111,-167.5 111,-167.5 134,-167.5 134,-167.5 111,-167.5"/>
<polygon fill="none" stroke="#666666" points="110.5,-151 110.5,-200 133.5,-200 133.5,-151 110.5,-151"/>
</a>
</g>
</g>
<!-- Node3&#45;&gt;Node1 -->
<g id="edge2_Node000001_Node000003" class="edge">
<title>Node3&#45;&gt;Node1</title>
<g id="a_edge2_Node000001_Node000003"><a xlink:title=" ">
<path fill="none" stroke="#63b8ff" d="M116.69,-150.92C113.35,-130.5 111.55,-100.75 123,-78 124.57,-74.89 126.44,-71.93 128.56,-69.12"/>
<polygon fill="none" stroke="#63b8ff" points="128.56,-69.12 129.56,-61.98 136.53,-60.15 135.53,-67.29 128.56,-69.12"/>
</a>
</g>
<text text-anchor="start" x="123" y="-114" font-family="Helvetica,sans-Serif" font-size="10.00" fill="grey"> #_skip_keys_device</text>
<text text-anchor="middle" x="174.5" y="-103" font-family="Helvetica,sans-Serif" font-size="10.00" fill="grey">_placement</text>
<text text-anchor="middle" x="174.5" y="-92" font-family="Helvetica,sans-Serif" font-size="10.00" fill="grey">+base_model_prefix</text>
</g>
<!-- Node4 -->
<g id="Node000004" class="node">
<title>Node4</title>
<g id="a_Node000004"><a xlink:title=" ">
<polygon fill="white" stroke="transparent" points="264,-200 232,-200 232,-151 264,-151 264,-200"/>
<text text-anchor="start" x="237" y="-187.5" font-family="Helvetica,sans-Serif" font-size="10.00">bool</text>
<text text-anchor="start" x="246" y="-172.5" font-family="Helvetica,sans-Serif" font-size="10.00"> </text>
<text text-anchor="start" x="246" y="-157.5" font-family="Helvetica,sans-Serif" font-size="10.00"> </text>
<polygon fill="#666666" stroke="#666666" points="232,-182.5 232,-182.5 264,-182.5 264,-182.5 232,-182.5"/>
<polygon fill="#666666" stroke="#666666" points="232,-167.5 232,-167.5 264,-167.5 264,-167.5 232,-167.5"/>
<polygon fill="none" stroke="#666666" points="232,-151 232,-200 264,-200 264,-151 232,-151"/>
</a>
</g>
</g>
<!-- Node4&#45;&gt;Node1 -->
<g id="edge3_Node000001_Node000004" class="edge">
<title>Node4&#45;&gt;Node1</title>
<g id="a_edge3_Node000001_Node000004"><a xlink:title=" ">
<path fill="none" stroke="#63b8ff" d="M245.87,-150.79C243.31,-130.54 237.77,-101.12 226,-78 224.62,-75.3 223.06,-72.62 221.36,-70.01"/>
<polygon fill="none" stroke="#63b8ff" points="221.33,-69.95 214.57,-67.44 214.29,-60.23 221.05,-62.75 221.33,-69.95"/>
</a>
</g>
<text text-anchor="middle" x="303.5" y="-125" font-family="Helvetica,sans-Serif" font-size="10.00" fill="grey"> #_supports_cache_class</text>
<text text-anchor="start" x="242" y="-114" font-family="Helvetica,sans-Serif" font-size="10.00" fill="grey">#_supports_flash_attn</text>
<text text-anchor="middle" x="303.5" y="-103" font-family="Helvetica,sans-Serif" font-size="10.00" fill="grey">_2</text>
<text text-anchor="start" x="242" y="-92" font-family="Helvetica,sans-Serif" font-size="10.00" fill="grey">+supports_gradient</text>
<text text-anchor="middle" x="303.5" y="-81" font-family="Helvetica,sans-Serif" font-size="10.00" fill="grey">_checkpointing</text>
</g>
<!-- Node5 -->
<g id="Node000005" class="node">
<title>Node5</title>
<g id="a_Node000005"><a xlink:title=" ">
<polygon fill="white" stroke="transparent" points="407,-200 381,-200 381,-151 407,-151 407,-200"/>
<text text-anchor="start" x="386" y="-187.5" font-family="Helvetica,sans-Serif" font-size="10.00">list</text>
<text text-anchor="start" x="392" y="-172.5" font-family="Helvetica,sans-Serif" font-size="10.00"> </text>
<text text-anchor="start" x="392" y="-157.5" font-family="Helvetica,sans-Serif" font-size="10.00"> </text>
<polygon fill="#666666" stroke="#666666" points="381,-182.5 381,-182.5 407,-182.5 407,-182.5 381,-182.5"/>
<polygon fill="#666666" stroke="#666666" points="381,-167.5 381,-167.5 407,-167.5 407,-167.5 381,-167.5"/>
<polygon fill="none" stroke="#666666" points="381,-151 381,-200 407,-200 407,-151 381,-151"/>
</a>
</g>
</g>
<!-- Node5&#45;&gt;Node1 -->
<g id="edge4_Node000001_Node000005" class="edge">
<title>Node5&#45;&gt;Node1</title>
<g id="a_edge4_Node000001_Node000005"><a xlink:title=" ">
<path fill="none" stroke="#63b8ff" d="M394.31,-150.97C393.29,-129.13 388.25,-97.18 369,-78 355.46,-64.5 316.41,-53.59 277.75,-45.68"/>
<polygon fill="none" stroke="#63b8ff" points="277.56,-45.65 270.9,-48.41 265.79,-43.33 272.45,-40.56 277.56,-45.65"/>
</a>
</g>
<text text-anchor="middle" x="443.5" y="-103" font-family="Helvetica,sans-Serif" font-size="10.00" fill="grey"> #_no_split_modules</text>
</g>
</g>
</svg>
