<?xml version="1.0" encoding="UTF-8" standalone="no"?>
<!DOCTYPE svg PUBLIC "-//W3C//DTD SVG 1.1//EN"
 "http://www.w3.org/Graphics/SVG/1.1/DTD/svg11.dtd">
<!-- Generated by graphviz version 2.43.0 (0)
 -->
<!-- Title: Graphical Class Hierarchy Pages: 1 -->
<svg width="530pt" height="326pt"
 viewBox="0.00 0.00 530.00 326.00" xmlns="http://www.w3.org/2000/svg" xmlns:xlink="http://www.w3.org/1999/xlink">
<g id="graph0" class="graph" transform="scale(1 1) rotate(0) translate(4 322)">
<title>Graphical Class Hierarchy</title>
<!-- Node0 -->
<g id="Node000000" class="node">
<title>Node0</title>
<g id="a_Node000000"><a xlink:title=" ">
<polygon fill="#e0e0e0" stroke="#999999" points="68,-168.5 0,-168.5 0,-149.5 68,-149.5 68,-168.5"/>
<text text-anchor="middle" x="34" y="-156.5" font-family="Helvetica,sans-Serif" font-size="10.00">nn.Module</text>
</a>
</g>
</g>
<!-- Node1 -->
<g id="Node000001" class="node">
<title>Node1</title>
<g id="a_Node000001"><a xlink:href="classmodeling__deepseek_1_1DeepseekV3Attention.html" target="_top" xlink:title=" ">
<polygon fill="white" stroke="#666666" points="271,-318 104,-318 104,-288 271,-288 271,-318"/>
<text text-anchor="start" x="112" y="-306" font-family="Helvetica,sans-Serif" font-size="10.00">modeling_deepseek.Deepseek</text>
<text text-anchor="middle" x="187.5" y="-295" font-family="Helvetica,sans-Serif" font-size="10.00">V3Attention</text>
</a>
</g>
</g>
<!-- Node0&#45;&gt;Node1 -->
<g id="edge1_Node000000_Node000001" class="edge">
<title>Node0&#45;&gt;Node1</title>
<g id="a_edge1_Node000000_Node000001"><a xlink:title=" ">
<path fill="none" stroke="#63b8ff" d="M41.02,-178.48C50.25,-205.13 70.45,-252.64 104,-279 108.34,-282.41 113.15,-285.34 118.2,-287.85"/>
<polygon fill="#63b8ff" stroke="#63b8ff" points="44.27,-177.17 37.82,-168.76 37.62,-179.35 44.27,-177.17"/>
</a>
</g>
</g>
<!-- Node3 -->
<g id="Node000003" class="node">
<title>Node3</title>
<g id="a_Node000003"><a xlink:href="classmodeling__deepseek_1_1DeepseekV3DecoderLayer.html" target="_top" xlink:title=" ">
<polygon fill="white" stroke="#666666" points="271,-270 104,-270 104,-240 271,-240 271,-270"/>
<text text-anchor="start" x="112" y="-258" font-family="Helvetica,sans-Serif" font-size="10.00">modeling_deepseek.Deepseek</text>
<text text-anchor="middle" x="187.5" y="-247" font-family="Helvetica,sans-Serif" font-size="10.00">V3DecoderLayer</text>
</a>
</g>
</g>
<!-- Node0&#45;&gt;Node3 -->
<g id="edge3_Node000000_Node000003" class="edge">
<title>Node0&#45;&gt;Node3</title>
<g id="a_edge3_Node000000_Node000003"><a xlink:title=" ">
<path fill="none" stroke="#63b8ff" d="M47.97,-177.2C60.53,-193.55 81.01,-217.07 104,-231 109.61,-234.4 115.73,-237.34 122.02,-239.88"/>
<polygon fill="#63b8ff" stroke="#63b8ff" points="50.62,-174.9 41.84,-168.96 45,-179.08 50.62,-174.9"/>
</a>
</g>
</g>
<!-- Node4 -->
<g id="Node000004" class="node">
<title>Node4</title>
<g id="a_Node000004"><a xlink:href="classmodeling__deepseek_1_1DeepseekV3MLP.html" target="_top" xlink:title=" ">
<polygon fill="white" stroke="#666666" points="271,-222 104,-222 104,-192 271,-192 271,-222"/>
<text text-anchor="start" x="112" y="-210" font-family="Helvetica,sans-Serif" font-size="10.00">modeling_deepseek.Deepseek</text>
<text text-anchor="middle" x="187.5" y="-199" font-family="Helvetica,sans-Serif" font-size="10.00">V3MLP</text>
</a>
</g>
</g>
<!-- Node0&#45;&gt;Node4 -->
<g id="edge4_Node000000_Node000004" class="edge">
<title>Node0&#45;&gt;Node4</title>
<g id="a_edge4_Node000000_Node000004"><a xlink:title=" ">
<path fill="none" stroke="#63b8ff" d="M71.17,-171.98C81.72,-175.65 93.29,-179.58 104,-183 113.38,-185.99 123.41,-189.04 133.12,-191.91"/>
<polygon fill="#63b8ff" stroke="#63b8ff" points="72.03,-168.57 61.43,-168.55 69.71,-175.17 72.03,-168.57"/>
</a>
</g>
</g>
<!-- Node5 -->
<g id="Node000005" class="node">
<title>Node5</title>
<g id="a_Node000005"><a xlink:href="classmodeling__deepseek_1_1DeepseekV3MoE.html" target="_top" xlink:title=" ">
<polygon fill="white" stroke="#666666" points="271,-174 104,-174 104,-144 271,-144 271,-174"/>
<text text-anchor="start" x="112" y="-162" font-family="Helvetica,sans-Serif" font-size="10.00">modeling_deepseek.Deepseek</text>
<text text-anchor="middle" x="187.5" y="-151" font-family="Helvetica,sans-Serif" font-size="10.00">V3MoE</text>
</a>
</g>
</g>
<!-- Node0&#45;&gt;Node5 -->
<g id="edge5_Node000000_Node000005" class="edge">
<title>Node0&#45;&gt;Node5</title>
<g id="a_edge5_Node000000_Node000005"><a xlink:title=" ">
<path fill="none" stroke="#63b8ff" d="M78.47,-159C86.54,-159 95.2,-159 104,-159"/>
<polygon fill="#63b8ff" stroke="#63b8ff" points="78.25,-155.5 68.25,-159 78.25,-162.5 78.25,-155.5"/>
</a>
</g>
</g>
<!-- Node6 -->
<g id="Node000006" class="node">
<title>Node6</title>
<g id="a_Node000006"><a xlink:href="classmodeling__deepseek_1_1DeepseekV3RMSNorm.html" target="_top" xlink:title=" ">
<polygon fill="white" stroke="#666666" points="271,-126 104,-126 104,-96 271,-96 271,-126"/>
<text text-anchor="start" x="112" y="-114" font-family="Helvetica,sans-Serif" font-size="10.00">modeling_deepseek.Deepseek</text>
<text text-anchor="middle" x="187.5" y="-103" font-family="Helvetica,sans-Serif" font-size="10.00">V3RMSNorm</text>
</a>
</g>
</g>
<!-- Node0&#45;&gt;Node6 -->
<g id="edge6_Node000000_Node000006" class="edge">
<title>Node0&#45;&gt;Node6</title>
<g id="a_edge6_Node000000_Node000006"><a xlink:title=" ">
<path fill="none" stroke="#63b8ff" d="M71.17,-146.02C81.72,-142.35 93.29,-138.42 104,-135 113.38,-132.01 123.41,-128.96 133.12,-126.09"/>
<polygon fill="#63b8ff" stroke="#63b8ff" points="69.71,-142.83 61.43,-149.45 72.03,-149.43 69.71,-142.83"/>
</a>
</g>
</g>
<!-- Node7 -->
<g id="Node000007" class="node">
<title>Node7</title>
<g id="a_Node000007"><a xlink:href="classmodeling__deepseek_1_1DeepseekV3RotaryEmbedding.html" target="_top" xlink:title=" ">
<polygon fill="white" stroke="#666666" points="271,-78 104,-78 104,-48 271,-48 271,-78"/>
<text text-anchor="start" x="112" y="-66" font-family="Helvetica,sans-Serif" font-size="10.00">modeling_deepseek.Deepseek</text>
<text text-anchor="middle" x="187.5" y="-55" font-family="Helvetica,sans-Serif" font-size="10.00">V3RotaryEmbedding</text>
</a>
</g>
</g>
<!-- Node0&#45;&gt;Node7 -->
<g id="edge7_Node000000_Node000007" class="edge">
<title>Node0&#45;&gt;Node7</title>
<g id="a_edge7_Node000000_Node000007"><a xlink:title=" ">
<path fill="none" stroke="#63b8ff" d="M47.97,-140.8C60.53,-124.45 81.01,-100.93 104,-87 109.61,-83.6 115.73,-80.66 122.02,-78.12"/>
<polygon fill="#63b8ff" stroke="#63b8ff" points="45,-138.92 41.84,-149.04 50.62,-143.1 45,-138.92"/>
</a>
</g>
</g>
<!-- Node11 -->
<g id="Node000011" class="node">
<title>Node11</title>
<g id="a_Node000011"><a xlink:href="classmodeling__deepseek_1_1MoEGate.html" target="_top" xlink:title=" ">
<polygon fill="white" stroke="#666666" points="268.5,-29.5 106.5,-29.5 106.5,-10.5 268.5,-10.5 268.5,-29.5"/>
<text text-anchor="middle" x="187.5" y="-17.5" font-family="Helvetica,sans-Serif" font-size="10.00">modeling_deepseek.MoEGate</text>
</a>
</g>
</g>
<!-- Node0&#45;&gt;Node11 -->
<g id="edge11_Node000000_Node000011" class="edge">
<title>Node0&#45;&gt;Node11</title>
<g id="a_edge11_Node000000_Node000011"><a xlink:title=" ">
<path fill="none" stroke="#63b8ff" d="M40.68,-139.65C49.6,-112.76 69.55,-64.53 104,-39 109.2,-35.15 115.04,-32.06 121.16,-29.59"/>
<polygon fill="#63b8ff" stroke="#63b8ff" points="37.26,-138.84 37.61,-149.43 43.94,-140.94 37.26,-138.84"/>
</a>
</g>
</g>
<!-- Node2 -->
<g id="Node000002" class="node">
<title>Node2</title>
<g id="a_Node000002"><a xlink:href="classmodeling__deepseek_1_1DeepseekV3FlashAttention2.html" target="_top" xlink:title=" ">
<polygon fill="white" stroke="#666666" points="498,-318 331,-318 331,-288 498,-288 498,-318"/>
<text text-anchor="start" x="339" y="-306" font-family="Helvetica,sans-Serif" font-size="10.00">modeling_deepseek.Deepseek</text>
<text text-anchor="middle" x="414.5" y="-295" font-family="Helvetica,sans-Serif" font-size="10.00">V3FlashAttention2</text>
</a>
</g>
</g>
<!-- Node1&#45;&gt;Node2 -->
<g id="edge2_Node000001_Node000002" class="edge">
<title>Node1&#45;&gt;Node2</title>
<g id="a_edge2_Node000001_Node000002"><a xlink:title=" ">
<path fill="none" stroke="#63b8ff" d="M281.13,-303C297.53,-303 314.52,-303 330.63,-303"/>
<polygon fill="#63b8ff" stroke="#63b8ff" points="281,-299.5 271,-303 281,-306.5 281,-299.5"/>
</a>
</g>
</g>
<!-- Node8 -->
<g id="Node000008" class="node">
<title>Node8</title>
<g id="a_Node000008"><a xlink:href="classmodeling__deepseek_1_1DeepseekV3DynamicNTKScalingRotaryEmbedding.html" target="_top" xlink:title=" ">
<polygon fill="white" stroke="#666666" points="522,-126 307,-126 307,-96 522,-96 522,-126"/>
<text text-anchor="start" x="315" y="-114" font-family="Helvetica,sans-Serif" font-size="10.00">modeling_deepseek.Deepseek</text>
<text text-anchor="middle" x="414.5" y="-103" font-family="Helvetica,sans-Serif" font-size="10.00">V3DynamicNTKScalingRotaryEmbedding</text>
</a>
</g>
</g>
<!-- Node7&#45;&gt;Node8 -->
<g id="edge8_Node000007_Node000008" class="edge">
<title>Node7&#45;&gt;Node8</title>
<g id="a_edge8_Node000007_Node000008"><a xlink:title=" ">
<path fill="none" stroke="#63b8ff" d="M268.96,-80.17C293.22,-85.34 319.64,-90.98 343.18,-96"/>
<polygon fill="#63b8ff" stroke="#63b8ff" points="269.58,-76.72 259.07,-78.06 268.12,-83.57 269.58,-76.72"/>
</a>
</g>
</g>
<!-- Node9 -->
<g id="Node000009" class="node">
<title>Node9</title>
<g id="a_Node000009"><a xlink:href="classmodeling__deepseek_1_1DeepseekV3LinearScalingRotaryEmbedding.html" target="_top" xlink:title=" ">
<polygon fill="white" stroke="#666666" points="505.5,-78 323.5,-78 323.5,-48 505.5,-48 505.5,-78"/>
<text text-anchor="start" x="331.5" y="-66" font-family="Helvetica,sans-Serif" font-size="10.00">modeling_deepseek.Deepseek</text>
<text text-anchor="middle" x="414.5" y="-55" font-family="Helvetica,sans-Serif" font-size="10.00">V3LinearScalingRotaryEmbedding</text>
</a>
</g>
</g>
<!-- Node7&#45;&gt;Node9 -->
<g id="edge9_Node000007_Node000009" class="edge">
<title>Node7&#45;&gt;Node9</title>
<g id="a_edge9_Node000007_Node000009"><a xlink:title=" ">
<path fill="none" stroke="#63b8ff" d="M281.1,-63C295.08,-63 309.49,-63 323.42,-63"/>
<polygon fill="#63b8ff" stroke="#63b8ff" points="281,-59.5 271,-63 281,-66.5 281,-59.5"/>
</a>
</g>
</g>
<!-- Node10 -->
<g id="Node000010" class="node">
<title>Node10</title>
<g id="a_Node000010"><a xlink:href="classmodeling__deepseek_1_1DeepseekV3YarnRotaryEmbedding.html" target="_top" xlink:title=" ">
<polygon fill="white" stroke="#666666" points="498,-30 331,-30 331,0 498,0 498,-30"/>
<text text-anchor="start" x="339" y="-18" font-family="Helvetica,sans-Serif" font-size="10.00">modeling_deepseek.Deepseek</text>
<text text-anchor="middle" x="414.5" y="-7" font-family="Helvetica,sans-Serif" font-size="10.00">V3YarnRotaryEmbedding</text>
</a>
</g>
</g>
<!-- Node7&#45;&gt;Node10 -->
<g id="edge10_Node000007_Node000010" class="edge">
<title>Node7&#45;&gt;Node10</title>
<g id="a_edge10_Node000007_Node000010"><a xlink:title=" ">
<path fill="none" stroke="#63b8ff" d="M268.96,-45.83C293.22,-40.66 319.64,-35.02 343.18,-30"/>
<polygon fill="#63b8ff" stroke="#63b8ff" points="268.12,-42.43 259.07,-47.94 269.58,-49.28 268.12,-42.43"/>
</a>
</g>
</g>
</g>
</svg>
