<?xml version="1.0" encoding="UTF-8" standalone="no"?>
<!DOCTYPE svg PUBLIC "-//W3C//DTD SVG 1.1//EN"
 "http://www.w3.org/Graphics/SVG/1.1/DTD/svg11.dtd">
<!-- Generated by graphviz version 2.43.0 (0)
 -->
<!-- Title: Graphical Class Hierarchy Pages: 1 -->
<svg width="512pt" height="134pt"
 viewBox="0.00 0.00 512.00 134.00" xmlns="http://www.w3.org/2000/svg" xmlns:xlink="http://www.w3.org/1999/xlink">
<g id="graph0" class="graph" transform="scale(1 1) rotate(0) translate(4 130)">
<title>Graphical Class Hierarchy</title>
<!-- Node0 -->
<g id="Node000000" class="node">
<title>Node0</title>
<g id="a_Node000000"><a xlink:title=" ">
<polygon fill="#e0e0e0" stroke="#999999" points="98,-72.5 0,-72.5 0,-53.5 98,-53.5 98,-72.5"/>
<text text-anchor="middle" x="49" y="-60.5" font-family="Helvetica,sans-Serif" font-size="10.00">PreTrainedModel</text>
</a>
</g>
</g>
<!-- Node1 -->
<g id="Node000001" class="node">
<title>Node1</title>
<g id="a_Node000001"><a xlink:href="classmodeling__deepseek_1_1DeepseekV3PreTrainedModel.html" target="_top" xlink:title=" ">
<polygon fill="white" stroke="#666666" points="301,-78 134,-78 134,-48 301,-48 301,-78"/>
<text text-anchor="start" x="142" y="-66" font-family="Helvetica,sans-Serif" font-size="10.00">modeling_deepseek.Deepseek</text>
<text text-anchor="middle" x="217.5" y="-55" font-family="Helvetica,sans-Serif" font-size="10.00">V3PreTrainedModel</text>
</a>
</g>
</g>
<!-- Node0&#45;&gt;Node1 -->
<g id="edge12_Node000000_Node000001" class="edge">
<title>Node0&#45;&gt;Node1</title>
<g id="a_edge12_Node000000_Node000001"><a xlink:title=" ">
<path fill="none" stroke="#63b8ff" d="M108.41,-63C116.69,-63 125.32,-63 133.94,-63"/>
<polygon fill="#63b8ff" stroke="#63b8ff" points="108.16,-59.5 98.16,-63 108.16,-66.5 108.16,-59.5"/>
</a>
</g>
</g>
<!-- Node2 -->
<g id="Node000002" class="node">
<title>Node2</title>
<g id="a_Node000002"><a xlink:href="classmodeling__deepseek_1_1DeepseekV3ForCausalLM.html" target="_top" xlink:title=" ">
<polygon fill="white" stroke="#666666" points="504,-126 337,-126 337,-96 504,-96 504,-126"/>
<text text-anchor="start" x="345" y="-114" font-family="Helvetica,sans-Serif" font-size="10.00">modeling_deepseek.Deepseek</text>
<text text-anchor="middle" x="420.5" y="-103" font-family="Helvetica,sans-Serif" font-size="10.00">V3ForCausalLM</text>
</a>
</g>
</g>
<!-- Node1&#45;&gt;Node2 -->
<g id="edge13_Node000001_Node000002" class="edge">
<title>Node1&#45;&gt;Node2</title>
<g id="a_edge13_Node000001_Node000002"><a xlink:title=" ">
<path fill="none" stroke="#63b8ff" d="M291.54,-80.44C312.88,-85.54 336.02,-91.07 356.68,-96"/>
<polygon fill="#63b8ff" stroke="#63b8ff" points="292.09,-76.97 281.55,-78.06 290.46,-83.78 292.09,-76.97"/>
</a>
</g>
</g>
<!-- Node3 -->
<g id="Node000003" class="node">
<title>Node3</title>
<g id="a_Node000003"><a xlink:href="classmodeling__deepseek_1_1DeepseekV3ForSequenceClassification.html" target="_top" xlink:title=" ">
<polygon fill="white" stroke="#666666" points="504,-78 337,-78 337,-48 504,-48 504,-78"/>
<text text-anchor="start" x="345" y="-66" font-family="Helvetica,sans-Serif" font-size="10.00">modeling_deepseek.Deepseek</text>
<text text-anchor="middle" x="420.5" y="-55" font-family="Helvetica,sans-Serif" font-size="10.00">V3ForSequenceClassification</text>
</a>
</g>
</g>
<!-- Node1&#45;&gt;Node3 -->
<g id="edge14_Node000001_Node000003" class="edge">
<title>Node1&#45;&gt;Node3</title>
<g id="a_edge14_Node000001_Node000003"><a xlink:title=" ">
<path fill="none" stroke="#63b8ff" d="M311.15,-63C319.73,-63 328.39,-63 336.87,-63"/>
<polygon fill="#63b8ff" stroke="#63b8ff" points="311.12,-59.5 301.12,-63 311.12,-66.5 311.12,-59.5"/>
</a>
</g>
</g>
<!-- Node4 -->
<g id="Node000004" class="node">
<title>Node4</title>
<g id="a_Node000004"><a xlink:href="classmodeling__deepseek_1_1DeepseekV3Model.html" target="_top" xlink:title=" ">
<polygon fill="white" stroke="#666666" points="504,-30 337,-30 337,0 504,0 504,-30"/>
<text text-anchor="start" x="345" y="-18" font-family="Helvetica,sans-Serif" font-size="10.00">modeling_deepseek.Deepseek</text>
<text text-anchor="middle" x="420.5" y="-7" font-family="Helvetica,sans-Serif" font-size="10.00">V3Model</text>
</a>
</g>
</g>
<!-- Node1&#45;&gt;Node4 -->
<g id="edge15_Node000001_Node000004" class="edge">
<title>Node1&#45;&gt;Node4</title>
<g id="a_edge15_Node000001_Node000004"><a xlink:title=" ">
<path fill="none" stroke="#63b8ff" d="M291.54,-45.56C312.88,-40.46 336.02,-34.93 356.68,-30"/>
<polygon fill="#63b8ff" stroke="#63b8ff" points="290.46,-42.22 281.55,-47.94 292.09,-49.03 290.46,-42.22"/>
</a>
</g>
</g>
</g>
</svg>
