<?xml version="1.0" encoding="UTF-8" standalone="no"?>
<!DOCTYPE svg PUBLIC "-//W3C//DTD SVG 1.1//EN"
 "http://www.w3.org/Graphics/SVG/1.1/DTD/svg11.dtd">
<!-- Generated by graphviz version 2.43.0 (0)
 -->
<!-- Title: modeling_deepseek.DeepseekV3RotaryEmbedding.forward Pages: 1 -->
<svg width="429pt" height="226pt"
 viewBox="0.00 0.00 429.00 226.00" xmlns="http://www.w3.org/2000/svg" xmlns:xlink="http://www.w3.org/1999/xlink">
<g id="graph0" class="graph" transform="scale(1 1) rotate(0) translate(4 222)">
<title>modeling_deepseek.DeepseekV3RotaryEmbedding.forward</title>
<!-- Node1 -->
<g id="Node000001" class="node">
<title>Node1</title>
<g id="a_Node000001"><a xlink:title=" ">
<polygon fill="#999999" stroke="#666666" points="167,-123.5 0,-123.5 0,-93.5 167,-93.5 167,-123.5"/>
<text text-anchor="start" x="8" y="-111.5" font-family="Helvetica,sans-Serif" font-size="10.00">modeling_deepseek.Deepseek</text>
<text text-anchor="middle" x="83.5" y="-100.5" font-family="Helvetica,sans-Serif" font-size="10.00">V3RotaryEmbedding.forward</text>
</a>
</g>
</g>
<!-- Node2 -->
<g id="Node000002" class="node">
<title>Node2</title>
<g id="a_Node000002"><a xlink:href="$classmodeling__deepseek_1_1DeepseekV3RotaryEmbedding.html#ae01ef97644accdcf3fe2fe1b1aef2ca2" xlink:title=" ">
<polygon fill="white" stroke="#666666" points="395.5,-218 228.5,-218 228.5,-177 395.5,-177 395.5,-218"/>
<text text-anchor="start" x="236.5" y="-206" font-family="Helvetica,sans-Serif" font-size="10.00">modeling_deepseek.Deepseek</text>
<text text-anchor="start" x="236.5" y="-195" font-family="Helvetica,sans-Serif" font-size="10.00">V3RotaryEmbedding._set</text>
<text text-anchor="middle" x="312" y="-184" font-family="Helvetica,sans-Serif" font-size="10.00">_cos_sin_cache</text>
</a>
</g>
</g>
<!-- Node1&#45;&gt;Node2 -->
<g id="edge9_Node000001_Node000002" class="edge">
<title>Node1&#45;&gt;Node2</title>
<g id="a_edge9_Node000001_Node000002"><a xlink:title=" ">
<path fill="none" stroke="#63b8ff" d="M110.61,-123.7C134.16,-136.92 170.05,-155.89 203,-168.5 208.1,-170.45 213.38,-172.32 218.75,-174.11"/>
<polygon fill="#63b8ff" stroke="#63b8ff" points="217.88,-177.51 228.47,-177.24 220.02,-170.84 217.88,-177.51"/>
</a>
</g>
</g>
<!-- Node3 -->
<g id="Node000003" class="node">
<title>Node3</title>
<g id="a_Node000003"><a xlink:href="$classmodeling__deepseek_1_1DeepseekV3LinearScalingRotaryEmbedding.html#a8e7b2346a4ecceac9140a465b2798e09" xlink:title=" ">
<polygon fill="white" stroke="#666666" points="404.5,-159 219.5,-159 219.5,-118 404.5,-118 404.5,-159"/>
<text text-anchor="start" x="227.5" y="-147" font-family="Helvetica,sans-Serif" font-size="10.00">modeling_deepseek.Deepseek</text>
<text text-anchor="start" x="227.5" y="-136" font-family="Helvetica,sans-Serif" font-size="10.00">V3LinearScalingRotaryEmbedding.</text>
<text text-anchor="middle" x="312" y="-125" font-family="Helvetica,sans-Serif" font-size="10.00">_set_cos_sin_cache</text>
</a>
</g>
</g>
<!-- Node1&#45;&gt;Node3 -->
<g id="edge10_Node000001_Node000003" class="edge">
<title>Node1&#45;&gt;Node3</title>
<g id="a_edge10_Node000001_Node000003"><a xlink:title=" ">
<path fill="none" stroke="#63b8ff" d="M167.23,-119.46C180.86,-121.26 195.12,-123.15 209.15,-125.01"/>
<polygon fill="#63b8ff" stroke="#63b8ff" points="208.94,-128.51 219.31,-126.36 209.86,-121.57 208.94,-128.51"/>
</a>
</g>
</g>
<!-- Node4 -->
<g id="Node000004" class="node">
<title>Node4</title>
<g id="a_Node000004"><a xlink:href="$classmodeling__deepseek_1_1DeepseekV3DynamicNTKScalingRotaryEmbedding.html#a7bc816eb10147956ba9463291fe22749" xlink:title=" ">
<polygon fill="white" stroke="#666666" points="421,-100 203,-100 203,-59 421,-59 421,-100"/>
<text text-anchor="start" x="211" y="-88" font-family="Helvetica,sans-Serif" font-size="10.00">modeling_deepseek.Deepseek</text>
<text text-anchor="start" x="211" y="-77" font-family="Helvetica,sans-Serif" font-size="10.00">V3DynamicNTKScalingRotaryEmbedding.</text>
<text text-anchor="middle" x="312" y="-66" font-family="Helvetica,sans-Serif" font-size="10.00">_set_cos_sin_cache</text>
</a>
</g>
</g>
<!-- Node1&#45;&gt;Node4 -->
<g id="edge11_Node000001_Node000004" class="edge">
<title>Node1&#45;&gt;Node4</title>
<g id="a_edge11_Node000001_Node000004"><a xlink:title=" ">
<path fill="none" stroke="#63b8ff" d="M167.23,-97.91C175.59,-96.84 184.19,-95.74 192.82,-94.63"/>
<polygon fill="#63b8ff" stroke="#63b8ff" points="193.49,-98.07 202.96,-93.33 192.6,-91.13 193.49,-98.07"/>
</a>
</g>
</g>
<!-- Node5 -->
<g id="Node000005" class="node">
<title>Node5</title>
<g id="a_Node000005"><a xlink:href="$classmodeling__deepseek_1_1DeepseekV3YarnRotaryEmbedding.html#a6f5c4d2f0bb03b152f6c4a6a6045f8ad" xlink:title=" ">
<polygon fill="white" stroke="#666666" points="395.5,-41 228.5,-41 228.5,0 395.5,0 395.5,-41"/>
<text text-anchor="start" x="236.5" y="-29" font-family="Helvetica,sans-Serif" font-size="10.00">modeling_deepseek.Deepseek</text>
<text text-anchor="start" x="236.5" y="-18" font-family="Helvetica,sans-Serif" font-size="10.00">V3YarnRotaryEmbedding.</text>
<text text-anchor="middle" x="312" y="-7" font-family="Helvetica,sans-Serif" font-size="10.00">_set_cos_sin_cache</text>
</a>
</g>
</g>
<!-- Node1&#45;&gt;Node5 -->
<g id="edge12_Node000001_Node000005" class="edge">
<title>Node1&#45;&gt;Node5</title>
<g id="a_edge12_Node000001_Node000005"><a xlink:title=" ">
<path fill="none" stroke="#63b8ff" d="M111.63,-93.43C135.25,-80.75 170.67,-62.78 203,-50.5 208.79,-48.3 214.81,-46.18 220.91,-44.16"/>
<polygon fill="#63b8ff" stroke="#63b8ff" points="222.1,-47.46 230.55,-41.07 219.96,-40.79 222.1,-47.46"/>
</a>
</g>
</g>
</g>
</svg>
