<?xml version="1.0" encoding="UTF-8" standalone="no"?>
<!DOCTYPE svg PUBLIC "-//W3C//DTD SVG 1.1//EN"
 "http://www.w3.org/Graphics/SVG/1.1/DTD/svg11.dtd">
<!-- Generated by graphviz version 2.43.0 (0)
 -->
<!-- Title: modeling_deepseek.DeepseekV3Model Pages: 1 -->
<svg width="503pt" height="440pt"
 viewBox="0.00 0.00 503.00 440.00" xmlns="http://www.w3.org/2000/svg" xmlns:xlink="http://www.w3.org/1999/xlink">
<g id="graph0" class="graph" transform="scale(1 1) rotate(0) translate(4 436)">
<title>modeling_deepseek.DeepseekV3Model</title>
<!-- Node1 -->
<g id="Node000001" class="node">
<title>Node1</title>
<g id="a_Node000001"><a xlink:title=" ">
<polygon fill="#999999" stroke="transparent" points="265.5,-195 104.5,-195 104.5,0 265.5,0 265.5,-195"/>
<text text-anchor="start" x="110" y="-182.5" font-family="Helvetica,sans-Serif" font-size="10.00">modeling_deepseek.Deepseek</text>
<text text-anchor="start" x="164" y="-171.5" font-family="Helvetica,sans-Serif" font-size="10.00">V3Model</text>
<text text-anchor="start" x="114" y="-156.5" font-family="Helvetica,sans-Serif" font-size="10.00">+</text>
<text text-anchor="start" x="132" y="-156.5" font-family="Helvetica,sans-Serif" font-size="10.00">padding_idx</text>
<text text-anchor="start" x="114" y="-141.5" font-family="Helvetica,sans-Serif" font-size="10.00">+</text>
<text text-anchor="start" x="132" y="-141.5" font-family="Helvetica,sans-Serif" font-size="10.00">vocab_size</text>
<text text-anchor="start" x="114" y="-126.5" font-family="Helvetica,sans-Serif" font-size="10.00">+</text>
<text text-anchor="start" x="132" y="-126.5" font-family="Helvetica,sans-Serif" font-size="10.00">embed_tokens</text>
<text text-anchor="start" x="114" y="-111.5" font-family="Helvetica,sans-Serif" font-size="10.00">+</text>
<text text-anchor="start" x="132" y="-111.5" font-family="Helvetica,sans-Serif" font-size="10.00">layers</text>
<text text-anchor="start" x="114" y="-96.5" font-family="Helvetica,sans-Serif" font-size="10.00">+</text>
<text text-anchor="start" x="132" y="-96.5" font-family="Helvetica,sans-Serif" font-size="10.00">norm</text>
<text text-anchor="start" x="114" y="-81.5" font-family="Helvetica,sans-Serif" font-size="10.00">+</text>
<text text-anchor="start" x="132" y="-81.5" font-family="Helvetica,sans-Serif" font-size="10.00">gradient_checkpointing</text>
<text text-anchor="start" x="114" y="-66.5" font-family="Helvetica,sans-Serif" font-size="10.00">#</text>
<text text-anchor="start" x="132" y="-66.5" font-family="Helvetica,sans-Serif" font-size="10.00">_use_flash_attention_2</text>
<text text-anchor="start" x="114" y="-51.5" font-family="Helvetica,sans-Serif" font-size="10.00">+</text>
<text text-anchor="start" x="132" y="-51.5" font-family="Helvetica,sans-Serif" font-size="10.00">__init__()</text>
<text text-anchor="start" x="114" y="-36.5" font-family="Helvetica,sans-Serif" font-size="10.00">+</text>
<text text-anchor="start" x="132" y="-36.5" font-family="Helvetica,sans-Serif" font-size="10.00">get_input_embeddings()</text>
<text text-anchor="start" x="114" y="-21.5" font-family="Helvetica,sans-Serif" font-size="10.00">+</text>
<text text-anchor="start" x="132" y="-21.5" font-family="Helvetica,sans-Serif" font-size="10.00">set_input_embeddings()</text>
<text text-anchor="start" x="114" y="-6.5" font-family="Helvetica,sans-Serif" font-size="10.00">+</text>
<text text-anchor="start" x="132" y="-6.5" font-family="Helvetica,sans-Serif" font-size="10.00">forward()</text>
<polygon fill="#666666" stroke="#666666" points="105,-166.5 105,-166.5 266,-166.5 266,-166.5 105,-166.5"/>
<polygon fill="#666666" stroke="#666666" points="105,-61.5 105,-61.5 130,-61.5 130,-61.5 105,-61.5"/>
<polygon fill="#666666" stroke="#666666" points="130,-61.5 130,-61.5 266,-61.5 266,-61.5 130,-61.5"/>
<polygon fill="none" stroke="#666666" points="104.5,0 104.5,-195 265.5,-195 265.5,0 104.5,0"/>
</a>
</g>
</g>
<!-- Node2 -->
<g id="Node000002" class="node">
<title>Node2</title>
<g id="a_Node000002"><a xlink:href="$classmodeling__deepseek_1_1DeepseekV3PreTrainedModel.html" xlink:title=" ">
<polygon fill="white" stroke="transparent" points="265.5,-292 104.5,-292 104.5,-232 265.5,-232 265.5,-292"/>
<text text-anchor="start" x="110" y="-280" font-family="Helvetica,sans-Serif" font-size="10.00">modeling_deepseek.Deepseek</text>
<text text-anchor="start" x="138.5" y="-269" font-family="Helvetica,sans-Serif" font-size="10.00">V3PreTrainedModel</text>
<text text-anchor="start" x="125.5" y="-254" font-family="Helvetica,sans-Serif" font-size="10.00">+</text>
<text text-anchor="start" x="155" y="-254" font-family="Helvetica,sans-Serif" font-size="10.00">config_class</text>
<text text-anchor="start" x="125.5" y="-239" font-family="Helvetica,sans-Serif" font-size="10.00">#</text>
<text text-anchor="start" x="155" y="-239" font-family="Helvetica,sans-Serif" font-size="10.00">_init_weights()</text>
<polygon fill="#666666" stroke="#666666" points="105,-264 105,-264 266,-264 266,-264 105,-264"/>
<polygon fill="#666666" stroke="#666666" points="105,-249 105,-249 153,-249 153,-249 105,-249"/>
<polygon fill="#666666" stroke="#666666" points="153,-249 153,-249 266,-249 266,-249 153,-249"/>
<polygon fill="none" stroke="#666666" points="104.5,-232 104.5,-292 265.5,-292 265.5,-232 104.5,-232"/>
</a>
</g>
</g>
<!-- Node2&#45;&gt;Node1 -->
<g id="edge11_Node000001_Node000002" class="edge">
<title>Node2&#45;&gt;Node1</title>
<g id="a_edge11_Node000001_Node000002"><a xlink:title=" ">
<path fill="none" stroke="#63b8ff" d="M185,-221.92C185,-213.64 185,-204.54 185,-195.16"/>
<polygon fill="none" stroke="#63b8ff" points="181.5,-221.95 185,-231.95 188.5,-221.95 181.5,-221.95"/>
</a>
</g>
</g>
<!-- Node3 -->
<g id="Node000003" class="node">
<title>Node3</title>
<g id="a_Node000003"><a xlink:title=" ">
<polygon fill="white" stroke="transparent" points="92,-432 0,-432 0,-383 92,-383 92,-432"/>
<text text-anchor="start" x="5" y="-419.5" font-family="Helvetica,sans-Serif" font-size="10.00">PreTrainedModel</text>
<text text-anchor="start" x="44" y="-404.5" font-family="Helvetica,sans-Serif" font-size="10.00"> </text>
<text text-anchor="start" x="44" y="-389.5" font-family="Helvetica,sans-Serif" font-size="10.00"> </text>
<polygon fill="#666666" stroke="#666666" points="0,-414.5 0,-414.5 92,-414.5 92,-414.5 0,-414.5"/>
<polygon fill="#666666" stroke="#666666" points="0,-399.5 0,-399.5 92,-399.5 92,-399.5 0,-399.5"/>
<polygon fill="none" stroke="#666666" points="0,-383 0,-432 92,-432 92,-383 0,-383"/>
</a>
</g>
</g>
<!-- Node3&#45;&gt;Node2 -->
<g id="edge12_Node000002_Node000003" class="edge">
<title>Node3&#45;&gt;Node2</title>
<g id="a_edge12_Node000002_Node000003"><a xlink:title=" ">
<path fill="none" stroke="#63b8ff" d="M63.35,-373.91C75.04,-353.93 91.8,-328.69 111,-310 117.54,-303.63 125.08,-297.66 132.8,-292.26"/>
<polygon fill="none" stroke="#63b8ff" points="60.26,-372.26 58.34,-382.68 66.34,-375.73 60.26,-372.26"/>
</a>
</g>
</g>
<!-- Node4 -->
<g id="Node000004" class="node">
<title>Node4</title>
<g id="a_Node000004"><a xlink:title=" ">
<polygon fill="white" stroke="transparent" points="133.5,-432 110.5,-432 110.5,-383 133.5,-383 133.5,-432"/>
<text text-anchor="start" x="116" y="-419.5" font-family="Helvetica,sans-Serif" font-size="10.00">str</text>
<text text-anchor="start" x="120.5" y="-404.5" font-family="Helvetica,sans-Serif" font-size="10.00"> </text>
<text text-anchor="start" x="120.5" y="-389.5" font-family="Helvetica,sans-Serif" font-size="10.00"> </text>
<polygon fill="#666666" stroke="#666666" points="111,-414.5 111,-414.5 134,-414.5 134,-414.5 111,-414.5"/>
<polygon fill="#666666" stroke="#666666" points="111,-399.5 111,-399.5 134,-399.5 134,-399.5 111,-399.5"/>
<polygon fill="none" stroke="#666666" points="110.5,-383 110.5,-432 133.5,-432 133.5,-383 110.5,-383"/>
</a>
</g>
</g>
<!-- Node4&#45;&gt;Node2 -->
<g id="edge13_Node000002_Node000004" class="edge">
<title>Node4&#45;&gt;Node2</title>
<g id="a_edge13_Node000002_Node000004"><a xlink:title=" ">
<path fill="none" stroke="#63b8ff" d="M116.69,-382.92C113.35,-362.5 111.55,-332.75 123,-310 124.57,-306.89 126.44,-303.93 128.56,-301.12"/>
<polygon fill="none" stroke="#63b8ff" points="128.56,-301.12 129.56,-293.98 136.53,-292.15 135.53,-299.29 128.56,-301.12"/>
</a>
</g>
<text text-anchor="start" x="123" y="-346" font-family="Helvetica,sans-Serif" font-size="10.00" fill="grey"> #_skip_keys_device</text>
<text text-anchor="middle" x="174.5" y="-335" font-family="Helvetica,sans-Serif" font-size="10.00" fill="grey">_placement</text>
<text text-anchor="middle" x="174.5" y="-324" font-family="Helvetica,sans-Serif" font-size="10.00" fill="grey">+base_model_prefix</text>
</g>
<!-- Node5 -->
<g id="Node000005" class="node">
<title>Node5</title>
<g id="a_Node000005"><a xlink:title=" ">
<polygon fill="white" stroke="transparent" points="264,-432 232,-432 232,-383 264,-383 264,-432"/>
<text text-anchor="start" x="237" y="-419.5" font-family="Helvetica,sans-Serif" font-size="10.00">bool</text>
<text text-anchor="start" x="246" y="-404.5" font-family="Helvetica,sans-Serif" font-size="10.00"> </text>
<text text-anchor="start" x="246" y="-389.5" font-family="Helvetica,sans-Serif" font-size="10.00"> </text>
<polygon fill="#666666" stroke="#666666" points="232,-414.5 232,-414.5 264,-414.5 264,-414.5 232,-414.5"/>
<polygon fill="#666666" stroke="#666666" points="232,-399.5 232,-399.5 264,-399.5 264,-399.5 232,-399.5"/>
<polygon fill="none" stroke="#666666" points="232,-383 232,-432 264,-432 264,-383 232,-383"/>
</a>
</g>
</g>
<!-- Node5&#45;&gt;Node2 -->
<g id="edge14_Node000002_Node000005" class="edge">
<title>Node5&#45;&gt;Node2</title>
<g id="a_edge14_Node000002_Node000005"><a xlink:title=" ">
<path fill="none" stroke="#63b8ff" d="M245.87,-382.79C243.31,-362.54 237.77,-333.12 226,-310 224.62,-307.3 223.06,-304.62 221.36,-302.01"/>
<polygon fill="none" stroke="#63b8ff" points="221.33,-301.95 214.57,-299.44 214.29,-292.23 221.05,-294.75 221.33,-301.95"/>
</a>
</g>
<text text-anchor="middle" x="303.5" y="-357" font-family="Helvetica,sans-Serif" font-size="10.00" fill="grey"> #_supports_cache_class</text>
<text text-anchor="start" x="242" y="-346" font-family="Helvetica,sans-Serif" font-size="10.00" fill="grey">#_supports_flash_attn</text>
<text text-anchor="middle" x="303.5" y="-335" font-family="Helvetica,sans-Serif" font-size="10.00" fill="grey">_2</text>
<text text-anchor="start" x="242" y="-324" font-family="Helvetica,sans-Serif" font-size="10.00" fill="grey">+supports_gradient</text>
<text text-anchor="middle" x="303.5" y="-313" font-family="Helvetica,sans-Serif" font-size="10.00" fill="grey">_checkpointing</text>
</g>
<!-- Node6 -->
<g id="Node000006" class="node">
<title>Node6</title>
<g id="a_Node000006"><a xlink:title=" ">
<polygon fill="white" stroke="transparent" points="407,-432 381,-432 381,-383 407,-383 407,-432"/>
<text text-anchor="start" x="386" y="-419.5" font-family="Helvetica,sans-Serif" font-size="10.00">list</text>
<text text-anchor="start" x="392" y="-404.5" font-family="Helvetica,sans-Serif" font-size="10.00"> </text>
<text text-anchor="start" x="392" y="-389.5" font-family="Helvetica,sans-Serif" font-size="10.00"> </text>
<polygon fill="#666666" stroke="#666666" points="381,-414.5 381,-414.5 407,-414.5 407,-414.5 381,-414.5"/>
<polygon fill="#666666" stroke="#666666" points="381,-399.5 381,-399.5 407,-399.5 407,-399.5 381,-399.5"/>
<polygon fill="none" stroke="#666666" points="381,-383 381,-432 407,-432 407,-383 381,-383"/>
</a>
</g>
</g>
<!-- Node6&#45;&gt;Node2 -->
<g id="edge15_Node000002_Node000006" class="edge">
<title>Node6&#45;&gt;Node2</title>
<g id="a_edge15_Node000002_Node000006"><a xlink:title=" ">
<path fill="none" stroke="#63b8ff" d="M394.31,-382.97C393.29,-361.13 388.25,-329.18 369,-310 355.46,-296.5 316.41,-285.59 277.75,-277.68"/>
<polygon fill="none" stroke="#63b8ff" points="277.56,-277.65 270.9,-280.41 265.79,-275.33 272.45,-272.56 277.56,-277.65"/>
</a>
</g>
<text text-anchor="middle" x="443.5" y="-335" font-family="Helvetica,sans-Serif" font-size="10.00" fill="grey"> #_no_split_modules</text>
</g>
</g>
</svg>
