<?xml version="1.0" encoding="UTF-8" standalone="no"?>
<!DOCTYPE svg PUBLIC "-//W3C//DTD SVG 1.1//EN"
 "http://www.w3.org/Graphics/SVG/1.1/DTD/svg11.dtd">
<!-- Generated by graphviz version 2.43.0 (0)
 -->
<!-- Title: modeling_deepseek.DeepseekV3RMSNorm Pages: 1 -->
<svg width="169pt" height="183pt"
 viewBox="0.00 0.00 169.00 183.00" xmlns="http://www.w3.org/2000/svg" xmlns:xlink="http://www.w3.org/1999/xlink">
<g id="graph0" class="graph" transform="scale(1 1) rotate(0) translate(4 179)">
<title>modeling_deepseek.DeepseekV3RMSNorm</title>
<!-- Node1 -->
<g id="Node000001" class="node">
<title>Node1</title>
<g id="a_Node000001"><a xlink:title=" ">
<polygon fill="#999999" stroke="transparent" points="161,-90 0,-90 0,0 161,0 161,-90"/>
<text text-anchor="start" x="5.5" y="-78" font-family="Helvetica,sans-Serif" font-size="10.00">modeling_deepseek.Deepseek</text>
<text text-anchor="start" x="50" y="-67" font-family="Helvetica,sans-Serif" font-size="10.00">V3RMSNorm</text>
<text text-anchor="start" x="18.5" y="-52" font-family="Helvetica,sans-Serif" font-size="10.00">+</text>
<text text-anchor="start" x="45.5" y="-52" font-family="Helvetica,sans-Serif" font-size="10.00">weight</text>
<text text-anchor="start" x="18.5" y="-37" font-family="Helvetica,sans-Serif" font-size="10.00">+</text>
<text text-anchor="start" x="45.5" y="-37" font-family="Helvetica,sans-Serif" font-size="10.00">variance_epsilon</text>
<text text-anchor="start" x="18.5" y="-22" font-family="Helvetica,sans-Serif" font-size="10.00">+</text>
<text text-anchor="start" x="45.5" y="-22" font-family="Helvetica,sans-Serif" font-size="10.00">__init__()</text>
<text text-anchor="start" x="18.5" y="-7" font-family="Helvetica,sans-Serif" font-size="10.00">+</text>
<text text-anchor="start" x="45.5" y="-7" font-family="Helvetica,sans-Serif" font-size="10.00">forward()</text>
<polygon fill="#666666" stroke="#666666" points="0.5,-62 0.5,-62 161.5,-62 161.5,-62 0.5,-62"/>
<polygon fill="#666666" stroke="#666666" points="0.5,-32 0.5,-32 43.5,-32 43.5,-32 0.5,-32"/>
<polygon fill="#666666" stroke="#666666" points="43.5,-32 43.5,-32 161.5,-32 161.5,-32 43.5,-32"/>
<polygon fill="none" stroke="#666666" points="0,0 0,-90 161,-90 161,0 0,0"/>
</a>
</g>
</g>
<!-- Node2 -->
<g id="Node000002" class="node">
<title>Node2</title>
<g id="a_Node000002"><a xlink:title=" ">
<polygon fill="white" stroke="transparent" points="111.5,-175 49.5,-175 49.5,-126 111.5,-126 111.5,-175"/>
<text text-anchor="start" x="54.5" y="-162.5" font-family="Helvetica,sans-Serif" font-size="10.00">nn.Module</text>
<text text-anchor="start" x="78.5" y="-147.5" font-family="Helvetica,sans-Serif" font-size="10.00"> </text>
<text text-anchor="start" x="78.5" y="-132.5" font-family="Helvetica,sans-Serif" font-size="10.00"> </text>
<polygon fill="#666666" stroke="#666666" points="49.5,-157.5 49.5,-157.5 111.5,-157.5 111.5,-157.5 49.5,-157.5"/>
<polygon fill="#666666" stroke="#666666" points="49.5,-142.5 49.5,-142.5 111.5,-142.5 111.5,-142.5 49.5,-142.5"/>
<polygon fill="none" stroke="#666666" points="49.5,-126 49.5,-175 111.5,-175 111.5,-126 49.5,-126"/>
</a>
</g>
</g>
<!-- Node2&#45;&gt;Node1 -->
<g id="edge3_Node000001_Node000002" class="edge">
<title>Node2&#45;&gt;Node1</title>
<g id="a_edge3_Node000001_Node000002"><a xlink:title=" ">
<path fill="none" stroke="#63b8ff" d="M80.5,-115.62C80.5,-107.56 80.5,-98.84 80.5,-90.39"/>
<polygon fill="none" stroke="#63b8ff" points="77,-115.75 80.5,-125.76 84,-115.76 77,-115.75"/>
</a>
</g>
</g>
</g>
</svg>
